<svg width="250" height="340" viewBox="0 0 250 340" fill="none" xmlns="http://www.w3.org/2000/svg"><path fill-rule="evenodd" clip-rule="evenodd" d="M3.43 339.644h187.963a2.768 2.768 0 0 0 0-5.537H3.431a2.768 2.768 0 0 0 0 5.537z" fill="#B4D7DC"/><path fill-rule="evenodd" clip-rule="evenodd" d="M29.297 278.894s-11.503 13.245-13.615 15.355c-1.745 1.741-4.218 2.375-6.59 3.042-.758.213-1.746.993-2.581 1.65-.672.525-.978 1.348-.963 2.201.272 14.91 13.243 25.363 13.936 24.491 1.245-1.576.295-5.943-2.185-8.824-2.497-2.898-3.102-6.984-1.989-10.645a17.712 17.712 0 0 1 4.707-7.65l10.002-9.368-.722-10.252zm117.579 18.838l9.15 15.298a22.837 22.837 0 0 1 2.901 15.582v.005c-.523 3.004 1.731 5.77 4.779 5.847 9.849.244 28.912.599 29.463-.298 2.801-4.576-9.257-6.623-18.726-9.831-6.385-2.165-14.244-19.461-19.225-33.071l-7.465 4.731a1.986 1.986 0 0 0-.877 1.737z" fill="#FA968C"/><path fill-rule="evenodd" clip-rule="evenodd" d="M174.258 329.602c4.046 0 8.175-.929 11.989-1.684a2.492 2.492 0 0 1 1.315.094c4.414 1.569 7.092 3.727 5.606 6.153-.597.976-23.02.472-31.779.238-1.83-.049-3.173-1.712-2.858-3.519l.573-3.287c4.952 1.261 10.028 2.005 15.154 2.005z" fill="#823264"/><path fill-rule="evenodd" clip-rule="evenodd" d="M114.137 124.973c-10.115-2.026-22.198 6.264-24.805 19.291-1.498 7.486-3.706 35.374-3.392 58.133.12 8.736-4.071 17.139-11.53 21.68-1.216.74-2.33 1.554-3.298 2.439-4.992 4.561-28.205 33.676-42.755 53.428-.455 3.089.002 7.361 1.727 9.391 18.624-14.602 50.206-42.095 55.514-46.945 2.95-2.694 6.245-5.849 8.927-8.956 11.441-7.671 30.011-66.244 32.43-78.331 2.607-13.027-2.703-28.104-12.818-30.13z" fill="#FFAA50"/><path fill-rule="evenodd" clip-rule="evenodd" d="M123.561 40.508c0 11.218-7.045 20.312-15.736 20.312S92.09 51.726 92.09 40.508c0-11.217 7.044-20.31 15.735-20.31 8.691 0 15.736 9.093 15.736 20.31z" fill="#9B14AA"/><path fill-rule="evenodd" clip-rule="evenodd" d="M104.051 42.604c-.251-11.243-9.348-20.691-20.568-21.334-9.954-.567-18.547 5.535-21.764 14.248-1.129 3.053-4.119 5.04-7.372 4.992a19.232 19.232 0 0 0-4.156.396c-8.224 1.686-14.608 8.634-15.475 16.987-.78 7.538 2.744 14.297 8.409 18.153 2.414 1.646 3.789 4.372 4.188 7.268 1.855 13.399 14.083 23.241 28.031 21.714 11.932-1.307 21.48-11.13 22.495-23.094.623-7.34-1.895-14.071-6.324-19.07 7.546-3.57 12.736-11.309 12.536-20.26z" fill="#9B14AA"/><path fill-rule="evenodd" clip-rule="evenodd" d="M242.737 45.443c-3.974-.85-7.631.844-9.671 3.753h-2.359V27.443a7.219 7.219 0 0 0-7.218-7.22H199.16v-2.418c2.909-2.04 4.602-5.7 3.752-9.676-.733-3.425-3.482-6.23-6.895-7.01-6.095-1.39-11.501 3.204-11.501 9.064a9.294 9.294 0 0 0 3.97 7.622v2.418h-21.741a7.217 7.217 0 0 0-7.217 7.22v21.753h1.618c2.04-2.909 5.695-4.603 9.668-3.753 3.424.732 6.227 3.483 7.006 6.897 1.392 6.098-3.2 11.51-9.056 11.51a9.286 9.286 0 0 1-7.618-3.975h-1.618v24.343a7.22 7.22 0 0 0 7.217 7.222h21.741v-1.675c-2.907-2.041-4.601-5.7-3.751-9.676.733-3.425 3.483-6.23 6.896-7.01 6.094-1.39 11.5 3.204 11.5 9.064a9.295 9.295 0 0 1-3.971 7.622v1.675h24.329a7.22 7.22 0 0 0 7.218-7.222V59.875h2.359a9.288 9.288 0 0 0 7.618 3.974c5.857 0 10.449-5.409 9.059-11.507-.78-3.414-3.583-6.165-7.006-6.899z" fill="#05CDFF"/><path fill-rule="evenodd" clip-rule="evenodd" d="M107.825 13.535s8.855 5.575 7.778 13.086c0 0 4.728-3.35 5.799-14.891.739-7.999-13.577 1.805-13.577 1.805z" fill="#9B14AA"/><path fill-rule="evenodd" clip-rule="evenodd" d="M129.012 59.301a55.69 55.69 0 0 0 .521 10.652c.48 3.491 1.303 6.959 2.507 9.834.591 1.437 1.265 2.67 1.892 3.608.639.935 1.124 1.233 1.035 1.337-.126.09-.207.376.612.096.35-.051.858-.464 1.374-.745.525-.429 1.091-.873 1.649-1.422 2.253-2.28 4.444-5.432 6.312-8.838 1.904-3.391 3.636-7.02 5.259-10.742 3.198-7.467 5.997-15.274 8.589-23.179l.009-.021a2.772 2.772 0 0 1 5.382 1.233c-1.119 8.381-2.511 16.769-4.645 25.137-.484 2.101-1.152 4.185-1.73 6.287-.703 2.086-1.345 4.183-2.186 6.273-1.59 4.186-3.523 8.383-6.547 12.586-.778 1.049-1.69 2.093-2.65 3.122-1.116 1.02-2.146 2.04-3.679 2.93l-1.081.663c-.387.21-.848.387-1.277.57-.895.346-1.715.733-2.773.895-1.981.457-4.223.457-6.254.019-4.155-.912-7.179-3.217-9.312-5.375a33.553 33.553 0 0 1-5.028-6.79c-4.955-9.177-6.844-18.48-7.293-28.13l-.002-.032c-.246-5.336 3.876-9.865 9.212-10.112 5.334-.246 9.858 3.878 10.106 9.215.013.308.013.627-.002.93z" fill="#FAB9AF"/><path fill-rule="evenodd" clip-rule="evenodd" d="M117.735 98.219c3.543-10.682 10.67-33.3 10.06-40.693a9.113 9.113 0 0 0-9.095-8.362H87.883a9.434 9.434 0 0 0-9.437 9.164c-.261 8.93 3.85 29.254 6.165 39.89h33.124zm-6.075 48.224c3.545 12.804 32.358 103.82 22.415 106.576-9.941 2.753-64.052-86.11-64.742-99.377-.655-12.585 6.634-26.217 16.577-28.973 9.94-2.755 22.206 8.97 25.75 21.774z" fill="#FAB9AF"/><path fill-rule="evenodd" clip-rule="evenodd" d="M156.214 294.887c.368-.431.453-1.039.259-1.573-7.703-21.336-18.043-48.364-20.249-53.469a30.072 30.072 0 0 0-.799-1.709c-3.761-26.983-21.069-81.955-23.764-91.693-3.544-12.803-15.81-24.529-25.753-21.773-9.94 2.753-17.231 16.388-16.575 28.973.432 8.304 21.79 46.222 40.148 72.754 3.865 5.586 6.292 11.998 7.474 18.689.816 4.627 2.12 9.241 3.578 12.615 2.172 5.026 14.905 24.204 26.28 40.469.327.47.882.746 1.454.689 3.017-.308 5.869-1.531 7.947-3.972z" fill="#FAC855"/><path fill-rule="evenodd" clip-rule="evenodd" d="M81.086 111.76a29.346 29.346 0 0 0 1.404-13.978c-1.555-10.926-4.273-31.511-4.022-40.25.134-4.671 3.959-8.368 8.63-8.368h4.57c1.74 4.04 5.427 7.158 11.161 7.158 5.724 0 9.413-3.119 11.156-7.158h4.29c-4.662 9.988-2.985 23.166 5.037 30.854-1.492 5.273-2.746 10.578-3.683 14.88a29.093 29.093 0 0 0 1.583 17.395c3.938 9.457 7.059 24.623 6.131 30.634-32.417 9.193-54.834-7.076-54.834-7.076l8.577-24.091z" fill="#39AE96"/><path fill-rule="evenodd" clip-rule="evenodd" d="M119.629 94.897c.316-1.45.682-3.043 1.066-4.684-4.664-1.165-9.252-2.696-13.727-4.659-9.427-4.133-21.465-10.847-28.23-20.109.186 2.66.45 5.586.766 8.624 3.328 7.764 6.896 15.261 13.443 21.098 7.837 6.988 17.383 11.611 27.372 14.64a29.062 29.062 0 0 1-.69-14.91z" fill="#1C9585"/><path fill-rule="evenodd" clip-rule="evenodd" d="M107.825 51.287l-13.98-1.47 4.424-15.306 9.042 1.12.514 15.656z" fill="#FAB9AF"/><path fill-rule="evenodd" clip-rule="evenodd" d="M107.311 35.631l-9.042-1.12-1.381 4.78c2.025 2.283 4.626 7.216 7.916 7.216a5.233 5.233 0 0 0 2.849-.838l-.342-10.038z" fill="#FA968C"/><path fill-rule="evenodd" clip-rule="evenodd" d="M107.623 43.03c-3.071 0-6.392-1.537-10.965-5.536-2.627-2.295-4.57-6.298-4.57-9.003V13.534H115.1s1.727 7.943.051 15.823c-1.258 5.913-5.115 13.673-7.529 13.673z" fill="#FAB9AF"/><path fill-rule="evenodd" clip-rule="evenodd" d="M95.989 25.663c0 2.92-1.396 5.283-3.118 5.283-1.723 0-3.623-3.825-3.623-6.742 0-2.919 1.9-3.825 3.623-3.825 1.722 0 3.118 2.365 3.118 5.284z" fill="#FAB9AF"/><path fill-rule="evenodd" clip-rule="evenodd" d="M89.249 15.347a8.45 8.45 0 0 1 8.453-8.454l7.767.002c2.223 0 4.378-.58 6.267-1.654 2.741-1.556 6.205-1.038 8.075 1.501 2.021 2.743 2.896 6.417-2.229 9.819-2.548 1.69-6.273-.183-8.755.629-.153-.007-.289-.032-.449-.032h-6.847c-2.38 0-4.199 1.945-4.269 4.327a2.792 2.792 0 0 1-2.79 2.71h-.304l-1.096-3.514-3.823 5.156v-10.49z" fill="#9B14AA"/><path fill-rule="evenodd" clip-rule="evenodd" d="M164.871 31.864s1.609 7.95-.655 9.244c-2.263 1.297-4.018 1.752-6.026-1.473-2.008-3.224-3.226-8.605-3.313-11.977-.085-3.372 2.157-9.085 2.801-9.538 2.344-1.65 1.857 4.476 1.766 7.452-.092 2.979.102 6.351 1.547 5.99 1.445-.362 1.19-6.079 2.707-7.04 1.519-.961 1.173 7.342 1.173 7.342zm34.337 54.069s-8.001-1.307-9.21 1.004c-1.207 2.31-1.596 4.084 1.7 5.97 3.296 1.886 8.717 2.9 12.089 2.858 3.371-.04 8.991-2.499 9.421-3.16 1.557-2.405-4.542-1.688-7.512-1.484-2.971.204-6.346.138-6.04-1.32.306-1.457 6.025-1.419 6.928-2.973.903-1.556-7.376-.895-7.376-.895z" fill="#FAB9AF"/><path fill-rule="evenodd" clip-rule="evenodd" d="M113.386 13.273c-.772 3.416.367 5.285-10.827 10.618-11.195 5.334-14.737 3.055-18.233 8.798 0 0 1.528-9.513 7.71-12.776 6.184-3.266 16.906-5.399 20.345-12.957 0 0 1.532 3.982 1.005 6.317z" fill="#9B14AA"/><path fill-rule="evenodd" clip-rule="evenodd" d="M94.024 57.834a1.098 1.098 0 0 0-.037-.236l.056.164.1.376c.138.338.278.685.397 1.033.319.719.66 1.5 1.082 2.252.51.742.886 1.537 1.46 2.27.59.73 1.192 1.45 1.742 2.222 1.426 1.353 2.616 2.907 4.35 4.1l2.429 1.93 2.752 1.67c7.388 4.52 16.364 7.454 25.644 9.724 2.35.485 4.747.861 7.129 1.304 2.391.408 4.769.937 7.23 1.093l7.346.724 3.689.417 3.723.164 7.476.332c2.499.13 5 .231 7.514.176 5.025.002 10.064-.068 15.144.01l.156.003a2.768 2.768 0 0 1 2.726 2.813 2.774 2.774 0 0 1-2.199 2.67c-5.03 1.057-10.101 1.967-15.184 2.95-2.535.556-5.11.788-7.688 1.086l-7.752.88-3.889.438-3.927.168-7.879.232c-2.629.161-5.285-.062-7.945-.175-2.659-.144-5.328-.227-8.003-.433-10.693-1.206-21.626-3.504-32.088-8.784l-3.882-2.079c-1.254-.812-2.486-1.697-3.725-2.558-2.535-1.603-4.767-3.865-7.07-5.947-1.067-1.188-2.085-2.426-3.111-3.654-1.005-1.253-1.86-2.7-2.769-4.061-.856-1.436-1.617-2.962-2.335-4.553l-.946-2.532-.408-1.46-.195-.755-.224-1.17c-.773-5.281 2.878-10.188 8.154-10.962 5.277-.774 10.183 2.879 10.957 8.158z" fill="#FAB9AF"/><path fill-rule="evenodd" clip-rule="evenodd" d="M111.233 13.91s.425 11.508 10.476 17.036c0 0-4.428-8.698-4.126-14.386.301-5.69-7.013-6.582-6.35-2.65z" fill="#9B14AA"/><path fill-rule="evenodd" clip-rule="evenodd" d="M.743 303.703a2.051 2.051 0 0 1 .85-2.533c.712-.423 2.62-1.601 4.057-2.485.623-.383 1.405.026 1.487.753.931 8.236 4.663 15.701 11.665 19.26 1.827 2.439 2.086 6.609 1.1 7.854-.231.294-3.51-.79-6.26-3.944C1.428 308.61.743 303.703.743 303.703z" fill="#823264"/></svg>