<svg width="297" height="662" viewBox="0 0 297 662" fill="none" xmlns="http://www.w3.org/2000/svg"><path fill-rule="evenodd" clip-rule="evenodd" d="M127.976 22.155c.176-2.973 5.317-9.03 4.535-9.787-.565-.544-2.565 1.327-3.647 2.422a.458.458 0 0 1-.784-.287c-.234-2.922-.965-11.095-1.781-11.171-.824-.079-1.238 5.092-1.353 6.829a.111.111 0 0 1-.096.102.11.11 0 0 1-.119-.074c-.637-1.837-2.779-7.767-3.699-7.004-.874.723.482 6.402 1.045 8.588a.111.111 0 0 1-.204.083c-1.107-1.959-4.025-6.921-4.811-6.287-.803.646 1.458 6.025 2.295 7.934a.113.113 0 0 1-.042.139.114.114 0 0 1-.143-.022c-1.264-1.426-4.571-5.064-4.552-3.997.022 1.323 5.831 12.315 7.735 14.154 1.902 1.841 5.621-1.622 5.621-1.622z" fill="#FA968C"/><path fill-rule="evenodd" clip-rule="evenodd" d="M180.136 58.946c-3.937 8.73-9.605 18.646-16.458 25.452-13.332 13.203-30.443 9.753-36.414-21.123-1.039-4.652-1.766-9.285-2.376-13.91-1.241-9.236-1.721-18.444-2.146-27.625a2.52 2.52 0 0 1 2.399-2.634 2.52 2.52 0 0 1 2.584 2.015l.011.052c1.806 8.912 3.623 17.808 5.952 26.462 1.199 4.31 2.44 8.585 3.887 12.708 1.253 3.901 6.294 16.029 10.212 17.215.13-.021.258.149.332.075.072-.066.108-.073.153-.032.074-.098.123-.14.187-.128.215-.174.467-.204.933-.58.854-.562 2.023-1.667 3.132-3.045 2.274-2.698 4.392-6.261 6.256-9.961 3.232-6.274 5.104-10.788 5.104-10.788 3.98-10.916 20.483-5.688 16.499 5.243a9.816 9.816 0 0 1-.247.604z" fill="#FA968C"/><path fill-rule="evenodd" clip-rule="evenodd" d="M153.687 70.694l.045-.063a107.83 107.83 0 0 0 5.601-9.185c1.706-3.083 3.445-6.508 4.662-9.421l.06-.147c.098-.232.206-.461.327-.689 2.263-4.301 7.58-5.953 11.879-3.689a8.801 8.801 0 0 1 3.687 11.885c-2.123 4.036-4.178 7.334-6.524 10.806-1.59 2.291-3.279 4.516-5.019 6.703-1.297-1.384-11.622-5.09-14.718-6.2z" fill="#A5A0AA"/><path fill-rule="evenodd" clip-rule="evenodd" d="M162.301 131.814c7.652 8.785 51.822 12.453 51.822 12.453 3.26-3.787-1.504-20.992-2.654-38.458-1.243-18.885-1.959-39.727-2.286-50.99a8.582 8.582 0 0 0-8.585-8.334h-28.029a8.291 8.291 0 0 0-8.275 7.607c-.735 8.917-2.014 24.415-3.277 39.608-1.281 15.417-5.331 30.519 1.284 38.114z" fill="#FAB9AF"/><path fill-rule="evenodd" clip-rule="evenodd" d="M187.782 278.63l-.064 17.381 1.509 8.466c.261 1.465-.822 2.822-2.31 2.868-7.112.217-25.324.698-25.81-.091-2.291-3.706 8.06-5.132 15.631-8.064 7.574-2.935 2.348-31.699 2.348-31.699l8.696 11.139z" fill="#FA968C"/><path fill-rule="evenodd" clip-rule="evenodd" d="M176.738 299.188c.041-.014.077-.042.115-.059 1.804.674 3.836 1.069 6.124 1.069 1.964 0 3.743-.282 5.347-.786l.903 5.064a2.429 2.429 0 0 1-2.31 2.868c-7.112.219-25.323.7-25.81-.091-2.291-3.706 8.06-5.133 15.631-8.065z" fill="#F57A2F"/><path fill-rule="evenodd" clip-rule="evenodd" d="M162.312 138.149c-.274 12.081 4.475 88.731 13.857 88.943 9.38.213 19.841-76.091 20.115-88.171.275-12.083-7.11-22.049-16.49-22.261-9.381-.215-17.208 9.408-17.482 21.489z" fill="#0091C8"/><path fill-rule="evenodd" clip-rule="evenodd" d="M189.126 211.17c.93 6.651 1.081 49.261-.415 70.905h-8.54c-4.586-20.996-9.486-61.69-10.398-68.192l-.027-.249c-5.103-22.588-7.636-66.576-7.434-75.485.274-12.083 8.101-21.703 17.483-21.491 9.379.215 16.762 10.18 16.488 22.261-.17 7.586-7.597 69.102-7.157 72.251z" fill="#FF965A"/><path fill-rule="evenodd" clip-rule="evenodd" d="M187.726 244.968a44.908 44.908 0 0 0-1.443-13.433c-3.349-12.786-3.445-26.115-2.095-39.263.112-1.104.193-2.214.244-3.332.772-17.213-8.472-32.856-21.957-42.721-.145-3.629-.2-6.44-.164-8.071.274-12.081 8.103-21.701 17.482-21.489 9.382.213 16.764 10.18 16.49 22.261-.172 7.584-7.599 69.1-7.157 72.251.931 6.648 1.08 49.259-.414 70.905h-8.54c-.538-2.464-1.08-5.22-1.62-8.139 5.413-8.413 8.7-18.383 9.174-28.969z" fill="#F07D4B"/><path fill-rule="evenodd" clip-rule="evenodd" d="M208.278 278.63l-.064 17.381 1.509 8.466c.261 1.465-.822 2.822-2.31 2.868-7.112.217-25.324.698-25.81-.091-2.291-3.706 8.06-5.132 15.631-8.064 7.574-2.935 2.348-31.699 2.348-31.699l8.696 11.139z" fill="#FA968C"/><path fill-rule="evenodd" clip-rule="evenodd" d="M197.235 299.188c.04-.014.076-.042.114-.059 1.804.674 3.836 1.069 6.125 1.069 1.961 0 3.742-.282 5.346-.786l.903 5.064a2.428 2.428 0 0 1-2.31 2.868c-7.112.219-25.323.7-25.81-.091-2.291-3.706 8.06-5.133 15.632-8.065z" fill="#FF8C46"/><path fill-rule="evenodd" clip-rule="evenodd" d="M182.808 138.149c-.274 12.081 4.475 88.731 13.857 88.943 9.38.213 17.812-76.371 18.086-88.454.274-12.081-5.081-21.766-14.461-21.978-9.381-.215-17.208 9.408-17.482 21.489z" fill="#0091C8"/><path fill-rule="evenodd" clip-rule="evenodd" d="M209.622 211.17c.93 6.651 1.081 49.261-.415 70.905h-8.54c-4.586-20.996-9.488-61.69-10.398-68.192l-.027-.249c-5.103-22.588-9.665-66.859-9.463-75.767.274-12.081 10.13-21.421 19.512-21.209 9.379.215 14.732 9.9 14.46 21.981-.172 7.584-5.571 69.382-5.129 72.531z" fill="#FFBE82"/><path fill-rule="evenodd" clip-rule="evenodd" d="M172.302 46.486h4.554c1.587 3.674 4.94 6.512 10.147 6.512 5.214 0 8.57-2.838 10.153-6.512h4.156c4.25 0 7.729 3.361 7.85 7.611.317 11.075 1.037 32.416 2.308 51.713 1.147 17.464 5.914 33.695 2.654 38.455 0 0-44.17-3.667-51.822-12.45-6.615-7.595-2.565-22.697-1.284-38.114 1.275-15.342 2.567-30.995 3.298-39.867a8.006 8.006 0 0 1 7.986-7.348z" fill="#828291"/><path fill-rule="evenodd" clip-rule="evenodd" d="M204.196 71.636c.404-9.007-1.928-17.594-6.171-25.15h3.287c4.25 0 7.729 3.363 7.85 7.611.319 11.075 1.037 32.415 2.308 51.712 1.147 17.465 5.914 33.696 2.654 38.456 0 0-44.17-3.665-51.823-12.451-1.742-1.998-2.73-4.528-3.238-7.437 25.659-4.048 43.96-26.532 45.133-52.741z" fill="#757582"/><path fill-rule="evenodd" clip-rule="evenodd" d="M188.211 36.279l.525.117a7.423 7.423 0 0 0 8.857-5.637l2.38-10.713-7.769-1.729-3.993 17.962z" fill="#41378C"/><path fill-rule="evenodd" clip-rule="evenodd" d="M181.269 46.485h14.657l-4.227-14.619-9.99 1.235-.44 13.384z" fill="#FAB9AF"/><path fill-rule="evenodd" clip-rule="evenodd" d="M181.709 33.102l9.99-1.237 1.97 6.814c-2.236 2.522-5.555 6.438-9.189 6.438a5.775 5.775 0 0 1-3.149-.925l.378-11.09z" fill="#FA968C"/><path fill-rule="evenodd" clip-rule="evenodd" d="M180.197 40.873c6.581 1.465 13.101-2.685 14.565-9.27l2.951-13.28-20.436-4.548s-2.303 10.367-2.371 17.696c-.049 5.498 1.938 8.656 5.291 9.402z" fill="#FAB9AF"/><path fill-rule="evenodd" clip-rule="evenodd" d="M193.83 22.805l3.84.854-.387 1.742-3.84-.853.387-1.743z" fill="#41378C"/><path fill-rule="evenodd" clip-rule="evenodd" d="M191.854 28.32c-.576 2.592.198 4.967 1.726 5.307 1.53.34 3.971-2.679 4.547-5.27.576-2.592-.933-3.772-2.46-4.112-1.53-.34-3.237 1.484-3.813 4.075z" fill="#FAB9AF"/><path fill-rule="evenodd" clip-rule="evenodd" d="M174.646 18.922c-.111-1.76.176-3.523.839-5.156 1.643-4.057 6.182-5.802 10.313-4.363.421.147.869.275 1.341.38l6.898 1.532a7.69 7.69 0 0 1 5.837 9.176l-.357 1.61-4.089 2.372-1.668 2.905-.27-.062a2.542 2.542 0 0 1-1.959-2.87c.34-2.169-.737-4.287-2.879-4.763l-6.12-1.363c-3.727-.829-6.11.742-6.728 3.532l-.334 2.4-.824-5.33z" fill="#41378C"/><path d="M194.193 97.725l100.846 561.438m-83.851 0L110.342 97.725m6.681 25.009h81.959M122.471 160.3h83.102m-75.527 37.567h82.361m-75.036 37.566h81.87m-77.432 37.566h82.818m-77.076 36.897h83.969m-75.547 38.236h82.681m-75.933 37.566h82.907m-76.236 35.501h82.909M175.062 456.7h82.909m-76.395 35.501h82.909m-76.582 35.501h82.909m-76.739 35.501h82.907m-75.736 35.5h82.909" stroke="#5046AF" stroke-width="2.067" stroke-linecap="round"/><path d="M110.342 97.725L8.642 660.44m83.85 0l101.7-562.716m-6.68 25.01h-81.719m76.27 37.566H98.961m75.528 37.567H92.128m75.036 37.566h-81.87m75.986 37.566H78.462m77.257 36.897h-83.97m75.729 38.236H64.796m77.017 37.566H58.905m76.527 42.141h-82.91m73.264 42.141H42.877m75.712 42.14H35.682m76.117 42.141H28.89m74.08 42.549H20.06" stroke="#9F9FFF" stroke-width="2.067" stroke-linecap="round"/><path fill-rule="evenodd" clip-rule="evenodd" d="M195.284 14.081c.467 3.789-13.141 8.588-16.728 9.032-3.59.442-6.879-2.269-7.347-6.058-.467-3.786 2.064-7.218 5.653-7.66 3.589-.444 17.954.897 18.422 4.686z" fill="#41378C"/><path fill-rule="evenodd" clip-rule="evenodd" d="M7.241 19.832c-4.354.77-7.26 4.928-6.492 9.284L8.151 71l2.777-.492c2.565-5.493 8.133-9.459 15-9.397 6.5.06 12.49 4.201 14.82 10.273 3.8 9.891-2.403 20.235-12.284 21.983-5.417.956-10.674-.9-14.295-4.512l-2.776.491 8.186 46.333c.771 4.357 4.926 7.265 9.28 6.494l41.86-7.404-.508-2.876c-5.49-2.567-9.454-8.137-9.39-15.011.057-6.504 4.197-12.493 10.266-14.826 9.885-3.801 20.224 2.405 21.97 12.289.956 5.422-.899 10.68-4.509 14.303l.51 2.877 46.306-8.192c4.354-.77 7.261-4.927 6.492-9.285l-18.83-106.56a8.01 8.01 0 0 0-9.282-6.496L7.241 19.832z" fill="#5046AF"/><path fill-rule="evenodd" clip-rule="evenodd" d="M210.832 60.782c-4.513 6.155-12.25 14.252-21.515 21.242-28.335 20.675-58.659 22.765-83.39-.638a2.521 2.521 0 0 1-.097-3.565 2.517 2.517 0 0 1 3.089-.453l.115.066c16.127 9.313 30.568 13.138 48.748 5.494 23.831-10.276 40.742-34.999 38.961-32.639a8.778 8.778 0 0 1 12.302-1.715c3.836 2.898 4.62 8.34 1.787 12.208z" fill="#FAB9AF"/><path fill-rule="evenodd" clip-rule="evenodd" d="M183.741 64.484c5.901-5.298 13.404-15.74 13.404-15.74s3.558-4.205 10.878-1.14c5.846 2.452 4.663 9.362 4.663 9.362-.143.961-2.096 12.361-15.538 22.444 0 0-14.397-14.037-13.407-14.926z" fill="#A5A0AA"/><path fill-rule="evenodd" clip-rule="evenodd" d="M110.714 78.497c-1.936-2.26-2.448-10.19-3.538-10.19-.782 0-.923 2.738-.94 4.275a.457.457 0 0 1-.76.34c-2.2-1.937-8.403-7.308-9.042-6.795-.648.519 2.648 4.524 3.77 5.853a.11.11 0 0 1 .002.14.111.111 0 0 1-.136.03c-1.734-.878-7.393-3.653-7.525-2.466-.125 1.129 4.794 4.27 6.715 5.45a.112.112 0 0 1 .045.14.114.114 0 0 1-.134.061c-2.155-.638-7.699-2.18-7.824-1.176-.128 1.023 5.231 3.32 7.159 4.11a.11.11 0 0 1 .066.128.11.11 0 0 1-.115.085c-1.902-.149-6.806-.466-6.05.291.933.936 12.746 4.799 15.391 4.799 2.648 0 2.916-5.075 2.916-5.075z" fill="#FAB9AF"/></svg>