<svg width="325" height="327" viewBox="0 0 325 327" fill="none" xmlns="http://www.w3.org/2000/svg"><path fill-rule="evenodd" clip-rule="evenodd" d="M2.947 327h117.298a2.767 2.767 0 0 0 2.766-2.768 2.767 2.767 0 0 0-2.766-2.769H2.947a2.768 2.768 0 0 0 0 5.537zm191.473 0h127.508a3.053 3.053 0 0 0 0-6.104H194.42a3.051 3.051 0 1 0 0 6.104z" fill="#B4D7DC"/><path fill-rule="evenodd" clip-rule="evenodd" d="M313.05 245.714c-.484-.098-.954-.195-1.381-.287-1.147-.242-2.618-.217-3.912-.108a11.953 11.953 0 0 1-6.305-1.178l-8.102-3.995c-3.424-1.686-7.089 1.809-5.57 5.311.13.3.37.54.667.672l9.586 4.25a19.197 19.197 0 0 1 7.138 5.471l2.718 3.357c5.778-3.613 4.974-10.144 5.161-13.493z" fill="#FAB9AF"/><path fill-rule="evenodd" clip-rule="evenodd" d="M309.537 273.634c.391-4.606-1.693-12.232-2.679-14.783 2.471-4.546 2.556-9.428 1.054-13.82 1.268-.103 2.682-.126 3.799.112 1.535.325 5.085.874 6.543 1.157a2.117 2.117 0 0 1 1.711 2.166s-4.586 33.217-5.604 32.586c-1.764-1.095-5.157-3.491-4.824-7.418z" fill="#46738C"/><path fill-rule="evenodd" clip-rule="evenodd" d="M136.313 212.849c-2.574 10.188-20.683 90.342-17.104 90.416 3.102.064 36.063-74.785 38.636-84.973 2.574-10.187-.161-19.665-6.107-21.168-5.946-1.504-12.852 5.536-15.425 15.725z" fill="#41B5E6"/><path fill-rule="evenodd" clip-rule="evenodd" d="M175.974 131.458c-8.706 10.618-47.61 80.232-39.365 87 8.245 6.769 62.177-50.869 70.883-61.487 8.708-10.618 7.421-25.718-.824-32.485-8.245-6.768-21.988-3.646-30.694 6.972z" fill="#41B5E6"/><path fill-rule="evenodd" clip-rule="evenodd" d="M123.754 314.401c.027-.493.053-.974.08-1.41.073-1.171-.17-2.621-.467-3.886a12.01 12.01 0 0 1 .242-6.415l2.76-8.604c1.167-3.634-2.828-6.751-6.066-4.733a1.304 1.304 0 0 0-.568.759l-2.796 10.11a19.195 19.195 0 0 1-4.361 7.867l-2.92 3.182c4.418 5.188 10.757 3.436 14.096 3.13z" fill="#FAB9AF"/><path fill-rule="evenodd" clip-rule="evenodd" d="M95.636 315.018c4.609-.289 11.844-3.47 14.222-4.82 4.858 1.78 9.695 1.146 13.817-.982.287 1.241.519 2.634.448 3.776-.097 1.567-.119 5.16-.184 6.644a2.123 2.123 0 0 1-1.892 2.014s-33.513.329-33.04-.77c.828-1.907 2.697-5.615 6.629-5.862z" fill="#46738C"/><path fill-rule="evenodd" clip-rule="evenodd" d="M157.845 218.292c-1.589 6.298-21.269 55.119-31.852 77.864-3.187-1.216-4.968-1.116-8.219-2.138 4.144-21.362 11.56-69.056 14.002-79.346 1.064-14.339 36.127-73.372 44.197-83.214 8.707-10.618 22.449-13.741 30.694-6.971 8.245 6.767 9.533 21.867.824 32.485-5.631 6.87-48.571 57.064-49.646 61.32z" fill="#695A6E"/><path fill-rule="evenodd" clip-rule="evenodd" d="M206.668 124.486c-8.245-6.768-21.988-3.647-30.694 6.971-.703.857-1.63 2.126-2.705 3.672 7.865 15.657 10.527 32.979 10.113 50.571 10.797-12.961 21.49-25.533 24.11-28.729 8.706-10.618 7.421-25.718-.824-32.485z" fill="#614C69"/><path fill-rule="evenodd" clip-rule="evenodd" d="M200.056 218.706l-.01-.008c-.009-.015-.015-.034-.022-.047a10.526 10.526 0 0 1-.805-2.028c-5.808-17.218-4.146-79.74-2.263-92.426a32.519 32.519 0 0 1 2.856-9.309l18.515 10.083a70.481 70.481 0 0 0 16.399 13.703c.941.567-.319-1.895.643-1.391-2.669 16.45-6.147 49.078-7.456 65.396a8.588 8.588 0 0 0 5.232 8.62c17.255 7.254 48.031 21.349 65.182 30.608l-.585 9.717c-25.034-5.25-75.046-20.127-82.639-22.344-7.167-2.092-12.735-6.211-15.047-10.574z" fill="#828291"/><path fill-rule="evenodd" clip-rule="evenodd" d="M184.781 60.83c-.048 1.056-.116 1.554-.193 2.264a55.981 55.981 0 0 1-.973 5.568c-.559 2.396-1.194 4.756-2.047 7.053a58.025 58.025 0 0 1-6.715 13.084c-5.616 8.152-13.797 14.575-22.669 18.028-4.416 1.807-8.978 2.893-13.483 3.54-4.512.742-8.993.769-13.396.672-8.808-.33-17.27-2.033-25.428-4.308a2.87 2.87 0 1 1 .997-5.624l.038.005c8.128.65 16.235.714 23.987-.262 7.703-1.108 15.151-3.032 21.224-6.73 6.108-3.59 10.876-8.544 13.917-14.542a39.85 39.85 0 0 0 3.536-9.474c.417-1.648.725-3.332.95-4.999a34.972 34.972 0 0 0 .302-3.659c.006-.323.01-.859-.011-.838.06-5.515 4.577-9.937 10.092-9.876 5.512.06 9.934 4.58 9.872 10.097z" fill="#FA968C"/><path fill-rule="evenodd" clip-rule="evenodd" d="M154.32 75.26c1.711-3.678 8.345-18.023 9.169-21.516l.041-.175a9.83 9.83 0 0 1 .238-.835c1.74-5.243 7.397-8.082 12.637-6.34 5.24 1.74 8.077 7.403 6.337 12.644-1.632 4.918-3.324 8.998-5.313 13.327-1.355 2.863-2.839 5.67-4.386 8.447-1.708-1.312-18.736-5.524-18.723-5.552z" fill="#AAC85A"/><path fill-rule="evenodd" clip-rule="evenodd" d="M176.379 143.526c8.271 6.829 42.796 5.445 55.607 4.675 3.222-.195 5.651-3.115 5.117-6.3-1.364-8.13-7.014-22.124-10.412-36.659-4.892-20.942-9.559-44.181-12.013-56.749a9.756 9.756 0 0 0-11.171-7.752l-31.431 5.2a9.428 9.428 0 0 0-7.867 10.07c.829 10.136 2.268 27.749 3.668 45.017 1.42 17.524-.323 35.209 8.502 42.498z" fill="#FAB9AF"/><path fill-rule="evenodd" clip-rule="evenodd" d="M171.777 45.991l5.107-.844c2.458 3.825 6.746 6.383 12.586 5.417 5.846-.967 9.082-4.773 10.177-9.185l4.66-.771a8.912 8.912 0 0 1 10.215 7.086c2.407 12.361 7.169 36.153 12.169 57.549 3.451 14.768 9.125 28.339 10.398 36.591.499 3.234-1.925 6.176-5.189 6.372-12.878.772-47.269 2.134-55.52-4.68-8.825-7.288-7.083-24.974-8.504-42.497a93070.264 93070.264 0 0 0-3.691-45.321 9.094 9.094 0 0 1 7.592-9.717z" fill="#82BE50"/><path fill-rule="evenodd" clip-rule="evenodd" d="M188.47 28.83l.588-.169c4.478-1.286 7.066-5.961 5.783-10.441l-3.439-11.99-8.697 2.497 5.765 20.102z" fill="#CD5014"/><path fill-rule="evenodd" clip-rule="evenodd" d="M181.422 46.007l15.158-1.112.533-2.181-8.876-15.95-10.527 4.485 3.712 14.758z" fill="#FAB9AF"/><path fill-rule="evenodd" clip-rule="evenodd" d="M177.71 31.248l10.528-4.484 3.565 6.406c-1.653 3.458-3.663 7.291-7.635 8.43-1.258.362-2.673.258-3.893-.101l-2.565-10.25z" fill="#FA968C"/><path fill-rule="evenodd" clip-rule="evenodd" d="M182.963 37.77c7.365-2.113 11.621-9.8 9.509-17.168l-4.263-14.864-22.869 6.566s3.326 11.602 7.238 18.955c2.934 5.515 6.63 7.59 10.385 6.512z" fill="#FAB9AF"/><path fill-rule="evenodd" clip-rule="evenodd" d="M186.766 12.324l4.299-1.233.559 1.95-4.299 1.232-.559-1.95z" fill="#CD5014"/><path fill-rule="evenodd" clip-rule="evenodd" d="M187.787 18.904c.831 2.9 2.893 4.852 4.605 4.36 1.711-.49 2.508-4.832 1.677-7.732-.831-2.9-2.977-3.26-4.688-2.768-1.713.49-2.424 3.24-1.594 6.14z" fill="#FAB9AF"/><path fill-rule="evenodd" clip-rule="evenodd" d="M165.506 18.872a13.366 13.366 0 0 1-1.962-5.605s-1.995-6.61.245-8.617c2.037-1.83 6.496-1.514 9.228-1.69 2.004-.13 7.718-2.22 7.718-2.22a8.736 8.736 0 0 1 10.81 5.99l.517 1.8-2.795 4.59-.087 3.806-.304.088a2.882 2.882 0 0 1-3.512-1.803c-.84-2.35-3.065-3.879-5.462-3.19l-6.851 1.967c-4.169 1.197-5.695 4.059-4.8 7.18l.971 2.579-3.716-4.875z" fill="#CD5014"/><path fill-rule="evenodd" clip-rule="evenodd" d="M108.474 53.906l-1.39-3.561c2.408-3.63 3.187-8.267 1.77-12.668-2.482-7.713-11.602-12.14-19.186-9.297-7.712 2.889-11.546 11.52-8.56 19.167 1.817 4.65 5.735 7.848 10.24 8.947l1.392 3.563L53.92 75.23a6.579 6.579 0 0 0-3.73 8.522l15.027 38.49-2.065.806c-3.628-2.411-8.262-3.19-12.661-1.771-7.71 2.483-12.134 11.608-9.293 19.197 2.888 7.713 11.514 11.551 19.157 8.564 4.648-1.818 7.844-5.739 8.942-10.248l2.066-.806L86.39 176.47a6.574 6.574 0 0 0 8.517 3.734l92.669-36.221a6.582 6.582 0 0 0 3.733-8.522l-36.203-92.72a6.573 6.573 0 0 0-8.517-3.733l-38.116 14.898z" fill="#FA735F"/><path fill-rule="evenodd" clip-rule="evenodd" d="M218.649 49.792c1.32 24.887-12.61 54.408-41.924 61.599-23.301 5.766-48.371-.678-70.486-10.118a2.867 2.867 0 0 1-1.511-3.763 2.864 2.864 0 0 1 3.23-1.682l.038.008c30.77 6.53 70.085 10.812 84.643-17.25 7.378-13.796 6.046-30.497 6.078-28.137-.168-12.931 19.229-13.563 19.932-.657z" fill="#FAB9AF"/><path fill-rule="evenodd" clip-rule="evenodd" d="M195.713 69.567c2.327-10.546 2.654-19.085 2.66-19.242l-.002.3 1.683-6.71s3.209-5.377 11.985-3.296c7.011 1.66 6.964 9.63 6.964 9.63.019 1.105 2.554 9.074-4.318 26.374 0 0-19.297-5.579-18.972-7.056z" fill="#AAC85A"/><path fill-rule="evenodd" clip-rule="evenodd" d="M109.636 96.257c-1.936-2.26-2.448-10.19-3.538-10.19-.782 0-.922 2.738-.939 4.275a.459.459 0 0 1-.761.34c-2.199-1.937-8.402-7.307-9.042-6.795-.648.519 2.648 4.525 3.77 5.853a.11.11 0 0 1 .002.14.111.111 0 0 1-.136.03c-1.734-.878-7.393-3.652-7.525-2.466-.125 1.13 4.794 4.27 6.715 5.45.05.03.066.089.045.14a.11.11 0 0 1-.134.06c-2.155-.638-7.699-2.178-7.824-1.174-.13 1.022 5.232 3.319 7.159 4.11a.11.11 0 0 1 .066.127.11.11 0 0 1-.115.085c-1.902-.149-6.806-.466-6.05.291.933.936 12.746 4.799 15.392 4.799 2.647 0 2.915-5.075 2.915-5.075z" fill="#FAB9AF"/></svg>