<svg width="562" height="342" viewBox="0 0 562 342" fill="none" xmlns="http://www.w3.org/2000/svg"><path fill-rule="evenodd" clip-rule="evenodd" d="M.8 341.757h560.403V.592H.8v341.165z" fill="#5046AF"/><path fill-rule="evenodd" clip-rule="evenodd" d="M29.226 316.205h503.553V26.14H29.226v290.065z" fill="#fff"/><path clip-rule="evenodd" d="M62.015 284.1h129.032V99.118H62.015V284.1zm158.13 0h129.032V99.118H220.145V284.1zm158.129 0h129.032V99.118H378.274V284.1z" stroke="#827DDC" stroke-width=".988"/><path fill-rule="evenodd" clip-rule="evenodd" d="M29.226 30.864h503.553V26.14H29.226v4.724z" fill="#A5C8CD"/><path fill-rule="evenodd" clip-rule="evenodd" d="M233.203 138.811h101.558v-23.815H233.203v23.815zm0 35.724h101.558V150.72H233.203v23.815zm0 35.723h101.558v-23.815H233.203v23.815zm0 35.724h101.558v-23.815H233.203v23.815zM61.821 79.272h445.906V53.076H61.821v26.196z" fill="#C8E6EB"/></svg>