<svg width="103" height="103" viewBox="0 0 103 103" fill="none" xmlns="http://www.w3.org/2000/svg"><path fill-rule="evenodd" clip-rule="evenodd" d="M79.78 21.887h12.978V8.903H79.781v12.984z" fill="#41A0D7"/><path fill-rule="evenodd" clip-rule="evenodd" d="M102.746 51.225c0 28.144-22.803 50.958-50.93 50.958-28.128 0-50.931-22.814-50.931-50.958S23.688.268 51.817.268c28.126 0 50.929 22.813 50.929 50.957z" fill="#05CDFF"/><path fill-rule="evenodd" clip-rule="evenodd" d="M36.468 51.379a4.144 4.144 0 0 1-4.142 4.143 4.142 4.142 0 0 1-4.14-4.143 4.142 4.142 0 0 1 4.14-4.144 4.144 4.144 0 0 1 4.142 4.144zm18.156 0a4.143 4.143 0 0 1-4.142 4.143 4.142 4.142 0 0 1-4.14-4.143 4.142 4.142 0 0 1 4.14-4.144 4.143 4.143 0 0 1 4.142 4.144zm18.156 0a4.143 4.143 0 0 1-4.142 4.143A4.142 4.142 0 0 1 64.5 51.38a4.142 4.142 0 0 1 4.14-4.144 4.143 4.143 0 0 1 4.141 4.144z" fill="#fff"/></svg>