<svg width="250" height="340" viewBox="0 0 250 340" fill="none" xmlns="http://www.w3.org/2000/svg">
<path fill-rule="evenodd" clip-rule="evenodd" d="M3.43059 339.644H191.393C192.921 339.644 194.16 338.404 194.16 336.876C194.16 335.347 192.921 334.107 191.393 334.107H3.43059C1.90271 334.107 0.663837 335.347 0.663837 336.876C0.663837 338.404 1.90271 339.644 3.43059 339.644Z" fill="#B4D7DC"/>
<path fill-rule="evenodd" clip-rule="evenodd" d="M29.2969 278.894C29.2969 278.894 17.7943 292.139 15.6821 294.249C13.9374 295.99 11.4639 296.624 9.09244 297.291C8.33381 297.504 7.34569 298.284 6.51056 298.941C5.83906 299.466 5.53306 300.289 5.54794 301.142C5.81994 316.052 18.7909 326.505 19.4837 325.633C20.7289 324.057 19.7791 319.69 17.2992 316.809C14.8023 313.911 14.1967 309.825 15.3102 306.164C16.1963 303.251 17.8177 300.616 20.0171 298.514L30.0194 289.146L29.2969 278.894Z" fill="#FA968C"/>
<path fill-rule="evenodd" clip-rule="evenodd" d="M146.876 297.732L156.026 313.03C158.822 317.705 159.851 323.242 158.927 328.612C158.927 328.615 158.927 328.617 158.927 328.617C158.404 331.621 160.658 334.387 163.706 334.464C173.555 334.708 192.618 335.063 193.169 334.166C195.97 329.59 183.912 327.543 174.443 324.335C168.058 322.17 160.199 304.874 155.218 291.264L147.753 295.995C147.177 296.382 146.846 297.039 146.876 297.732Z" fill="#FA968C"/>
<path fill-rule="evenodd" clip-rule="evenodd" d="M174.258 329.602C178.304 329.602 182.433 328.673 186.247 327.918C186.685 327.831 187.142 327.863 187.562 328.012C191.976 329.581 194.654 331.739 193.168 334.165C192.571 335.141 170.148 334.637 161.389 334.403C159.559 334.354 158.216 332.691 158.531 330.884L159.104 327.597C164.056 328.858 169.132 329.602 174.258 329.602Z" fill="#823264"/>
<path fill-rule="evenodd" clip-rule="evenodd" d="M114.137 124.973C104.022 122.947 91.939 131.237 89.3316 144.264C87.8335 151.75 85.6256 179.638 85.9401 202.397C86.0591 211.133 81.8686 219.536 74.4098 224.077C73.1943 224.817 72.0808 225.631 71.1118 226.516C66.1202 231.077 42.9067 260.192 28.3568 279.944C27.9021 283.033 28.359 287.305 30.0845 289.335C48.708 274.733 80.2897 247.24 85.598 242.39C88.5475 239.696 91.8433 236.541 94.5251 233.434C105.966 225.763 124.536 167.19 126.955 155.103C129.562 142.076 124.252 126.999 114.137 124.973Z" fill="#FFAA50"/>
<path fill-rule="evenodd" clip-rule="evenodd" d="M123.561 40.5084C123.561 51.726 116.516 60.8196 107.825 60.8196C99.134 60.8196 92.0896 51.726 92.0896 40.5084C92.0896 29.2908 99.134 20.1973 107.825 20.1973C116.516 20.1973 123.561 29.2908 123.561 40.5084Z" fill="#9B14AA"/>
<path fill-rule="evenodd" clip-rule="evenodd" d="M104.051 42.6043C103.8 31.3612 94.7029 21.9125 83.4829 21.2704C73.5294 20.7028 64.9359 26.8048 61.7187 35.5178C60.5903 38.571 57.6004 40.5589 54.3471 40.51C52.9956 40.4909 51.6058 40.6142 50.1906 40.9055C41.9668 42.5915 35.5833 49.5398 34.7163 57.8934C33.9364 65.4307 37.4597 72.1897 43.1249 76.0465C45.5389 77.6922 46.9138 80.4179 47.3133 83.3137C49.1684 96.7128 61.3957 106.555 75.3442 105.028C87.2761 103.721 96.8237 93.8977 97.8394 81.9339C98.4621 74.5944 95.9439 67.863 91.5154 62.8644C99.0613 59.2946 104.251 51.5554 104.051 42.6043Z" fill="#9B14AA"/>
<path fill-rule="evenodd" clip-rule="evenodd" d="M242.737 45.4431C238.763 44.5926 235.106 46.2872 233.066 49.1957H230.707V27.4431C230.707 23.4544 227.475 20.2226 223.489 20.2226H199.16V17.8052C202.069 15.7641 203.762 12.105 202.912 8.12907C202.179 4.70384 199.43 1.89944 196.017 1.11914C189.922 -0.27136 184.516 4.32326 184.516 10.1829C184.516 13.3382 186.087 16.1213 188.486 17.8052V20.2226H166.745C162.758 20.2226 159.528 23.4544 159.528 27.4431V49.1957H161.146C163.186 46.2872 166.841 44.5926 170.814 45.4431C174.238 46.1745 177.041 48.9257 177.82 52.3403C179.212 58.4381 174.62 63.8492 168.764 63.8492C165.61 63.8492 162.829 62.2758 161.146 59.8754H159.528V84.2177C159.528 88.2064 162.758 91.4403 166.745 91.4403H188.486V89.7649C185.579 87.7238 183.885 84.0647 184.735 80.0888C185.468 76.6635 188.218 73.8591 191.631 73.0788C197.725 71.6883 203.131 76.2829 203.131 82.1426C203.131 85.2978 201.559 88.081 199.16 89.7649V91.4403H223.489C227.475 91.4403 230.707 88.2064 230.707 84.2177V59.8754H233.066C234.749 62.2758 237.531 63.8492 240.684 63.8492C246.541 63.8492 251.133 58.4403 249.743 52.3424C248.963 48.9278 246.16 46.1766 242.737 45.4431Z" fill="#05CDFF"/>
<path fill-rule="evenodd" clip-rule="evenodd" d="M107.825 13.5348C107.825 13.5348 116.68 19.1095 115.603 26.6212C115.603 26.6212 120.331 23.2704 121.402 11.7297C122.141 3.73106 107.825 13.5348 107.825 13.5348Z" fill="#9B14AA"/>
<path fill-rule="evenodd" clip-rule="evenodd" d="M129.012 59.3011C128.836 62.8326 129.027 66.445 129.533 69.9531C130.013 73.4443 130.836 76.912 132.04 79.7866C132.631 81.2239 133.305 82.457 133.932 83.3947C134.571 84.3302 135.056 84.6278 134.967 84.732C134.841 84.8213 134.76 85.1084 135.579 84.8277C135.929 84.7767 136.437 84.3642 136.953 84.0835C137.478 83.6541 138.044 83.2097 138.602 82.6612C140.855 80.3819 143.046 77.2288 144.914 73.8227C146.818 70.4315 148.55 66.8022 150.173 63.0814C153.371 55.6143 156.17 47.8071 158.762 39.9021L158.771 39.8808C159.247 38.4244 160.815 37.6335 162.269 38.1097C163.558 38.5328 164.328 39.8149 164.153 41.114C163.034 49.4953 161.642 57.883 159.508 66.2515C159.024 68.3521 158.356 70.4358 157.778 72.5385C157.075 74.6243 156.433 76.7207 155.592 78.8107C154.002 82.9971 152.069 87.1941 149.045 91.3975C148.267 92.4457 147.355 93.4897 146.395 94.5187C145.279 95.5393 144.249 96.5598 142.716 97.4486L141.635 98.1119C141.248 98.3224 140.787 98.4989 140.358 98.6817C139.463 99.0283 138.643 99.4152 137.585 99.5768C135.604 100.034 133.362 100.034 131.331 99.596C127.176 98.6838 124.152 96.3791 122.019 94.2211C119.9 92.012 118.285 89.72 116.991 87.4301C112.036 78.2536 110.147 68.9517 109.698 59.3011L109.696 59.2692C109.45 53.9326 113.572 49.4039 118.908 49.1572C124.242 48.9106 128.766 53.0353 129.014 58.372C129.027 58.6803 129.027 58.9992 129.012 59.3011Z" fill="#FAB9AF"/>
<path fill-rule="evenodd" clip-rule="evenodd" d="M117.735 98.2187C121.278 87.5369 128.405 64.9189 127.795 57.5262C127.404 52.7913 123.45 49.1641 118.7 49.1641H87.8834C82.7749 49.1641 78.595 53.2165 78.4463 58.3278C78.1849 67.2576 82.2968 87.5815 84.6109 98.2187H117.735Z" fill="#FAB9AF"/>
<path fill-rule="evenodd" clip-rule="evenodd" d="M111.66 146.443C115.205 159.247 144.018 250.263 134.075 253.019C124.134 255.772 70.0232 166.909 69.3326 153.642C68.6781 141.057 75.9668 127.425 85.9097 124.669C95.8504 121.914 108.116 133.639 111.66 146.443Z" fill="#FAB9AF"/>
<path fill-rule="evenodd" clip-rule="evenodd" d="M156.214 294.887C156.582 294.456 156.667 293.848 156.473 293.314C148.77 271.978 138.43 244.95 136.224 239.845C135.973 239.261 135.706 238.691 135.425 238.136C131.664 211.153 114.356 156.181 111.661 146.443C108.117 133.64 95.8513 121.914 85.9084 124.67C75.9677 127.423 68.6768 141.058 69.3334 153.643C69.7648 161.947 91.1232 199.865 109.481 226.397C113.346 231.983 115.773 238.395 116.955 245.086C117.771 249.713 119.075 254.327 120.533 257.701C122.705 262.727 135.438 281.905 146.813 298.17C147.14 298.64 147.695 298.916 148.267 298.859C151.284 298.551 154.136 297.328 156.214 294.887Z" fill="#FAC855"/>
<path fill-rule="evenodd" clip-rule="evenodd" d="M81.0857 111.76C82.6795 107.282 83.1597 102.49 82.4904 97.7823C80.9349 86.856 78.217 66.2706 78.4677 57.5321C78.6016 52.861 82.4266 49.1636 87.0974 49.1636H91.6682C93.4086 53.2033 97.0955 56.3223 102.829 56.3223C108.553 56.3223 112.242 53.2033 113.985 49.1636H118.275C113.613 59.1522 115.29 72.3301 123.312 80.0183C121.82 85.2912 120.566 90.5959 119.629 94.8971C118.358 100.721 118.919 106.791 121.212 112.293C125.15 121.75 128.271 136.916 127.343 142.927C94.9259 152.12 72.5092 135.851 72.5092 135.851L81.0857 111.76Z" fill="#39AE96"/>
<path fill-rule="evenodd" clip-rule="evenodd" d="M119.629 94.8966C119.945 93.4465 120.311 91.854 120.695 90.2126C116.031 89.0475 111.443 87.5167 106.968 85.5542C97.5413 81.421 85.5032 74.7066 78.7372 65.4451C78.9242 68.1049 79.1877 71.0305 79.5043 74.0687C82.8321 81.8335 86.3999 89.3303 92.9471 95.1666C100.784 102.155 110.33 106.778 120.319 109.807C118.806 104.992 118.547 99.8569 119.629 94.8966Z" fill="#1C9585"/>
<path fill-rule="evenodd" clip-rule="evenodd" d="M107.825 51.2866L93.8449 49.8174L98.2691 34.5112L107.311 35.6317L107.825 51.2866Z" fill="#FAB9AF"/>
<path fill-rule="evenodd" clip-rule="evenodd" d="M107.311 35.6312L98.2691 34.5107L96.8879 39.2903C98.913 41.5738 101.514 46.5065 104.804 46.5065C105.847 46.5065 106.799 46.211 107.653 45.6688L107.311 35.6312Z" fill="#FA968C"/>
<path fill-rule="evenodd" clip-rule="evenodd" d="M107.623 43.0301C104.552 43.0301 101.231 41.4929 96.6579 37.4936C94.0314 35.1994 92.0871 31.1959 92.0871 28.4914V13.5339H115.101C115.101 13.5339 116.828 21.4772 115.152 29.3568C113.894 35.2696 110.037 43.0301 107.623 43.0301Z" fill="#FAB9AF"/>
<path fill-rule="evenodd" clip-rule="evenodd" d="M95.9888 25.6629C95.9888 28.5821 94.5927 30.9464 92.8714 30.9464C91.148 30.9464 89.2483 27.1214 89.2483 24.2043C89.2483 21.2851 91.148 20.3794 92.8714 20.3794C94.5927 20.3794 95.9888 22.7437 95.9888 25.6629Z" fill="#FAB9AF"/>
<path fill-rule="evenodd" clip-rule="evenodd" d="M89.2489 15.3465C89.2489 10.6754 93.0335 6.89083 97.7022 6.89295L105.469 6.89508C107.692 6.89508 109.847 6.31464 111.736 5.24093C114.477 3.68459 117.941 4.20337 119.811 6.74199C121.832 9.48473 122.707 13.1587 117.582 16.5606C115.034 18.2509 111.309 16.3777 108.827 17.1899C108.674 17.1835 108.538 17.158 108.378 17.158H101.531C99.1514 17.158 97.3324 19.1035 97.2623 21.4847C97.2198 22.9879 95.9873 24.1956 94.4722 24.1956H94.1683L93.0718 20.6811L89.2489 25.837V15.3465Z" fill="#9B14AA"/>
<path fill-rule="evenodd" clip-rule="evenodd" d="M164.871 31.8636C164.871 31.8636 166.48 39.8133 164.216 41.1081C161.953 42.405 160.198 42.86 158.19 39.6347C156.182 36.4114 154.964 31.0301 154.877 27.658C154.792 24.286 157.034 18.573 157.678 18.1201C160.022 16.4702 159.535 22.5957 159.444 25.5723C159.352 28.551 159.546 31.9231 160.991 31.5617C162.436 31.2002 162.181 25.483 163.698 24.522C165.217 23.5609 164.871 31.8636 164.871 31.8636Z" fill="#FAB9AF"/>
<path fill-rule="evenodd" clip-rule="evenodd" d="M199.208 85.9332C199.208 85.9332 191.207 84.6256 189.998 86.9367C188.791 89.2479 188.402 91.0211 191.698 92.907C194.994 94.7929 200.415 95.807 203.787 95.7645C207.158 95.7241 212.778 93.2663 213.208 92.6051C214.765 90.2004 208.666 90.9169 205.696 91.121C202.725 91.3251 199.35 91.2592 199.656 89.8007C199.962 88.3442 205.681 88.3825 206.584 86.8283C207.487 85.272 199.208 85.9332 199.208 85.9332Z" fill="#FAB9AF"/>
<path fill-rule="evenodd" clip-rule="evenodd" d="M113.386 13.2726C112.614 16.6893 113.753 18.5582 102.559 23.8906C91.3644 29.2251 87.822 26.9459 84.3264 32.6887C84.3264 32.6887 85.8542 23.1762 92.0359 19.9126C98.2196 16.6468 108.942 14.5143 112.381 6.95581C112.381 6.95581 113.913 10.9381 113.386 13.2726Z" fill="#9B14AA"/>
<path fill-rule="evenodd" clip-rule="evenodd" d="M94.0236 57.834C94.0193 57.7532 94.0087 57.6745 93.9875 57.598L94.0427 57.7617L94.1426 58.138C94.2807 58.4761 94.421 58.8227 94.54 59.1713C94.8587 59.89 95.2008 60.6703 95.6216 61.4229C96.1316 62.165 96.5077 62.9602 97.0815 63.6937C97.6722 64.4229 98.2736 65.1437 98.824 65.9155C100.25 67.2677 101.44 68.822 103.174 70.0147L105.603 71.9453L108.355 73.6143C115.743 78.1345 124.719 81.0686 133.999 83.3393C136.349 83.8241 138.746 84.2004 141.128 84.6427C143.519 85.0509 145.897 85.5803 148.358 85.7355L155.704 86.4605L159.393 86.8773L163.116 87.041L170.592 87.3727C173.091 87.5023 175.592 87.6044 178.106 87.5491C183.131 87.5512 188.17 87.4811 193.25 87.5597L193.406 87.5619C194.936 87.5853 196.157 88.8439 196.132 90.3748C196.113 91.6951 195.171 92.7837 193.933 93.0452C188.903 94.1019 183.832 95.0119 178.749 95.9942C176.214 96.5513 173.639 96.783 171.061 97.0807L163.309 97.9609L159.42 98.3989L155.493 98.5668L147.614 98.7986C144.985 98.9602 142.329 98.7369 139.669 98.6243C137.01 98.4797 134.341 98.3968 131.666 98.1905C120.973 96.985 110.04 94.6866 99.5783 89.4074L95.696 87.328C94.4422 86.5158 93.2097 85.6313 91.9708 84.7702C89.4357 83.1671 87.2045 80.9049 84.901 78.8234C83.8342 77.6349 82.8163 76.3974 81.79 75.1685C80.7848 73.9162 79.9306 72.4683 79.0211 71.1076C78.1647 69.6724 77.404 68.1458 76.6857 66.5555L75.7401 64.0232L75.3321 62.5626L75.1366 61.8078L74.9135 60.6384C74.14 55.357 77.7907 50.4499 83.0671 49.6759C88.3435 48.902 93.2501 52.5548 94.0236 57.834Z" fill="#FAB9AF"/>
<path fill-rule="evenodd" clip-rule="evenodd" d="M111.233 13.9092C111.233 13.9092 111.658 25.4181 121.709 30.9461C121.709 30.9461 117.281 22.248 117.583 16.5605C117.884 10.8709 110.57 9.97793 111.233 13.9092Z" fill="#9B14AA"/>
<path fill-rule="evenodd" clip-rule="evenodd" d="M0.743312 303.703C0.365062 302.761 0.722062 301.689 1.59331 301.17C2.30519 300.747 4.21344 299.569 5.64994 298.685C6.27256 298.302 7.05456 298.711 7.13744 299.438C8.06819 307.674 11.7997 315.139 18.8016 318.698C20.6291 321.137 20.8883 325.307 19.9023 326.552C19.6707 326.846 16.3918 325.762 13.6421 322.608C1.42756 308.61 0.743312 303.703 0.743312 303.703Z" fill="#823264"/>
</svg>
