<svg width="103" height="103" viewBox="0 0 103 103" fill="none" xmlns="http://www.w3.org/2000/svg">
<path fill-rule="evenodd" clip-rule="evenodd" d="M79.7808 21.887H92.7581V8.90259H79.7808V21.887Z" fill="#41A0D7"/>
<path fill-rule="evenodd" clip-rule="evenodd" d="M102.746 51.2254C102.746 79.3692 79.9431 102.183 51.8166 102.183C23.688 102.183 0.884613 79.3692 0.884613 51.2254C0.884613 23.0815 23.688 0.267822 51.8166 0.267822C79.9431 0.267822 102.746 23.0815 102.746 51.2254Z" fill="#05CDFF"/>
<path fill-rule="evenodd" clip-rule="evenodd" d="M36.4677 51.3785C36.4677 53.6662 34.6126 55.5224 32.3261 55.5224C30.0396 55.5224 28.1866 53.6662 28.1866 51.3785C28.1866 49.0908 30.0396 47.2346 32.3261 47.2346C34.6126 47.2346 36.4677 49.0908 36.4677 51.3785Z" fill="white"/>
<path fill-rule="evenodd" clip-rule="evenodd" d="M54.6239 51.3785C54.6239 53.6662 52.7709 55.5224 50.4823 55.5224C48.1958 55.5224 46.3428 53.6662 46.3428 51.3785C46.3428 49.0908 48.1958 47.2346 50.4823 47.2346C52.7709 47.2346 54.6239 49.0908 54.6239 51.3785Z" fill="white"/>
<path fill-rule="evenodd" clip-rule="evenodd" d="M72.7801 51.3785C72.7801 53.6662 70.9271 55.5224 68.6385 55.5224C66.352 55.5224 64.499 53.6662 64.499 51.3785C64.499 49.0908 66.352 47.2346 68.6385 47.2346C70.9271 47.2346 72.7801 49.0908 72.7801 51.3785Z" fill="white"/>
</svg>
