<svg width="325" height="327" viewBox="0 0 325 327" fill="none" xmlns="http://www.w3.org/2000/svg">
<path fill-rule="evenodd" clip-rule="evenodd" d="M2.94686 327H120.245C121.773 327 123.011 325.76 123.011 324.232C123.011 322.703 121.773 321.463 120.245 321.463H2.94686C1.41899 321.463 0.180115 322.703 0.180115 324.232C0.180115 325.76 1.41899 327 2.94686 327Z" fill="#B4D7DC"/>
<path fill-rule="evenodd" clip-rule="evenodd" d="M194.42 327H321.928C323.611 327 324.978 325.633 324.978 323.947C324.978 322.263 323.611 320.896 321.928 320.896H194.42C192.735 320.896 191.37 322.263 191.37 323.947C191.37 325.633 192.735 327 194.42 327Z" fill="#B4D7DC"/>
<path fill-rule="evenodd" clip-rule="evenodd" d="M313.05 245.714C312.566 245.616 312.096 245.519 311.669 245.427C310.522 245.185 309.051 245.21 307.757 245.319C305.583 245.502 303.407 245.106 301.452 244.141L293.35 240.146C289.926 238.46 286.261 241.955 287.78 245.457C287.91 245.757 288.15 245.997 288.447 246.129L298.033 250.379C300.813 251.612 303.258 253.487 305.171 255.85L307.889 259.207C313.667 255.594 312.863 249.063 313.05 245.714Z" fill="#FAB9AF"/>
<path fill-rule="evenodd" clip-rule="evenodd" d="M309.537 273.634C309.928 269.028 307.844 261.402 306.858 258.851C309.329 254.305 309.414 249.423 307.912 245.031C309.18 244.928 310.594 244.905 311.711 245.143C313.246 245.468 316.796 246.017 318.254 246.3C319.283 246.5 320.005 247.418 319.965 248.466C319.965 248.466 315.379 281.683 314.361 281.052C312.597 279.957 309.204 277.561 309.537 273.634Z" fill="#46738C"/>
<path fill-rule="evenodd" clip-rule="evenodd" d="M136.313 212.849C133.739 223.037 115.63 303.191 119.209 303.265C122.311 303.329 155.272 228.48 157.845 218.292C160.419 208.105 157.684 198.627 151.738 197.124C145.792 195.62 138.886 202.66 136.313 212.849Z" fill="#41B5E6"/>
<path fill-rule="evenodd" clip-rule="evenodd" d="M175.974 131.458C167.268 142.076 128.364 211.69 136.609 218.458C144.854 225.227 198.786 167.589 207.492 156.971C216.2 146.353 214.913 131.253 206.668 124.486C198.423 117.718 184.68 120.84 175.974 131.458Z" fill="#41B5E6"/>
<path fill-rule="evenodd" clip-rule="evenodd" d="M123.754 314.401C123.781 313.908 123.807 313.427 123.834 312.991C123.907 311.82 123.664 310.37 123.367 309.105C122.87 306.981 122.942 304.768 123.609 302.69L126.369 294.086C127.536 290.452 123.541 287.335 120.303 289.353C120.026 289.525 119.822 289.797 119.735 290.112L116.939 300.222C116.129 303.154 114.633 305.85 112.578 308.089L109.658 311.271C114.076 316.459 120.415 314.707 123.754 314.401Z" fill="#FAB9AF"/>
<path fill-rule="evenodd" clip-rule="evenodd" d="M95.6357 315.018C100.245 314.729 107.48 311.548 109.858 310.198C114.716 311.978 119.553 311.344 123.675 309.216C123.962 310.457 124.194 311.85 124.123 312.992C124.026 314.559 124.004 318.152 123.939 319.636C123.892 320.684 123.089 321.533 122.047 321.65C122.047 321.65 88.534 321.979 89.0078 320.88C89.8345 318.973 91.7045 315.265 95.6357 315.018Z" fill="#46738C"/>
<path fill-rule="evenodd" clip-rule="evenodd" d="M157.845 218.292C156.256 224.59 136.576 273.411 125.993 296.156C122.806 294.94 121.025 295.04 117.774 294.018C121.918 272.656 129.334 224.962 131.776 214.672C132.84 200.333 167.903 141.3 175.973 131.458C184.68 120.84 198.422 117.717 206.667 124.487C214.912 131.254 216.2 146.354 207.491 156.972C201.86 163.842 158.92 214.036 157.845 218.292Z" fill="#695A6E"/>
<path fill-rule="evenodd" clip-rule="evenodd" d="M206.668 124.486C198.423 117.718 184.68 120.839 175.974 131.457C175.271 132.314 174.344 133.583 173.269 135.129C181.134 150.786 183.796 168.108 183.382 185.7C194.179 172.739 204.872 160.167 207.492 156.971C216.198 146.353 214.913 131.253 206.668 124.486Z" fill="#614C69"/>
<path fill-rule="evenodd" clip-rule="evenodd" d="M200.056 218.706L200.046 218.698C200.037 218.683 200.031 218.664 200.024 218.651C199.672 217.977 199.41 217.301 199.219 216.623C193.411 199.405 195.073 136.883 196.956 124.197C197.457 120.825 198.46 117.703 199.812 114.888L218.327 124.971C222.976 130.237 228.47 134.896 234.726 138.674C235.667 139.241 234.407 136.779 235.369 137.283C232.7 153.733 229.222 186.361 227.913 202.679C227.615 206.387 229.717 209.859 233.145 211.299C250.4 218.553 281.176 232.648 298.327 241.907L297.742 251.624C272.708 246.374 222.696 231.497 215.103 229.28C207.936 227.188 202.368 223.069 200.056 218.706Z" fill="#828291"/>
<path fill-rule="evenodd" clip-rule="evenodd" d="M184.781 60.8294C184.733 61.8861 184.665 62.3836 184.588 63.0938C184.509 63.7401 184.422 64.3822 184.32 64.9988C184.123 66.249 183.887 67.4609 183.615 68.6622C183.056 71.0584 182.421 73.4184 181.568 75.7146C179.909 80.3114 177.648 84.721 174.853 88.799C169.237 96.9507 161.056 103.374 152.184 106.827C147.768 108.634 143.206 109.72 138.701 110.367C134.189 111.109 129.708 111.136 125.305 111.039C116.497 110.709 108.035 109.006 99.877 106.731C98.3513 106.306 97.4609 104.724 97.8838 103.197C98.2599 101.851 99.5328 100.999 100.874 101.107L100.912 101.112C109.04 101.762 117.147 101.826 124.899 100.85C132.602 99.7423 140.05 97.8181 146.123 94.1207C152.231 90.5297 156.999 85.5757 160.04 79.5779C161.596 76.6097 162.805 73.4248 163.576 70.1037C163.993 68.4559 164.301 66.772 164.526 65.1051C164.639 64.2717 164.721 63.4361 164.772 62.6303C164.802 62.2199 164.817 61.8308 164.828 61.446C164.834 61.1228 164.838 60.587 164.817 60.6083C164.877 55.0931 169.394 50.6707 174.909 50.7323C180.421 50.7919 184.843 55.3121 184.781 60.8294Z" fill="#FA968C"/>
<path fill-rule="evenodd" clip-rule="evenodd" d="M154.32 75.2603C156.031 71.582 162.665 57.2369 163.489 53.7436L163.53 53.5693C163.596 53.2907 163.676 53.0101 163.768 52.7337C165.508 47.4906 171.165 44.6522 176.405 46.3935C181.645 48.1348 184.482 53.7968 182.742 59.0377C181.11 63.9555 179.418 68.0356 177.429 72.3645C176.074 75.2284 174.59 78.0349 173.043 80.8117C171.335 79.4998 154.307 75.2879 154.32 75.2603Z" fill="#AAC85A"/>
<path fill-rule="evenodd" clip-rule="evenodd" d="M176.379 143.526C184.65 150.355 219.175 148.971 231.986 148.201C235.208 148.006 237.637 145.086 237.103 141.901C235.739 133.771 230.089 119.777 226.691 105.242C221.799 84.2997 217.132 61.0609 214.678 48.4932C213.664 43.3096 208.713 39.878 203.507 40.7412L172.076 45.9418C167.231 46.7434 163.81 51.1147 164.209 56.0113C165.038 66.1466 166.477 83.7597 167.877 101.028C169.297 118.552 167.554 136.237 176.379 143.526Z" fill="#FAB9AF"/>
<path fill-rule="evenodd" clip-rule="evenodd" d="M171.777 45.991L176.884 45.1469C179.342 48.9719 183.63 51.5296 189.47 50.5644C195.316 49.597 198.552 45.7911 199.647 41.3794L204.307 40.6076C209.073 39.8188 213.597 42.9506 214.522 47.694C216.929 60.0555 221.691 83.8472 226.691 105.243C230.142 120.011 235.816 133.582 237.089 141.834C237.588 145.068 235.164 148.01 231.9 148.206C219.022 148.978 184.631 150.34 176.38 143.526C167.555 136.238 169.297 118.552 167.876 101.029C166.46 83.5856 165.009 65.7919 164.185 55.7075C163.798 50.9811 167.1 46.7649 171.777 45.991Z" fill="#82BE50"/>
<path fill-rule="evenodd" clip-rule="evenodd" d="M188.47 28.8294L189.058 28.6614C193.536 27.3751 196.124 22.6997 194.841 18.2199L191.402 6.23047L182.705 8.72657L188.47 28.8294Z" fill="#CD5014"/>
<path fill-rule="evenodd" clip-rule="evenodd" d="M181.422 46.007L196.58 44.895L197.113 42.7136L188.237 26.7632L177.71 31.2494L181.422 46.007Z" fill="#FAB9AF"/>
<path fill-rule="evenodd" clip-rule="evenodd" d="M177.71 31.2485L188.238 26.7644L191.803 33.1705C190.15 36.6276 188.14 40.4611 184.168 41.6007C182.91 41.9622 181.495 41.858 180.275 41.4987L177.71 31.2485Z" fill="#FA968C"/>
<path fill-rule="evenodd" clip-rule="evenodd" d="M182.963 37.7709C190.328 35.6575 194.584 27.9693 192.472 20.6022L188.209 5.73828L165.34 12.3038C165.34 12.3038 168.666 23.9063 172.578 31.2585C175.512 36.7738 179.208 38.8489 182.963 37.7709Z" fill="#FAB9AF"/>
<path fill-rule="evenodd" clip-rule="evenodd" d="M186.766 12.3237L191.065 11.0906L191.624 13.0403L187.325 14.2734L186.766 12.3237Z" fill="#CD5014"/>
<path fill-rule="evenodd" clip-rule="evenodd" d="M187.787 18.9041C188.618 21.8041 190.68 23.756 192.392 23.2648C194.103 22.7737 194.9 18.4321 194.069 15.532C193.238 12.6319 191.092 12.2726 189.381 12.7637C187.668 13.2549 186.957 16.004 187.787 18.9041Z" fill="#FAB9AF"/>
<path fill-rule="evenodd" clip-rule="evenodd" d="M165.506 18.8717C164.441 17.1751 163.769 15.2594 163.544 13.2672C163.544 13.2672 161.549 6.65697 163.789 4.64989C165.826 2.81927 170.285 3.13606 173.017 2.95959C175.021 2.8299 180.735 0.739888 180.735 0.739888C185.374 -0.59321 190.215 2.09 191.545 6.72926L192.062 8.53012L189.267 13.1205L189.18 16.9263L188.876 17.0135C187.404 17.4366 185.869 16.635 185.364 15.2105C184.524 12.8611 182.299 11.3324 179.902 12.0213L173.051 13.988C168.882 15.185 167.356 18.0468 168.251 21.168L169.222 23.747L165.506 18.8717Z" fill="#CD5014"/>
<path fill-rule="evenodd" clip-rule="evenodd" d="M108.474 53.9062L107.084 50.3449C109.492 46.7155 110.271 42.0784 108.854 37.6773C106.372 29.9636 97.2516 25.5369 89.6675 28.3796C81.9558 31.269 78.1223 39.8991 81.108 47.5469C82.9248 52.1968 86.8433 55.3945 91.3483 56.4937L92.7402 60.0572L53.9207 75.2294C50.5377 76.5519 48.8675 80.3662 50.1892 83.751L65.2172 122.241L63.1517 123.047C59.5243 120.636 54.8897 119.857 50.491 121.276C42.7815 123.759 38.3572 132.884 41.1983 140.473C44.0862 148.186 52.7116 152.024 60.3552 149.037C65.0026 147.219 68.1986 143.298 69.2972 138.789L71.3627 137.983L86.3907 176.47C87.7125 179.855 91.5247 181.526 94.9077 180.204L187.577 143.983C190.96 142.66 192.63 138.846 191.31 135.461L155.107 42.7418C153.785 39.3569 149.973 37.6858 146.59 39.0082L108.474 53.9062Z" fill="#FA735F"/>
<path fill-rule="evenodd" clip-rule="evenodd" d="M218.649 49.7922C219.969 74.6788 206.039 104.2 176.725 111.391C153.424 117.157 128.354 110.713 106.239 101.273C104.783 100.652 104.105 98.9659 104.728 97.5095C105.274 96.2253 106.645 95.547 107.958 95.8277L107.996 95.8362C138.766 102.366 178.081 106.648 192.639 78.5867C200.017 64.7901 198.685 48.0891 198.717 50.4492C198.549 37.5179 217.946 36.8864 218.649 49.7922Z" fill="#FAB9AF"/>
<path fill-rule="evenodd" clip-rule="evenodd" d="M195.713 69.5667C198.04 59.021 198.367 50.4823 198.373 50.325L198.371 50.6248L200.054 43.9146C200.054 43.9146 203.263 38.5376 212.039 40.6191C219.05 42.2796 219.003 50.2484 219.003 50.2484C219.022 51.354 221.557 59.3229 214.685 76.6234C214.685 76.6234 195.388 71.0444 195.713 69.5667Z" fill="#AAC85A"/>
<path fill-rule="evenodd" clip-rule="evenodd" d="M109.636 96.257C107.7 93.9969 107.188 86.0664 106.098 86.0664C105.316 86.0664 105.176 88.8049 105.159 90.3421C105.157 90.5228 105.05 90.6844 104.887 90.7567C104.723 90.8311 104.532 90.8013 104.398 90.6823C102.199 88.7453 95.9957 83.3747 95.3561 83.8871C94.708 84.4058 98.0039 88.4115 99.1259 89.7404C99.1599 89.7808 99.162 89.8382 99.128 89.8807C99.0961 89.9211 99.0387 89.9338 98.992 89.9105C97.258 89.0324 91.5991 86.2577 91.4674 87.4441C91.342 88.5731 96.2614 91.7134 98.1824 92.8935C98.2312 92.9232 98.2482 92.9828 98.227 93.0338C98.2036 93.0848 98.1462 93.1103 98.0931 93.0933C95.9384 92.4555 90.3942 90.9161 90.2689 91.9197C90.1392 92.9424 95.5006 95.2386 97.428 96.0295C97.479 96.0508 97.5066 96.1039 97.4939 96.1571C97.4811 96.2103 97.4322 96.2464 97.3791 96.2421C95.4772 96.0933 90.5727 95.7765 91.3292 96.5334C92.2621 97.4689 104.075 101.332 106.721 101.332C109.368 101.332 109.636 96.257 109.636 96.257Z" fill="#FAB9AF"/>
</svg>
