<svg width="562" height="342" viewBox="0 0 562 342" fill="none" xmlns="http://www.w3.org/2000/svg">
<path fill-rule="evenodd" clip-rule="evenodd" d="M0.799873 341.757H561.203V0.592041H0.799873V341.757Z" fill="#5046AF"/>
<path fill-rule="evenodd" clip-rule="evenodd" d="M29.226 316.205H532.779V26.1399H29.226V316.205Z" fill="white"/>
<path fill-rule="evenodd" clip-rule="evenodd" d="M62.0148 284.1H191.047V99.1179H62.0148V284.1Z" stroke="#827DDC" stroke-width="0.988"/>
<path fill-rule="evenodd" clip-rule="evenodd" d="M220.145 284.1H349.177V99.1179H220.145V284.1Z" stroke="#827DDC" stroke-width="0.988"/>
<path fill-rule="evenodd" clip-rule="evenodd" d="M378.274 284.1H507.306V99.1179H378.274V284.1Z" stroke="#827DDC" stroke-width="0.988"/>
<path fill-rule="evenodd" clip-rule="evenodd" d="M29.226 30.8642H532.779V26.1399H29.226V30.8642Z" fill="#A5C8CD"/>
<path fill-rule="evenodd" clip-rule="evenodd" d="M233.203 138.811H334.761V114.996H233.203V138.811Z" fill="#C8E6EB"/>
<path fill-rule="evenodd" clip-rule="evenodd" d="M233.203 174.535H334.761V150.72H233.203V174.535Z" fill="#C8E6EB"/>
<path fill-rule="evenodd" clip-rule="evenodd" d="M233.203 210.258H334.761V186.443H233.203V210.258Z" fill="#C8E6EB"/>
<path fill-rule="evenodd" clip-rule="evenodd" d="M233.203 245.982H334.761V222.167H233.203V245.982Z" fill="#C8E6EB"/>
<path fill-rule="evenodd" clip-rule="evenodd" d="M61.8214 79.2725H507.727V53.0762H61.8214V79.2725Z" fill="#C8E6EB"/>
</svg>
