<svg width="297" height="662" viewBox="0 0 297 662" fill="none" xmlns="http://www.w3.org/2000/svg">
<path fill-rule="evenodd" clip-rule="evenodd" d="M127.976 22.1547C128.152 19.1823 133.293 13.1249 132.511 12.368C131.946 11.8237 129.946 13.6947 128.864 14.7897C128.739 14.9172 128.55 14.9598 128.38 14.8981C128.212 14.8364 128.095 14.6834 128.08 14.5026C127.846 11.5813 127.115 3.40836 126.299 3.33182C125.475 3.25315 125.061 8.42395 124.946 10.161C124.942 10.2142 124.901 10.2567 124.85 10.2631C124.797 10.2695 124.748 10.2397 124.731 10.1887C124.094 8.35167 121.952 2.42182 121.032 3.18511C120.158 3.908 121.514 9.58696 122.077 11.7726C122.09 11.8258 122.062 11.8832 122.011 11.9023C121.96 11.9236 121.901 11.9023 121.873 11.8556C120.766 9.89738 117.848 4.93494 117.062 5.56853C116.259 6.21488 118.52 11.5941 119.357 13.5033C119.378 13.5522 119.361 13.6118 119.315 13.6415C119.268 13.6692 119.208 13.6607 119.172 13.6203C117.908 12.1936 114.601 8.55578 114.62 9.62311C114.642 10.9456 120.451 21.9378 122.355 23.7769C124.257 25.6182 127.976 22.1547 127.976 22.1547Z" fill="#FA968C"/>
<path fill-rule="evenodd" clip-rule="evenodd" d="M180.136 58.9458C176.199 67.6758 170.531 77.5922 163.678 84.398C150.346 97.6014 133.235 94.1507 127.264 63.2747C126.225 58.6226 125.498 53.9897 124.888 49.3654C123.647 40.1293 123.167 30.921 122.742 21.7402C122.678 20.3497 123.752 19.1718 125.141 19.1059C126.399 19.0485 127.483 19.9245 127.725 21.1215L127.736 21.1726C129.542 30.0854 131.359 38.9812 133.688 47.6347C134.887 51.9444 136.128 56.2201 137.575 60.3427C138.828 64.2442 143.869 76.3718 147.787 77.5582C147.917 77.5369 148.045 77.707 148.119 77.6326C148.191 77.5667 148.227 77.5603 148.272 77.6007C148.346 77.5029 148.395 77.4604 148.459 77.4731C148.674 77.2988 148.926 77.269 149.392 76.8927C150.246 76.3314 151.415 75.2258 152.524 73.848C154.798 71.1499 156.916 67.5865 158.78 63.887C162.012 57.6127 163.884 53.0989 163.884 53.0989C167.864 42.1832 184.367 47.4114 180.383 58.342C180.311 58.5397 180.221 58.7545 180.136 58.9458Z" fill="#FA968C"/>
<path fill-rule="evenodd" clip-rule="evenodd" d="M153.687 70.6944C153.702 70.6732 153.717 70.6519 153.732 70.6307C155.744 67.6838 157.612 64.603 159.333 61.4457C161.039 58.3628 162.778 54.9375 163.995 52.0247L164.055 51.878C164.153 51.6462 164.261 51.4166 164.382 51.1891C166.645 46.8879 171.962 45.2359 176.261 47.5002C180.56 49.7646 182.211 55.0864 179.948 59.3854C177.825 63.4209 175.77 66.7185 173.424 70.1905C171.834 72.4825 170.145 74.7065 168.405 76.8943C167.108 75.5102 156.783 71.8043 153.687 70.6944Z" fill="#A5A0AA"/>
<path fill-rule="evenodd" clip-rule="evenodd" d="M162.301 131.814C169.953 140.599 214.123 144.267 214.123 144.267C217.383 140.48 212.619 123.275 211.469 105.809C210.226 86.9243 209.51 66.0816 209.183 54.8194C209.047 50.1716 205.245 46.4849 200.598 46.4849H172.569C168.247 46.4849 164.651 49.7847 164.294 54.0922C163.559 63.0093 162.28 78.5069 161.017 93.7004C159.736 109.117 155.686 124.219 162.301 131.814Z" fill="#FAB9AF"/>
<path fill-rule="evenodd" clip-rule="evenodd" d="M187.782 278.63L187.718 296.011L189.227 304.477C189.488 305.942 188.405 307.299 186.917 307.345C179.805 307.562 161.593 308.043 161.107 307.254C158.816 303.548 169.167 302.122 176.738 299.19C184.312 296.255 179.086 267.491 179.086 267.491L187.782 278.63Z" fill="#FA968C"/>
<path fill-rule="evenodd" clip-rule="evenodd" d="M176.738 299.188C176.779 299.174 176.815 299.146 176.853 299.129C178.657 299.803 180.689 300.198 182.977 300.198C184.941 300.198 186.72 299.916 188.324 299.412L189.227 304.476C189.488 305.943 188.405 307.298 186.917 307.344C179.805 307.563 161.594 308.044 161.107 307.253C158.816 303.547 169.167 302.12 176.738 299.188Z" fill="#F57A2F"/>
<path fill-rule="evenodd" clip-rule="evenodd" d="M162.312 138.149C162.038 150.23 166.787 226.88 176.169 227.092C185.549 227.305 196.01 151.001 196.284 138.921C196.559 126.838 189.174 116.872 179.794 116.66C170.413 116.445 162.586 126.068 162.312 138.149Z" fill="#0091C8"/>
<path fill-rule="evenodd" clip-rule="evenodd" d="M189.126 211.17C190.056 217.821 190.207 260.431 188.711 282.075H180.171C175.585 261.079 170.685 220.385 169.773 213.883C169.763 213.798 169.756 213.717 169.746 213.634C164.643 191.046 162.11 147.058 162.312 138.149C162.586 126.066 170.413 116.446 179.795 116.658C189.174 116.873 196.557 126.838 196.283 138.919C196.113 146.505 188.686 208.021 189.126 211.17Z" fill="#FF965A"/>
<path fill-rule="evenodd" clip-rule="evenodd" d="M187.726 244.968C187.932 240.348 187.414 235.845 186.283 231.535C182.934 218.749 182.838 205.42 184.188 192.272C184.3 191.168 184.381 190.058 184.432 188.94C185.204 171.727 175.96 156.084 162.475 146.219C162.33 142.59 162.275 139.779 162.311 138.148C162.585 126.067 170.414 116.447 179.793 116.659C189.175 116.872 196.557 126.839 196.283 138.92C196.111 146.504 188.684 208.02 189.126 211.171C190.057 217.819 190.206 260.43 188.712 282.076H180.172C179.634 279.612 179.092 276.856 178.552 273.937C183.965 265.524 187.252 255.554 187.726 244.968Z" fill="#F07D4B"/>
<path fill-rule="evenodd" clip-rule="evenodd" d="M208.278 278.63L208.214 296.011L209.723 304.477C209.984 305.942 208.901 307.299 207.413 307.345C200.301 307.562 182.089 308.043 181.603 307.254C179.312 303.548 189.663 302.122 197.234 299.19C204.808 296.255 199.582 267.491 199.582 267.491L208.278 278.63Z" fill="#FA968C"/>
<path fill-rule="evenodd" clip-rule="evenodd" d="M197.235 299.188C197.275 299.174 197.311 299.146 197.349 299.129C199.153 299.803 201.185 300.198 203.474 300.198C205.435 300.198 207.216 299.916 208.82 299.412L209.723 304.476C209.985 305.943 208.901 307.298 207.413 307.344C200.301 307.563 182.09 308.044 181.603 307.253C179.312 303.547 189.663 302.12 197.235 299.188Z" fill="#FF8C46"/>
<path fill-rule="evenodd" clip-rule="evenodd" d="M182.808 138.149C182.534 150.23 187.283 226.88 196.665 227.092C206.045 227.305 214.477 150.721 214.751 138.638C215.025 126.557 209.67 116.872 200.29 116.66C190.909 116.445 183.082 126.068 182.808 138.149Z" fill="#0091C8"/>
<path fill-rule="evenodd" clip-rule="evenodd" d="M209.622 211.17C210.552 217.821 210.703 260.431 209.207 282.075H200.667C196.081 261.079 191.179 220.385 190.269 213.883C190.259 213.798 190.252 213.717 190.242 213.634C185.139 191.046 180.577 146.775 180.779 137.867C181.053 125.786 190.909 116.446 200.291 116.658C209.67 116.873 215.023 126.558 214.751 138.639C214.579 146.223 209.18 208.021 209.622 211.17Z" fill="#FFBE82"/>
<path fill-rule="evenodd" clip-rule="evenodd" d="M172.302 46.4856H176.856C178.443 50.1596 181.796 52.998 187.003 52.998C192.217 52.998 195.573 50.1596 197.156 46.4856H201.312C205.562 46.4856 209.041 49.847 209.162 54.0972C209.479 65.1724 210.199 86.5126 211.47 105.81C212.617 123.274 217.384 139.505 214.124 144.265C214.124 144.265 169.954 140.598 162.302 131.815C155.687 124.22 159.737 109.118 161.018 93.7011C162.293 78.3588 163.585 62.706 164.316 53.8336C164.658 49.6748 168.133 46.4856 172.302 46.4856Z" fill="#828291"/>
<path fill-rule="evenodd" clip-rule="evenodd" d="M204.196 71.6356C204.6 62.6292 202.268 54.0417 198.025 46.4854H201.312C205.562 46.4854 209.041 49.8489 209.162 54.097C209.481 65.1721 210.199 86.5123 211.47 105.809C212.617 123.274 217.384 139.505 214.124 144.265C214.124 144.265 169.954 140.6 162.301 131.814C160.559 129.816 159.571 127.286 159.063 124.377C184.722 120.329 203.023 97.8447 204.196 71.6356Z" fill="#757582"/>
<path fill-rule="evenodd" clip-rule="evenodd" d="M188.211 36.2789L188.736 36.3958C192.737 37.2867 196.702 34.7629 197.593 30.7594L199.973 20.0457L192.204 18.3171L188.211 36.2789Z" fill="#41378C"/>
<path fill-rule="evenodd" clip-rule="evenodd" d="M181.269 46.4854H195.926L191.699 31.866L181.709 33.1013L181.269 46.4854Z" fill="#FAB9AF"/>
<path fill-rule="evenodd" clip-rule="evenodd" d="M181.709 33.1024L191.699 31.865L193.669 38.6793C191.433 41.2009 188.114 45.1173 184.48 45.1173C183.326 45.1173 182.274 44.792 181.331 44.1924L181.709 33.1024Z" fill="#FA968C"/>
<path fill-rule="evenodd" clip-rule="evenodd" d="M180.197 40.873C186.778 42.3379 193.298 38.1876 194.762 31.6029L197.713 18.323L177.277 13.7751C177.277 13.7751 174.974 24.1423 174.906 31.4711C174.857 36.9694 176.844 40.1267 180.197 40.873Z" fill="#FAB9AF"/>
<path fill-rule="evenodd" clip-rule="evenodd" d="M193.83 22.8047L197.67 23.6594L197.283 25.4007L193.443 24.5481L193.83 22.8047Z" fill="#41378C"/>
<path fill-rule="evenodd" clip-rule="evenodd" d="M191.854 28.3205C191.278 30.9123 192.052 33.2872 193.58 33.6274C195.11 33.9676 197.551 30.9484 198.127 28.3566C198.703 25.7649 197.194 24.5848 195.667 24.2447C194.137 23.9045 192.43 25.7287 191.854 28.3205Z" fill="#FAB9AF"/>
<path fill-rule="evenodd" clip-rule="evenodd" d="M174.646 18.922C174.535 17.1616 174.822 15.399 175.485 13.7661C177.128 9.70942 181.667 7.96385 185.798 9.40326C186.219 9.54996 186.667 9.67753 187.139 9.78384L194.037 11.3147C198.182 12.2353 200.796 16.3451 199.874 20.4911L199.517 22.1006L195.428 24.4734L193.76 27.3778L193.49 27.3161C192.175 27.0248 191.327 25.7598 191.531 24.4458C191.871 22.2771 190.794 20.1595 188.652 19.6832L182.532 18.3203C178.805 17.4911 176.422 19.0624 175.804 21.8519L175.47 24.2523L174.646 18.922Z" fill="#41378C"/>
<path d="M194.193 97.7246L295.039 659.163" stroke="#5046AF" stroke-width="2.067" stroke-linecap="round"/>
<path d="M211.188 659.163L110.342 97.7249" stroke="#5046AF" stroke-width="2.067" stroke-linecap="round"/>
<path d="M117.023 122.734H198.982" stroke="#5046AF" stroke-width="2.067" stroke-linecap="round"/>
<path d="M122.471 160.3H205.573" stroke="#5046AF" stroke-width="2.067" stroke-linecap="round"/>
<path d="M130.046 197.867H212.407" stroke="#5046AF" stroke-width="2.067" stroke-linecap="round"/>
<path d="M137.371 235.433H219.241" stroke="#5046AF" stroke-width="2.067" stroke-linecap="round"/>
<path d="M141.809 272.999H224.627" stroke="#5046AF" stroke-width="2.067" stroke-linecap="round"/>
<path d="M147.551 309.896H231.52" stroke="#5046AF" stroke-width="2.067" stroke-linecap="round"/>
<path d="M155.973 348.132H238.654" stroke="#5046AF" stroke-width="2.067" stroke-linecap="round"/>
<path d="M162.721 385.698H245.628" stroke="#5046AF" stroke-width="2.067" stroke-linecap="round"/>
<path d="M169.392 421.199H252.301" stroke="#5046AF" stroke-width="2.067" stroke-linecap="round"/>
<path d="M175.062 456.7H257.971" stroke="#5046AF" stroke-width="2.067" stroke-linecap="round"/>
<path d="M181.576 492.201H264.485" stroke="#5046AF" stroke-width="2.067" stroke-linecap="round"/>
<path d="M187.903 527.702H270.812" stroke="#5046AF" stroke-width="2.067" stroke-linecap="round"/>
<path d="M194.073 563.203H276.98" stroke="#5046AF" stroke-width="2.067" stroke-linecap="round"/>
<path d="M201.244 598.703H284.153" stroke="#5046AF" stroke-width="2.067" stroke-linecap="round"/>
<path d="M110.342 97.7246L8.64182 660.441" stroke="#9F9FFF" stroke-width="2.067" stroke-linecap="round"/>
<path d="M92.492 660.44L194.192 97.7241" stroke="#9F9FFF" stroke-width="2.067" stroke-linecap="round"/>
<path d="M187.512 122.734H105.793" stroke="#9F9FFF" stroke-width="2.067" stroke-linecap="round"/>
<path d="M182.063 160.3H98.9611" stroke="#9F9FFF" stroke-width="2.067" stroke-linecap="round"/>
<path d="M174.489 197.867H92.128" stroke="#9F9FFF" stroke-width="2.067" stroke-linecap="round"/>
<path d="M167.164 235.433H85.2939" stroke="#9F9FFF" stroke-width="2.067" stroke-linecap="round"/>
<path d="M161.28 272.999H78.4623" stroke="#9F9FFF" stroke-width="2.067" stroke-linecap="round"/>
<path d="M155.719 309.896H71.7499" stroke="#9F9FFF" stroke-width="2.067" stroke-linecap="round"/>
<path d="M147.478 348.132H64.7964" stroke="#9F9FFF" stroke-width="2.067" stroke-linecap="round"/>
<path d="M141.813 385.698H58.9045" stroke="#9F9FFF" stroke-width="2.067" stroke-linecap="round"/>
<path d="M135.432 427.839H52.5229" stroke="#9F9FFF" stroke-width="2.067" stroke-linecap="round"/>
<path d="M125.786 469.98H42.8773" stroke="#9F9FFF" stroke-width="2.067" stroke-linecap="round"/>
<path d="M118.589 512.12H35.6818" stroke="#9F9FFF" stroke-width="2.067" stroke-linecap="round"/>
<path d="M111.799 554.261H28.8901" stroke="#9F9FFF" stroke-width="2.067" stroke-linecap="round"/>
<path d="M102.97 596.81H20.0605" stroke="#9F9FFF" stroke-width="2.067" stroke-linecap="round"/>
<path fill-rule="evenodd" clip-rule="evenodd" d="M195.284 14.081C195.751 17.8698 182.143 22.6685 178.556 23.1129C174.966 23.5551 171.677 20.8443 171.209 17.0555C170.742 13.2688 173.273 9.83716 176.862 9.39492C180.451 8.95056 194.816 10.2922 195.284 14.081Z" fill="#41378C"/>
<path fill-rule="evenodd" clip-rule="evenodd" d="M7.24123 19.8316C2.8871 20.6012 -0.0198979 24.76 0.749352 29.1165L8.15073 70.9996L10.9281 70.5084C13.493 65.0145 19.0605 61.0492 25.9285 61.1108C32.4289 61.1704 38.4171 65.3121 40.7482 71.3844C44.5477 81.2753 38.3449 91.619 28.4636 93.3667C23.047 94.3235 17.7897 92.4673 14.1687 88.855L11.3935 89.3462L19.579 135.679C20.3504 140.036 24.5047 142.944 28.8589 142.173L70.7192 134.769L70.2113 131.893C64.7204 129.326 60.7572 123.756 60.821 116.882C60.8784 110.378 65.0179 104.389 71.0869 102.056C80.9724 98.2547 91.3105 104.461 93.0572 114.345C94.0135 119.767 92.1583 125.025 88.548 128.648L89.058 131.525L135.364 123.333C139.718 122.563 142.625 118.406 141.856 114.048L123.026 7.4871C122.255 3.12849 118.1 0.222036 113.744 0.991704L7.24123 19.8316Z" fill="#5046AF"/>
<path fill-rule="evenodd" clip-rule="evenodd" d="M210.832 60.782C206.319 66.9372 198.582 75.0336 189.317 82.0244C160.982 102.699 130.658 104.789 105.927 81.3865C104.916 80.4298 104.871 78.833 105.83 77.821C106.648 76.9556 107.931 76.7962 108.919 77.3681L109.034 77.434C125.161 86.7466 139.602 90.5715 157.782 82.928C181.613 72.6523 198.524 47.9294 196.743 50.2894C199.667 46.4155 205.173 45.648 209.045 48.5736C212.881 51.4715 213.665 56.9145 210.832 60.782Z" fill="#FAB9AF"/>
<path fill-rule="evenodd" clip-rule="evenodd" d="M183.741 64.484C189.642 59.1856 197.145 48.7441 197.145 48.7441C197.145 48.7441 200.703 44.5386 208.023 47.6045C213.869 50.0559 212.686 56.9659 212.686 56.9659C212.543 57.927 210.59 69.3274 197.148 79.4096C197.148 79.4096 182.751 65.3727 183.741 64.484Z" fill="#A5A0AA"/>
<path fill-rule="evenodd" clip-rule="evenodd" d="M110.714 78.4968C108.778 76.2367 108.266 68.3061 107.176 68.3061C106.394 68.3061 106.253 71.0446 106.236 72.5818C106.234 72.7625 106.128 72.9241 105.964 72.9964C105.801 73.0708 105.61 73.0411 105.476 72.922C103.276 70.9851 97.0735 65.6144 96.4338 66.1268C95.7857 66.6456 99.0816 70.6513 100.204 71.9801C100.238 72.0205 100.24 72.0779 100.206 72.1204C100.174 72.1608 100.116 72.1736 100.07 72.1502C98.3357 71.2721 92.6768 68.4975 92.5451 69.6839C92.4197 70.8129 97.3391 73.9532 99.2601 75.1332C99.309 75.163 99.326 75.2225 99.3047 75.2735C99.2813 75.3246 99.224 75.3501 99.1708 75.3352C97.0161 74.6973 91.472 73.1559 91.3466 74.1594C91.2191 75.1821 96.5783 77.4783 98.5057 78.2693C98.5567 78.2905 98.5843 78.3437 98.5716 78.3968C98.5588 78.45 98.51 78.4861 98.4568 78.4819C96.555 78.3331 91.6505 78.0163 92.407 78.7732C93.3398 79.7087 105.153 83.5719 107.798 83.5719C110.446 83.5719 110.714 78.4968 110.714 78.4968Z" fill="#FAB9AF"/>
</svg>
