<svg width="763" height="622" viewBox="0 0 763 622" fill="none" xmlns="http://www.w3.org/2000/svg"><mask id="a" maskUnits="userSpaceOnUse" x="0" y="0" width="763" height="622"><path fill-rule="evenodd" clip-rule="evenodd" d="M0 .03h762.495v621.45H0V.03z" fill="#fff"/></mask><g mask="url(#a)"><path opacity=".676" fill-rule="evenodd" clip-rule="evenodd" d="M751.268 366.636c-22.172-41.688-26.025-90.849-10.561-136.148 10.019-29.35 11.585-74.687 3.318-104.772C717.456 29.061 594.581-28.527 476.104 14.5 367.475 53.95 340.878 216.71 257.469 199.017 61.291 157.402-9.369 297.239.979 411.074c6.685 73.531 68.352 164.477 200.079 154.928 38.783-2.812 76.872 6.722 109.693 25.704 56.052 32.417 145.143 40.018 237.695 14.576 139.213-38.268 233.512-136.787 210.626-220.048a95.459 95.459 0 0 0-7.804-19.598z" fill="#7191F8"/></g></svg>