<svg width="780" height="690" viewBox="0 0 780 690" fill="none" xmlns="http://www.w3.org/2000/svg">
<path fill-rule="evenodd" clip-rule="evenodd" d="M581.976 45.1547C582.152 42.1823 587.293 36.1249 586.511 35.368C585.946 34.8237 583.946 36.6947 582.864 37.7897C582.739 37.9172 582.55 37.9598 582.38 37.8981C582.212 37.8364 582.095 37.6834 582.08 37.5026C581.846 34.5813 581.115 26.4084 580.299 26.3318C579.475 26.2531 579.061 31.424 578.946 33.161C578.942 33.2142 578.901 33.2567 578.85 33.2631C578.797 33.2695 578.748 33.2397 578.731 33.1887C578.094 31.3517 575.952 25.4218 575.032 26.1851C574.158 26.908 575.514 32.587 576.077 34.7726C576.09 34.8258 576.062 34.8832 576.011 34.9023C575.96 34.9236 575.901 34.9023 575.873 34.8556C574.766 32.8974 571.848 27.9349 571.062 28.5685C570.259 29.2149 572.52 34.5941 573.357 36.5033C573.378 36.5522 573.361 36.6118 573.315 36.6415C573.268 36.6692 573.208 36.6607 573.172 36.6203C571.908 35.1936 568.601 31.5558 568.62 32.6231C568.642 33.9456 574.451 44.9378 576.355 46.7769C578.257 48.6182 581.976 45.1547 581.976 45.1547Z" fill="#FA968C"/>
<path fill-rule="evenodd" clip-rule="evenodd" d="M634.136 81.9458C630.199 90.6758 624.531 100.592 617.678 107.398C604.346 120.601 587.235 117.151 581.264 86.2747C580.225 81.6226 579.498 76.9897 578.888 72.3654C577.647 63.1293 577.167 53.921 576.742 44.7402C576.678 43.3497 577.752 42.1718 579.141 42.1059C580.399 42.0485 581.483 42.9245 581.725 44.1215L581.736 44.1726C583.542 53.0854 585.359 61.9812 587.688 70.6347C588.887 74.9444 590.128 79.2201 591.575 83.3427C592.828 87.2442 597.869 99.3718 601.787 100.558C601.917 100.537 602.045 100.707 602.119 100.633C602.191 100.567 602.227 100.56 602.272 100.601C602.346 100.503 602.395 100.46 602.459 100.473C602.674 100.299 602.926 100.269 603.392 99.8927C604.246 99.3314 605.415 98.2258 606.524 96.848C608.798 94.1499 610.916 90.5865 612.78 86.887C616.012 80.6127 617.884 76.0989 617.884 76.0989C621.864 65.1832 638.367 70.4114 634.383 81.342C634.311 81.5397 634.221 81.7545 634.136 81.9458Z" fill="#FA968C"/>
<path fill-rule="evenodd" clip-rule="evenodd" d="M607.687 93.6944C607.702 93.6732 607.717 93.6519 607.732 93.6307C609.744 90.6838 611.612 87.603 613.333 84.4457C615.039 81.3628 616.778 77.9375 617.995 75.0247L618.055 74.878C618.153 74.6462 618.261 74.4166 618.382 74.1891C620.645 69.8879 625.962 68.2359 630.261 70.5002C634.56 72.7646 636.211 78.0864 633.948 82.3854C631.825 86.4209 629.77 89.7185 627.424 93.1905C625.834 95.4825 624.145 97.7065 622.405 99.8943C621.108 98.5102 610.783 94.8043 607.687 93.6944Z" fill="#A5A0AA"/>
<path fill-rule="evenodd" clip-rule="evenodd" d="M616.301 154.814C623.953 163.599 668.123 167.267 668.123 167.267C671.383 163.48 666.619 146.275 665.469 128.809C664.226 109.924 663.51 89.0816 663.183 77.8194C663.047 73.1716 659.245 69.4849 654.598 69.4849H626.569C622.247 69.4849 618.651 72.7847 618.294 77.0922C617.559 86.0093 616.28 101.507 615.017 116.7C613.736 132.117 609.686 147.219 616.301 154.814Z" fill="#FAB9AF"/>
<path fill-rule="evenodd" clip-rule="evenodd" d="M641.782 301.63L641.718 319.011L643.227 327.477C643.488 328.942 642.405 330.299 640.917 330.345C633.805 330.562 615.593 331.043 615.107 330.254C612.816 326.548 623.167 325.122 630.738 322.19C638.312 319.255 633.086 290.491 633.086 290.491L641.782 301.63Z" fill="#FA968C"/>
<path fill-rule="evenodd" clip-rule="evenodd" d="M630.738 322.188C630.779 322.174 630.815 322.146 630.853 322.129C632.657 322.803 634.689 323.198 636.977 323.198C638.941 323.198 640.72 322.916 642.324 322.412L643.227 327.476C643.488 328.943 642.405 330.298 640.917 330.344C633.805 330.563 615.594 331.044 615.107 330.253C612.816 326.547 623.167 325.12 630.738 322.188Z" fill="#F57A2F"/>
<path fill-rule="evenodd" clip-rule="evenodd" d="M616.312 161.149C616.038 173.23 620.787 249.88 630.169 250.092C639.549 250.305 650.01 174.001 650.284 161.921C650.559 149.838 643.174 139.872 633.794 139.66C624.413 139.445 616.586 149.068 616.312 161.149Z" fill="#0091C8"/>
<path fill-rule="evenodd" clip-rule="evenodd" d="M643.126 234.17C644.056 240.821 644.207 283.431 642.711 305.075H634.171C629.585 284.079 624.685 243.385 623.773 236.883C623.763 236.798 623.756 236.717 623.746 236.634C618.643 214.046 616.11 170.058 616.312 161.149C616.586 149.066 624.413 139.446 633.795 139.658C643.174 139.873 650.557 149.838 650.283 161.919C650.113 169.505 642.686 231.021 643.126 234.17Z" fill="#FF965A"/>
<path fill-rule="evenodd" clip-rule="evenodd" d="M641.726 267.968C641.932 263.348 641.414 258.845 640.283 254.535C636.934 241.749 636.838 228.42 638.188 215.272C638.3 214.168 638.381 213.058 638.432 211.94C639.204 194.727 629.96 179.084 616.475 169.219C616.33 165.59 616.275 162.779 616.311 161.148C616.585 149.067 624.414 139.447 633.793 139.659C643.175 139.872 650.557 149.839 650.283 161.92C650.111 169.504 642.684 231.02 643.126 234.171C644.057 240.819 644.206 283.43 642.712 305.076H634.172C633.634 302.612 633.092 299.856 632.552 296.937C637.965 288.524 641.252 278.554 641.726 267.968Z" fill="#F07D4B"/>
<path fill-rule="evenodd" clip-rule="evenodd" d="M662.278 301.63L662.214 319.011L663.723 327.477C663.984 328.942 662.901 330.299 661.413 330.345C654.301 330.562 636.089 331.043 635.603 330.254C633.312 326.548 643.663 325.122 651.234 322.19C658.808 319.255 653.582 290.491 653.582 290.491L662.278 301.63Z" fill="#FA968C"/>
<path fill-rule="evenodd" clip-rule="evenodd" d="M651.235 322.188C651.275 322.174 651.311 322.146 651.349 322.129C653.153 322.803 655.185 323.198 657.474 323.198C659.435 323.198 661.216 322.916 662.82 322.412L663.723 327.476C663.985 328.943 662.901 330.298 661.413 330.344C654.301 330.563 636.09 331.044 635.603 330.253C633.312 326.547 643.663 325.12 651.235 322.188Z" fill="#FF8C46"/>
<path fill-rule="evenodd" clip-rule="evenodd" d="M636.808 161.149C636.534 173.23 641.283 249.88 650.665 250.092C660.045 250.305 668.477 173.721 668.751 161.638C669.025 149.557 663.67 139.872 654.29 139.66C644.909 139.445 637.082 149.068 636.808 161.149Z" fill="#0091C8"/>
<path fill-rule="evenodd" clip-rule="evenodd" d="M663.622 234.17C664.552 240.821 664.703 283.431 663.207 305.075H654.667C650.081 284.079 645.179 243.385 644.269 236.883C644.259 236.798 644.252 236.717 644.242 236.634C639.139 214.046 634.577 169.775 634.779 160.867C635.053 148.786 644.909 139.446 654.291 139.658C663.67 139.873 669.023 149.558 668.751 161.639C668.579 169.223 663.18 231.021 663.622 234.17Z" fill="#FFBE82"/>
<path fill-rule="evenodd" clip-rule="evenodd" d="M626.302 69.4856H630.856C632.443 73.1596 635.796 75.998 641.003 75.998C646.217 75.998 649.573 73.1596 651.156 69.4856H655.312C659.562 69.4856 663.041 72.847 663.162 77.0972C663.479 88.1724 664.199 109.513 665.47 128.81C666.617 146.274 671.384 162.505 668.124 167.265C668.124 167.265 623.954 163.598 616.302 154.815C609.687 147.22 613.737 132.118 615.018 116.701C616.293 101.359 617.585 85.706 618.316 76.8336C618.658 72.6748 622.133 69.4856 626.302 69.4856Z" fill="#828291"/>
<path fill-rule="evenodd" clip-rule="evenodd" d="M658.196 94.6356C658.6 85.6292 656.268 77.0417 652.025 69.4854H655.312C659.562 69.4854 663.041 72.8489 663.162 77.097C663.481 88.1721 664.199 109.512 665.47 128.809C666.617 146.274 671.384 162.505 668.124 167.265C668.124 167.265 623.954 163.6 616.301 154.814C614.559 152.816 613.571 150.286 613.063 147.377C638.722 143.329 657.023 120.845 658.196 94.6356Z" fill="#757582"/>
<path fill-rule="evenodd" clip-rule="evenodd" d="M642.211 59.2789L642.736 59.3958C646.737 60.2867 650.702 57.7629 651.593 53.7594L653.973 43.0457L646.204 41.3171L642.211 59.2789Z" fill="#41378C"/>
<path fill-rule="evenodd" clip-rule="evenodd" d="M635.269 69.4854H649.926L645.699 54.866L635.709 56.1013L635.269 69.4854Z" fill="#FAB9AF"/>
<path fill-rule="evenodd" clip-rule="evenodd" d="M635.709 56.1024L645.699 54.865L647.669 61.6793C645.433 64.2009 642.114 68.1173 638.48 68.1173C637.326 68.1173 636.274 67.792 635.331 67.1924L635.709 56.1024Z" fill="#FA968C"/>
<path fill-rule="evenodd" clip-rule="evenodd" d="M634.197 63.873C640.778 65.3379 647.298 61.1876 648.762 54.6029L651.713 41.323L631.277 36.7751C631.277 36.7751 628.974 47.1423 628.906 54.4711C628.857 59.9694 630.844 63.1267 634.197 63.873Z" fill="#FAB9AF"/>
<path fill-rule="evenodd" clip-rule="evenodd" d="M647.83 45.8047L651.67 46.6594L651.283 48.4007L647.443 47.5481L647.83 45.8047Z" fill="#41378C"/>
<path fill-rule="evenodd" clip-rule="evenodd" d="M645.854 51.3205C645.278 53.9123 646.052 56.2872 647.58 56.6274C649.11 56.9676 651.551 53.9484 652.127 51.3566C652.703 48.7649 651.194 47.5848 649.667 47.2447C648.137 46.9045 646.43 48.7287 645.854 51.3205Z" fill="#FAB9AF"/>
<path fill-rule="evenodd" clip-rule="evenodd" d="M628.646 41.922C628.535 40.1616 628.822 38.399 629.485 36.7661C631.128 32.7094 635.667 30.9639 639.798 32.4033C640.219 32.55 640.667 32.6775 641.139 32.7838L648.037 34.3147C652.182 35.2353 654.796 39.3451 653.874 43.4911L653.517 45.1006L649.428 47.4734L647.76 50.3778L647.49 50.3161C646.175 50.0248 645.327 48.7598 645.531 47.4458C645.871 45.2771 644.794 43.1595 642.652 42.6832L636.532 41.3203C632.805 40.4911 630.422 42.0624 629.804 44.8519L629.47 47.2523L628.646 41.922Z" fill="#41378C"/>
<path d="M648.193 120.725L749.039 682.163" stroke="#5046AF" stroke-width="2.067" stroke-linecap="round"/>
<path d="M665.188 682.163L564.342 120.725" stroke="#5046AF" stroke-width="2.067" stroke-linecap="round"/>
<path d="M571.023 145.734H652.982" stroke="#5046AF" stroke-width="2.067" stroke-linecap="round"/>
<path d="M576.471 183.3H659.573" stroke="#5046AF" stroke-width="2.067" stroke-linecap="round"/>
<path d="M584.046 220.867H666.407" stroke="#5046AF" stroke-width="2.067" stroke-linecap="round"/>
<path d="M591.371 258.433H673.241" stroke="#5046AF" stroke-width="2.067" stroke-linecap="round"/>
<path d="M595.809 295.999H678.627" stroke="#5046AF" stroke-width="2.067" stroke-linecap="round"/>
<path d="M601.551 332.896H685.52" stroke="#5046AF" stroke-width="2.067" stroke-linecap="round"/>
<path d="M609.973 371.132H692.654" stroke="#5046AF" stroke-width="2.067" stroke-linecap="round"/>
<path d="M616.721 408.698H699.628" stroke="#5046AF" stroke-width="2.067" stroke-linecap="round"/>
<path d="M623.392 444.199H706.301" stroke="#5046AF" stroke-width="2.067" stroke-linecap="round"/>
<path d="M629.062 479.7H711.971" stroke="#5046AF" stroke-width="2.067" stroke-linecap="round"/>
<path d="M635.576 515.201H718.485" stroke="#5046AF" stroke-width="2.067" stroke-linecap="round"/>
<path d="M641.903 550.702H724.812" stroke="#5046AF" stroke-width="2.067" stroke-linecap="round"/>
<path d="M648.073 586.203H730.98" stroke="#5046AF" stroke-width="2.067" stroke-linecap="round"/>
<path d="M655.244 621.703H738.153" stroke="#5046AF" stroke-width="2.067" stroke-linecap="round"/>
<path d="M564.342 120.725L462.642 683.441" stroke="#9F9FFF" stroke-width="2.067" stroke-linecap="round"/>
<path d="M546.492 683.44L648.192 120.724" stroke="#9F9FFF" stroke-width="2.067" stroke-linecap="round"/>
<path d="M641.512 145.734H559.793" stroke="#9F9FFF" stroke-width="2.067" stroke-linecap="round"/>
<path d="M636.063 183.3H552.961" stroke="#9F9FFF" stroke-width="2.067" stroke-linecap="round"/>
<path d="M628.489 220.867H546.128" stroke="#9F9FFF" stroke-width="2.067" stroke-linecap="round"/>
<path d="M621.164 258.433H539.294" stroke="#9F9FFF" stroke-width="2.067" stroke-linecap="round"/>
<path d="M615.28 295.999H532.462" stroke="#9F9FFF" stroke-width="2.067" stroke-linecap="round"/>
<path d="M609.719 332.896H525.75" stroke="#9F9FFF" stroke-width="2.067" stroke-linecap="round"/>
<path d="M601.478 371.132H518.796" stroke="#9F9FFF" stroke-width="2.067" stroke-linecap="round"/>
<path d="M595.813 408.698H512.904" stroke="#9F9FFF" stroke-width="2.067" stroke-linecap="round"/>
<path d="M589.432 450.839H506.523" stroke="#9F9FFF" stroke-width="2.067" stroke-linecap="round"/>
<path d="M579.786 492.98H496.877" stroke="#9F9FFF" stroke-width="2.067" stroke-linecap="round"/>
<path d="M572.589 535.12H489.682" stroke="#9F9FFF" stroke-width="2.067" stroke-linecap="round"/>
<path d="M565.799 577.261H482.89" stroke="#9F9FFF" stroke-width="2.067" stroke-linecap="round"/>
<path d="M556.97 619.81H474.061" stroke="#9F9FFF" stroke-width="2.067" stroke-linecap="round"/>
<path fill-rule="evenodd" clip-rule="evenodd" d="M649.284 37.081C649.751 40.8698 636.143 45.6685 632.556 46.1129C628.966 46.5551 625.677 43.8443 625.209 40.0555C624.742 36.2688 627.273 32.8372 630.862 32.3949C634.451 31.9506 648.816 33.2922 649.284 37.081Z" fill="#41378C"/>
<path fill-rule="evenodd" clip-rule="evenodd" d="M461.241 42.8316C456.887 43.6012 453.98 47.76 454.749 52.1165L462.151 93.9996L464.928 93.5084C467.493 88.0145 473.06 84.0492 479.928 84.1108C486.429 84.1704 492.417 88.3121 494.748 94.3844C498.548 104.275 492.345 114.619 482.464 116.367C477.047 117.323 471.79 115.467 468.169 111.855L465.393 112.346L473.579 158.679C474.35 163.036 478.505 165.944 482.859 165.173L524.719 157.769L524.211 154.893C518.72 152.326 514.757 146.756 514.821 139.882C514.878 133.378 519.018 127.389 525.087 125.056C534.972 121.255 545.31 127.461 547.057 137.345C548.013 142.767 546.158 148.025 542.548 151.648L543.058 154.525L589.364 146.333C593.718 145.563 596.625 141.406 595.856 137.048L577.026 30.4871C576.255 26.1285 572.1 23.222 567.744 23.9917L461.241 42.8316Z" fill="#5046AF"/>
<path fill-rule="evenodd" clip-rule="evenodd" d="M664.832 83.782C660.319 89.9372 652.582 98.0336 643.317 105.024C614.982 125.699 584.658 127.789 559.927 104.387C558.916 103.43 558.871 101.833 559.83 100.821C560.648 99.9556 561.931 99.7962 562.919 100.368L563.034 100.434C579.161 109.747 593.602 113.572 611.782 105.928C635.613 95.6523 652.524 70.9294 650.743 73.2894C653.667 69.4155 659.173 68.648 663.045 71.5736C666.881 74.4715 667.665 79.9145 664.832 83.782Z" fill="#FAB9AF"/>
<path fill-rule="evenodd" clip-rule="evenodd" d="M637.741 87.484C643.642 82.1856 651.145 71.7441 651.145 71.7441C651.145 71.7441 654.703 67.5386 662.023 70.6045C667.869 73.0559 666.686 79.9659 666.686 79.9659C666.543 80.927 664.59 92.3274 651.148 102.41C651.148 102.41 636.751 88.3727 637.741 87.484Z" fill="#A5A0AA"/>
<path fill-rule="evenodd" clip-rule="evenodd" d="M564.714 101.497C562.778 99.2367 562.266 91.3061 561.176 91.3061C560.394 91.3061 560.253 94.0446 560.236 95.5818C560.234 95.7625 560.128 95.9241 559.964 95.9964C559.801 96.0708 559.61 96.0411 559.476 95.922C557.276 93.9851 551.073 88.6144 550.434 89.1268C549.786 89.6456 553.082 93.6513 554.204 94.9801C554.238 95.0205 554.24 95.0779 554.206 95.1204C554.174 95.1608 554.116 95.1736 554.07 95.1502C552.336 94.2721 546.677 91.4975 546.545 92.6839C546.42 93.8129 551.339 96.9532 553.26 98.1332C553.309 98.163 553.326 98.2225 553.305 98.2735C553.281 98.3246 553.224 98.3501 553.171 98.3352C551.016 97.6973 545.472 96.1559 545.347 97.1594C545.219 98.1821 550.578 100.478 552.506 101.269C552.557 101.291 552.584 101.344 552.572 101.397C552.559 101.45 552.51 101.486 552.457 101.482C550.555 101.333 545.65 101.016 546.407 101.773C547.34 102.709 559.153 106.572 561.798 106.572C564.446 106.572 564.714 101.497 564.714 101.497Z" fill="#FAB9AF"/>
<mask id="mask0" mask-type="alpha" maskUnits="userSpaceOnUse" x="0" y="0" width="780" height="690">
<path fill-rule="evenodd" clip-rule="evenodd" d="M0 690H779.977V0.0290527H0V690Z" fill="white"/>
</mask>
<g mask="url(#mask0)">
<path fill-rule="evenodd" clip-rule="evenodd" d="M103.8 576.757H664.203V235.592H103.8V576.757Z" fill="#5046AF"/>
<path fill-rule="evenodd" clip-rule="evenodd" d="M132.226 551.205H635.779V261.14H132.226V551.205Z" fill="white"/>
<path fill-rule="evenodd" clip-rule="evenodd" d="M165.015 519.1H294.047V334.118H165.015V519.1Z" stroke="#827DDC" stroke-width="0.988"/>
<path fill-rule="evenodd" clip-rule="evenodd" d="M323.145 519.1H452.177V334.118H323.145V519.1Z" stroke="#827DDC" stroke-width="0.988"/>
<path fill-rule="evenodd" clip-rule="evenodd" d="M481.274 519.1H610.306V334.118H481.274V519.1Z" stroke="#827DDC" stroke-width="0.988"/>
<path fill-rule="evenodd" clip-rule="evenodd" d="M132.226 265.864H635.779V261.14H132.226V265.864Z" fill="#A5C8CD"/>
<path fill-rule="evenodd" clip-rule="evenodd" d="M336.203 373.811H437.761V349.996H336.203V373.811Z" fill="#C8E6EB"/>
<path fill-rule="evenodd" clip-rule="evenodd" d="M336.203 409.535H437.761V385.72H336.203V409.535Z" fill="#C8E6EB"/>
<path fill-rule="evenodd" clip-rule="evenodd" d="M336.203 445.258H437.761V421.443H336.203V445.258Z" fill="#C8E6EB"/>
<path fill-rule="evenodd" clip-rule="evenodd" d="M336.203 480.982H437.761V457.167H336.203V480.982Z" fill="#C8E6EB"/>
<path fill-rule="evenodd" clip-rule="evenodd" d="M164.821 314.273H610.727V288.076H164.821V314.273Z" fill="#C8E6EB"/>
<path fill-rule="evenodd" clip-rule="evenodd" d="M28.4306 687.644H216.393C217.921 687.644 219.16 686.404 219.16 684.876C219.16 683.347 217.921 682.107 216.393 682.107H28.4306C26.9027 682.107 25.6638 683.347 25.6638 684.876C25.6638 686.404 26.9027 687.644 28.4306 687.644Z" fill="#B4D7DC"/>
<path fill-rule="evenodd" clip-rule="evenodd" d="M54.2969 626.894C54.2969 626.894 42.7943 640.139 40.6821 642.249C38.9374 643.99 36.4639 644.624 34.0924 645.291C33.3338 645.504 32.3457 646.284 31.5106 646.941C30.8391 647.466 30.5331 648.289 30.5479 649.142C30.8199 664.052 43.7909 674.505 44.4837 673.633C45.7289 672.057 44.7791 667.69 42.2992 664.809C39.8023 661.911 39.1967 657.825 40.3102 654.164C41.1963 651.251 42.8177 648.616 45.0171 646.514L55.0194 637.146L54.2969 626.894Z" fill="#FA968C"/>
<path fill-rule="evenodd" clip-rule="evenodd" d="M171.876 645.732L181.026 661.03C183.822 665.705 184.851 671.242 183.927 676.612C183.927 676.615 183.927 676.617 183.927 676.617C183.404 679.621 185.658 682.387 188.706 682.464C198.555 682.708 217.618 683.063 218.169 682.166C220.97 677.59 208.912 675.543 199.443 672.335C193.058 670.17 185.199 652.874 180.218 639.264L172.753 643.995C172.177 644.382 171.846 645.039 171.876 645.732Z" fill="#FA968C"/>
<path fill-rule="evenodd" clip-rule="evenodd" d="M199.258 677.602C203.304 677.602 207.433 676.673 211.247 675.918C211.685 675.831 212.142 675.863 212.562 676.012C216.976 677.581 219.654 679.739 218.168 682.165C217.571 683.141 195.148 682.637 186.389 682.403C184.559 682.354 183.216 680.691 183.531 678.884L184.104 675.597C189.056 676.858 194.132 677.602 199.258 677.602Z" fill="#823264"/>
<path fill-rule="evenodd" clip-rule="evenodd" d="M139.137 472.973C129.022 470.947 116.939 479.237 114.332 492.264C112.833 499.75 110.626 527.638 110.94 550.397C111.059 559.133 106.869 567.536 99.4098 572.077C98.1943 572.817 97.0808 573.631 96.1118 574.516C91.1202 579.077 67.9067 608.192 53.3568 627.944C52.9021 631.033 53.359 635.305 55.0845 637.335C73.708 622.733 105.29 595.24 110.598 590.39C113.547 587.696 116.843 584.541 119.525 581.434C130.966 573.763 149.536 515.19 151.955 503.103C154.562 490.076 149.252 474.999 139.137 472.973Z" fill="#FFAA50"/>
<path fill-rule="evenodd" clip-rule="evenodd" d="M148.561 388.508C148.561 399.726 141.516 408.82 132.825 408.82C124.134 408.82 117.09 399.726 117.09 388.508C117.09 377.291 124.134 368.197 132.825 368.197C141.516 368.197 148.561 377.291 148.561 388.508Z" fill="#9B14AA"/>
<path fill-rule="evenodd" clip-rule="evenodd" d="M129.051 390.604C128.8 379.361 119.703 369.913 108.483 369.27C98.5294 368.703 89.9359 374.805 86.7187 383.518C85.5903 386.571 82.6004 388.559 79.3471 388.51C77.9956 388.491 76.6058 388.614 75.1906 388.905C66.9668 390.592 60.5833 397.54 59.7163 405.893C58.9364 413.431 62.4597 420.19 68.1249 424.047C70.5389 425.692 71.9138 428.418 72.3133 431.314C74.1684 444.713 86.3957 454.555 100.344 453.028C112.276 451.721 121.824 441.898 122.839 429.934C123.462 422.594 120.944 415.863 116.515 410.864C124.061 407.295 129.251 399.555 129.051 390.604Z" fill="#9B14AA"/>
<path fill-rule="evenodd" clip-rule="evenodd" d="M267.737 393.443C263.763 392.593 260.106 394.287 258.066 397.196H255.707V375.443C255.707 371.454 252.475 368.223 248.489 368.223H224.16V365.805C227.069 363.764 228.762 360.105 227.912 356.129C227.179 352.704 224.43 349.899 221.017 349.119C214.922 347.729 209.516 352.323 209.516 358.183C209.516 361.338 211.087 364.121 213.486 365.805V368.223H191.745C187.758 368.223 184.528 371.454 184.528 375.443V397.196H186.146C188.186 394.287 191.841 392.593 195.814 393.443C199.238 394.174 202.041 396.926 202.82 400.34C204.212 406.438 199.62 411.849 193.764 411.849C190.61 411.849 187.829 410.276 186.146 407.875H184.528V432.218C184.528 436.206 187.758 439.44 191.745 439.44H213.486V437.765C210.579 435.724 208.885 432.065 209.735 428.089C210.468 424.664 213.218 421.859 216.631 421.079C222.725 419.688 228.131 424.283 228.131 430.143C228.131 433.298 226.559 436.081 224.16 437.765V439.44H248.489C252.475 439.44 255.707 436.206 255.707 432.218V407.875H258.066C259.749 410.276 262.531 411.849 265.684 411.849C271.541 411.849 276.133 406.44 274.743 400.342C273.963 396.928 271.16 394.177 267.737 393.443Z" fill="#05CDFF"/>
<path fill-rule="evenodd" clip-rule="evenodd" d="M132.825 361.535C132.825 361.535 141.68 367.11 140.603 374.621C140.603 374.621 145.331 371.27 146.402 359.73C147.141 351.731 132.825 361.535 132.825 361.535Z" fill="#9B14AA"/>
<path fill-rule="evenodd" clip-rule="evenodd" d="M154.012 407.301C153.836 410.833 154.027 414.445 154.533 417.953C155.013 421.444 155.836 424.912 157.04 427.787C157.631 429.224 158.305 430.457 158.932 431.395C159.571 432.33 160.056 432.628 159.967 432.732C159.841 432.821 159.76 433.108 160.579 432.828C160.929 432.777 161.437 432.364 161.953 432.084C162.478 431.654 163.044 431.21 163.602 430.661C165.855 428.382 168.046 425.229 169.914 421.823C171.818 418.432 173.55 414.802 175.173 411.081C178.371 403.614 181.17 395.807 183.762 387.902L183.771 387.881C184.247 386.424 185.815 385.633 187.269 386.11C188.558 386.533 189.328 387.815 189.153 389.114C188.034 397.495 186.642 405.883 184.508 414.251C184.024 416.352 183.356 418.436 182.778 420.539C182.075 422.624 181.433 424.721 180.592 426.811C179.002 430.997 177.069 435.194 174.045 439.398C173.267 440.446 172.355 441.49 171.395 442.519C170.279 443.539 169.249 444.56 167.716 445.449L166.635 446.112C166.248 446.322 165.787 446.499 165.358 446.682C164.463 447.028 163.643 447.415 162.585 447.577C160.604 448.034 158.362 448.034 156.331 447.596C152.176 446.684 149.152 444.379 147.019 442.221C144.9 440.012 143.285 437.72 141.991 435.43C137.036 426.254 135.147 416.952 134.698 407.301L134.696 407.269C134.45 401.933 138.572 397.404 143.908 397.157C149.242 396.911 153.766 401.035 154.014 406.372C154.027 406.68 154.027 406.999 154.012 407.301Z" fill="#FAB9AF"/>
<path fill-rule="evenodd" clip-rule="evenodd" d="M142.735 446.219C146.278 435.537 153.405 412.919 152.795 405.526C152.404 400.791 148.45 397.164 143.7 397.164H112.883C107.775 397.164 103.595 401.217 103.446 406.328C103.185 415.258 107.297 435.582 109.611 446.219H142.735Z" fill="#FAB9AF"/>
<path fill-rule="evenodd" clip-rule="evenodd" d="M136.66 494.443C140.205 507.247 169.018 598.263 159.075 601.019C149.134 603.772 95.0232 514.909 94.3326 501.642C93.6781 489.057 100.967 475.425 110.91 472.669C120.85 469.914 133.116 481.639 136.66 494.443Z" fill="#FAB9AF"/>
<path fill-rule="evenodd" clip-rule="evenodd" d="M181.214 642.887C181.582 642.456 181.667 641.848 181.473 641.314C173.77 619.978 163.43 592.95 161.224 587.845C160.973 587.261 160.706 586.691 160.425 586.136C156.664 559.153 139.356 504.181 136.661 494.443C133.117 481.64 120.851 469.914 110.908 472.67C100.968 475.423 93.6768 489.058 94.3334 501.643C94.7648 509.947 116.123 547.865 134.481 574.397C138.346 579.983 140.773 586.395 141.955 593.086C142.771 597.713 144.075 602.327 145.533 605.701C147.705 610.727 160.438 629.905 171.813 646.17C172.14 646.64 172.695 646.916 173.267 646.859C176.284 646.551 179.136 645.328 181.214 642.887Z" fill="#FAC855"/>
<path fill-rule="evenodd" clip-rule="evenodd" d="M106.086 459.76C107.679 455.282 108.16 450.49 107.49 445.782C105.935 434.856 103.217 414.271 103.468 405.532C103.602 400.861 107.427 397.164 112.097 397.164H116.668C118.409 401.203 122.095 404.322 127.829 404.322C133.553 404.322 137.242 401.203 138.985 397.164H143.275C138.613 407.152 140.29 420.33 148.312 428.018C146.82 433.291 145.566 438.596 144.629 442.897C143.358 448.721 143.919 454.791 146.212 460.293C150.15 469.75 153.271 484.916 152.343 490.927C119.926 500.12 97.5092 483.851 97.5092 483.851L106.086 459.76Z" fill="#39AE96"/>
<path fill-rule="evenodd" clip-rule="evenodd" d="M144.629 442.897C144.945 441.447 145.311 439.854 145.695 438.213C141.031 437.048 136.443 435.517 131.968 433.554C122.541 429.421 110.503 422.707 103.737 413.445C103.924 416.105 104.188 419.03 104.504 422.069C107.832 429.833 111.4 437.33 117.947 443.167C125.784 450.155 135.33 454.778 145.319 457.807C143.806 452.992 143.547 447.857 144.629 442.897Z" fill="#1C9585"/>
<path fill-rule="evenodd" clip-rule="evenodd" d="M132.825 399.287L118.845 397.817L123.269 382.511L132.311 383.632L132.825 399.287Z" fill="#FAB9AF"/>
<path fill-rule="evenodd" clip-rule="evenodd" d="M132.311 383.631L123.269 382.511L121.888 387.29C123.913 389.574 126.514 394.507 129.804 394.507C130.847 394.507 131.799 394.211 132.653 393.669L132.311 383.631Z" fill="#FA968C"/>
<path fill-rule="evenodd" clip-rule="evenodd" d="M132.623 391.03C129.552 391.03 126.231 389.493 121.658 385.494C119.031 383.199 117.087 379.196 117.087 376.491V361.534H140.101C140.101 361.534 141.828 369.477 140.152 377.357C138.894 383.27 135.037 391.03 132.623 391.03Z" fill="#FAB9AF"/>
<path fill-rule="evenodd" clip-rule="evenodd" d="M120.989 373.663C120.989 376.582 119.593 378.946 117.871 378.946C116.148 378.946 114.248 375.121 114.248 372.204C114.248 369.285 116.148 368.379 117.871 368.379C119.593 368.379 120.989 370.744 120.989 373.663Z" fill="#FAB9AF"/>
<path fill-rule="evenodd" clip-rule="evenodd" d="M114.249 363.347C114.249 358.675 118.034 354.891 122.702 354.893L130.469 354.895C132.692 354.895 134.847 354.315 136.736 353.241C139.477 351.685 142.941 352.203 144.811 354.742C146.832 357.485 147.707 361.159 142.582 364.561C140.034 366.251 136.309 364.378 133.827 365.19C133.674 365.184 133.538 365.158 133.378 365.158H126.531C124.151 365.158 122.332 367.103 122.262 369.485C122.22 370.988 120.987 372.196 119.472 372.196H119.168L118.072 368.681L114.249 373.837V363.347Z" fill="#9B14AA"/>
<path fill-rule="evenodd" clip-rule="evenodd" d="M189.871 379.864C189.871 379.864 191.48 387.813 189.216 389.108C186.953 390.405 185.198 390.86 183.19 387.635C181.182 384.411 179.964 379.03 179.877 375.658C179.792 372.286 182.034 366.573 182.678 366.12C185.022 364.47 184.535 370.596 184.444 373.572C184.352 376.551 184.546 379.923 185.991 379.562C187.436 379.2 187.181 373.483 188.698 372.522C190.217 371.561 189.871 379.864 189.871 379.864Z" fill="#FAB9AF"/>
<path fill-rule="evenodd" clip-rule="evenodd" d="M224.208 433.933C224.208 433.933 216.207 432.626 214.998 434.937C213.791 437.248 213.402 439.021 216.698 440.907C219.994 442.793 225.415 443.807 228.787 443.765C232.158 443.724 237.778 441.266 238.208 440.605C239.765 438.2 233.666 438.917 230.696 439.121C227.725 439.325 224.35 439.259 224.656 437.801C224.962 436.344 230.681 436.383 231.584 434.828C232.487 433.272 224.208 433.933 224.208 433.933Z" fill="#FAB9AF"/>
<path fill-rule="evenodd" clip-rule="evenodd" d="M138.386 361.273C137.614 364.689 138.753 366.558 127.559 371.891C116.364 377.225 112.822 374.946 109.326 380.689C109.326 380.689 110.854 371.176 117.036 367.913C123.22 364.647 133.942 362.514 137.381 354.956C137.381 354.956 138.913 358.938 138.386 361.273Z" fill="#9B14AA"/>
<path fill-rule="evenodd" clip-rule="evenodd" d="M119.024 405.834C119.019 405.753 119.009 405.675 118.987 405.598L119.043 405.762L119.143 406.138C119.281 406.476 119.421 406.823 119.54 407.171C119.859 407.89 120.201 408.67 120.622 409.423C121.132 410.165 121.508 410.96 122.081 411.694C122.672 412.423 123.274 413.144 123.824 413.916C125.25 415.268 126.44 416.822 128.174 418.015L130.603 419.945L133.355 421.614C140.743 426.135 149.719 429.069 158.999 431.339C161.349 431.824 163.746 432.2 166.128 432.643C168.519 433.051 170.897 433.58 173.358 433.736L180.704 434.461L184.393 434.877L188.116 435.041L195.592 435.373C198.091 435.502 200.592 435.604 203.106 435.549C208.131 435.551 213.17 435.481 218.25 435.56L218.406 435.562C219.936 435.585 221.157 436.844 221.132 438.375C221.113 439.695 220.171 440.784 218.933 441.045C213.903 442.102 208.832 443.012 203.749 443.994C201.214 444.551 198.639 444.783 196.061 445.081L188.309 445.961L184.42 446.399L180.493 446.567L172.614 446.799C169.985 446.96 167.329 446.737 164.669 446.624C162.01 446.48 159.341 446.397 156.666 446.191C145.973 444.985 135.04 442.687 124.578 437.407L120.696 435.328C119.442 434.516 118.21 433.631 116.971 432.77C114.436 431.167 112.204 428.905 109.901 426.823C108.834 425.635 107.816 424.397 106.79 423.169C105.785 421.916 104.931 420.468 104.021 419.108C103.165 417.672 102.404 416.146 101.686 414.555L100.74 412.023L100.332 410.563L100.137 409.808L99.9135 408.638C99.14 403.357 102.791 398.45 108.067 397.676C113.343 396.902 118.25 400.555 119.024 405.834Z" fill="#FAB9AF"/>
<path fill-rule="evenodd" clip-rule="evenodd" d="M136.233 361.909C136.233 361.909 136.658 373.418 146.709 378.946C146.709 378.946 142.281 370.248 142.583 364.561C142.884 358.871 135.57 357.978 136.233 361.909Z" fill="#9B14AA"/>
<path fill-rule="evenodd" clip-rule="evenodd" d="M25.7433 651.703C25.3651 650.761 25.7221 649.689 26.5933 649.17C27.3052 648.747 29.2134 647.569 30.6499 646.685C31.2726 646.302 32.0546 646.711 32.1374 647.438C33.0682 655.674 36.7997 663.139 43.8016 666.698C45.6291 669.137 45.8883 673.307 44.9023 674.552C44.6707 674.846 41.3918 673.762 38.6421 670.608C26.4276 656.61 25.7433 651.703 25.7433 651.703Z" fill="#823264"/>
<path fill-rule="evenodd" clip-rule="evenodd" d="M457.947 690H575.245C576.773 690 578.011 688.76 578.011 687.232C578.011 685.703 576.773 684.463 575.245 684.463H457.947C456.419 684.463 455.18 685.703 455.18 687.232C455.18 688.76 456.419 690 457.947 690Z" fill="#B4D7DC"/>
<path fill-rule="evenodd" clip-rule="evenodd" d="M649.42 690H776.928C778.611 690 779.978 688.633 779.978 686.947C779.978 685.263 778.611 683.896 776.928 683.896H649.42C647.735 683.896 646.37 685.263 646.37 686.947C646.37 688.633 647.735 690 649.42 690Z" fill="#B4D7DC"/>
<path fill-rule="evenodd" clip-rule="evenodd" d="M768.05 608.714C767.566 608.616 767.096 608.519 766.669 608.427C765.522 608.185 764.051 608.21 762.757 608.319C760.583 608.502 758.407 608.106 756.452 607.141L748.35 603.146C744.926 601.46 741.261 604.955 742.78 608.457C742.91 608.757 743.15 608.997 743.447 609.129L753.033 613.379C755.813 614.612 758.258 616.487 760.171 618.85L762.889 622.207C768.667 618.594 767.863 612.063 768.05 608.714Z" fill="#FAB9AF"/>
<path fill-rule="evenodd" clip-rule="evenodd" d="M764.537 636.634C764.928 632.028 762.844 624.402 761.858 621.851C764.329 617.305 764.414 612.423 762.912 608.031C764.18 607.928 765.594 607.905 766.711 608.143C768.246 608.468 771.796 609.017 773.254 609.3C774.283 609.5 775.005 610.418 774.965 611.466C774.965 611.466 770.379 644.683 769.361 644.052C767.597 642.957 764.204 640.561 764.537 636.634Z" fill="#46738C"/>
<path fill-rule="evenodd" clip-rule="evenodd" d="M591.313 575.849C588.739 586.037 570.63 666.191 574.209 666.265C577.311 666.329 610.272 591.48 612.845 581.292C615.419 571.105 612.684 561.627 606.738 560.124C600.792 558.62 593.886 565.66 591.313 575.849Z" fill="#41B5E6"/>
<path fill-rule="evenodd" clip-rule="evenodd" d="M630.974 494.458C622.268 505.076 583.364 574.69 591.609 581.458C599.854 588.227 653.786 530.589 662.492 519.971C671.2 509.353 669.913 494.253 661.668 487.486C653.423 480.718 639.68 483.84 630.974 494.458Z" fill="#41B5E6"/>
<path fill-rule="evenodd" clip-rule="evenodd" d="M578.754 677.401C578.781 676.908 578.807 676.427 578.834 675.991C578.907 674.82 578.664 673.37 578.367 672.105C577.87 669.981 577.942 667.768 578.609 665.69L581.369 657.086C582.536 653.452 578.541 650.335 575.303 652.353C575.026 652.525 574.822 652.797 574.735 653.112L571.939 663.222C571.129 666.154 569.633 668.85 567.578 671.089L564.658 674.271C569.076 679.459 575.415 677.707 578.754 677.401Z" fill="#FAB9AF"/>
<path fill-rule="evenodd" clip-rule="evenodd" d="M550.636 678.018C555.245 677.729 562.48 674.548 564.858 673.198C569.716 674.978 574.553 674.344 578.675 672.216C578.962 673.457 579.194 674.85 579.123 675.992C579.026 677.559 579.004 681.152 578.939 682.636C578.892 683.684 578.089 684.533 577.047 684.65C577.047 684.65 543.534 684.979 544.008 683.88C544.834 681.973 546.704 678.265 550.636 678.018Z" fill="#46738C"/>
<path fill-rule="evenodd" clip-rule="evenodd" d="M612.845 581.292C611.256 587.59 591.576 636.411 580.993 659.156C577.806 657.94 576.025 658.04 572.774 657.018C576.918 635.656 584.334 587.962 586.776 577.672C587.84 563.333 622.903 504.3 630.973 494.458C639.68 483.84 653.422 480.717 661.667 487.487C669.912 494.254 671.2 509.354 662.491 519.972C656.86 526.842 613.92 577.036 612.845 581.292Z" fill="#695A6E"/>
<path fill-rule="evenodd" clip-rule="evenodd" d="M661.668 487.486C653.423 480.718 639.68 483.839 630.974 494.457C630.271 495.314 629.344 496.583 628.269 498.129C636.134 513.786 638.796 531.108 638.382 548.7C649.179 535.739 659.872 523.167 662.492 519.971C671.198 509.353 669.913 494.253 661.668 487.486Z" fill="#614C69"/>
<path fill-rule="evenodd" clip-rule="evenodd" d="M655.056 581.706L655.046 581.698C655.037 581.683 655.031 581.664 655.024 581.651C654.672 580.977 654.41 580.301 654.219 579.623C648.411 562.405 650.073 499.883 651.956 487.197C652.457 483.825 653.46 480.703 654.812 477.888L673.327 487.971C677.976 493.237 683.47 497.896 689.726 501.674C690.667 502.241 689.407 499.779 690.369 500.283C687.7 516.733 684.222 549.361 682.913 565.679C682.615 569.387 684.717 572.859 688.145 574.299C705.4 581.553 736.176 595.648 753.327 604.907L752.742 614.624C727.708 609.374 677.696 594.497 670.103 592.28C662.936 590.188 657.368 586.069 655.056 581.706Z" fill="#828291"/>
<path fill-rule="evenodd" clip-rule="evenodd" d="M639.781 423.829C639.733 424.886 639.665 425.384 639.588 426.094C639.509 426.74 639.422 427.382 639.32 427.999C639.123 429.249 638.887 430.461 638.615 431.662C638.056 434.058 637.421 436.418 636.568 438.715C634.909 443.311 632.648 447.721 629.853 451.799C624.237 459.951 616.056 466.374 607.184 469.827C602.768 471.634 598.206 472.72 593.701 473.367C589.189 474.109 584.708 474.136 580.305 474.039C571.497 473.709 563.035 472.006 554.877 469.731C553.351 469.306 552.461 467.724 552.884 466.197C553.26 464.851 554.533 463.999 555.874 464.107L555.912 464.112C564.04 464.762 572.147 464.826 579.899 463.85C587.602 462.742 595.05 460.818 601.123 457.121C607.231 453.53 611.999 448.576 615.04 442.578C616.596 439.61 617.805 436.425 618.576 433.104C618.993 431.456 619.301 429.772 619.526 428.105C619.639 427.272 619.721 426.436 619.772 425.63C619.802 425.22 619.817 424.831 619.828 424.446C619.834 424.123 619.838 423.587 619.817 423.608C619.877 418.093 624.394 413.671 629.909 413.732C635.421 413.792 639.843 418.312 639.781 423.829Z" fill="#FA968C"/>
<path fill-rule="evenodd" clip-rule="evenodd" d="M609.32 438.26C611.031 434.582 617.665 420.237 618.489 416.744L618.53 416.569C618.596 416.291 618.676 416.01 618.768 415.734C620.508 410.491 626.165 407.652 631.405 409.393C636.645 411.135 639.482 416.797 637.742 422.038C636.11 426.956 634.418 431.036 632.429 435.364C631.074 438.228 629.59 441.035 628.043 443.812C626.335 442.5 609.307 438.288 609.32 438.26Z" fill="#AAC85A"/>
<path fill-rule="evenodd" clip-rule="evenodd" d="M631.379 506.526C639.65 513.355 674.175 511.971 686.986 511.201C690.208 511.006 692.637 508.086 692.103 504.901C690.739 496.771 685.089 482.777 681.691 468.242C676.799 447.3 672.132 424.061 669.678 411.493C668.664 406.31 663.713 402.878 658.507 403.741L627.076 408.942C622.231 409.743 618.81 414.115 619.209 419.011C620.038 429.147 621.477 446.76 622.877 464.028C624.297 481.552 622.554 499.237 631.379 506.526Z" fill="#FAB9AF"/>
<path fill-rule="evenodd" clip-rule="evenodd" d="M626.777 408.991L631.884 408.147C634.342 411.972 638.63 414.53 644.47 413.564C650.316 412.597 653.552 408.791 654.647 404.379L659.307 403.608C664.073 402.819 668.597 405.951 669.522 410.694C671.929 423.056 676.691 446.847 681.691 468.243C685.142 483.011 690.816 496.582 692.089 504.834C692.588 508.068 690.164 511.01 686.9 511.206C674.022 511.978 639.631 513.34 631.38 506.526C622.555 499.238 624.297 481.552 622.876 464.029C621.46 446.586 620.009 428.792 619.185 418.708C618.798 413.981 622.1 409.765 626.777 408.991Z" fill="#82BE50"/>
<path fill-rule="evenodd" clip-rule="evenodd" d="M643.47 391.829L644.058 391.661C648.536 390.375 651.124 385.7 649.841 381.22L646.402 369.23L637.705 371.727L643.47 391.829Z" fill="#CD5014"/>
<path fill-rule="evenodd" clip-rule="evenodd" d="M636.422 409.007L651.58 407.895L652.113 405.714L643.237 389.763L632.71 394.249L636.422 409.007Z" fill="#FAB9AF"/>
<path fill-rule="evenodd" clip-rule="evenodd" d="M632.71 394.248L643.238 389.764L646.803 396.171C645.15 399.628 643.14 403.461 639.168 404.601C637.91 404.962 636.495 404.858 635.275 404.499L632.71 394.248Z" fill="#FA968C"/>
<path fill-rule="evenodd" clip-rule="evenodd" d="M637.963 400.771C645.328 398.658 649.584 390.969 647.472 383.602L643.209 368.738L620.34 375.304C620.34 375.304 623.666 386.906 627.578 394.259C630.512 399.774 634.208 401.849 637.963 400.771Z" fill="#FAB9AF"/>
<path fill-rule="evenodd" clip-rule="evenodd" d="M641.766 375.324L646.065 374.091L646.624 376.04L642.325 377.273L641.766 375.324Z" fill="#CD5014"/>
<path fill-rule="evenodd" clip-rule="evenodd" d="M642.787 381.904C643.618 384.804 645.68 386.756 647.392 386.265C649.103 385.774 649.9 381.432 649.069 378.532C648.238 375.632 646.092 375.273 644.381 375.764C642.668 376.255 641.957 379.004 642.787 381.904Z" fill="#FAB9AF"/>
<path fill-rule="evenodd" clip-rule="evenodd" d="M620.506 381.872C619.441 380.175 618.769 378.259 618.544 376.267C618.544 376.267 616.549 369.657 618.789 367.65C620.826 365.819 625.285 366.136 628.017 365.96C630.021 365.83 635.735 363.74 635.735 363.74C640.374 362.407 645.215 365.09 646.545 369.729L647.062 371.53L644.267 376.12L644.18 379.926L643.876 380.013C642.404 380.437 640.869 379.635 640.364 378.21C639.524 375.861 637.299 374.332 634.902 375.021L628.051 376.988C623.882 378.185 622.356 381.047 623.251 384.168L624.222 386.747L620.506 381.872Z" fill="#CD5014"/>
<path fill-rule="evenodd" clip-rule="evenodd" d="M563.474 416.906L562.084 413.345C564.492 409.716 565.271 405.078 563.854 400.677C561.372 392.964 552.252 388.537 544.667 391.38C536.956 394.269 533.122 402.899 536.108 410.547C537.925 415.197 541.843 418.395 546.348 419.494L547.74 423.057L508.921 438.229C505.538 439.552 503.867 443.366 505.189 446.751L520.217 485.241L518.152 486.047C514.524 483.636 509.89 482.857 505.491 484.276C497.781 486.759 493.357 495.884 496.198 503.473C499.086 511.186 507.712 515.024 515.355 512.037C520.003 510.219 523.199 506.298 524.297 501.789L526.363 500.983L541.391 539.47C542.712 542.855 546.525 544.526 549.908 543.204L642.577 506.983C645.96 505.66 647.63 501.846 646.31 498.461L610.107 405.742C608.785 402.357 604.973 400.686 601.59 402.008L563.474 416.906Z" fill="#FA735F"/>
<path fill-rule="evenodd" clip-rule="evenodd" d="M673.649 412.792C674.969 437.679 661.039 467.2 631.725 474.391C608.424 480.157 583.354 473.713 561.239 464.273C559.783 463.652 559.105 461.966 559.728 460.509C560.274 459.225 561.645 458.547 562.958 458.828L562.996 458.836C593.766 465.366 633.081 469.648 647.639 441.587C655.017 427.79 653.685 411.089 653.717 413.449C653.549 400.518 672.946 399.886 673.649 412.792Z" fill="#FAB9AF"/>
<path fill-rule="evenodd" clip-rule="evenodd" d="M650.713 432.567C653.04 422.021 653.367 413.482 653.373 413.325L653.371 413.625L655.054 406.915C655.054 406.915 658.263 401.538 667.039 403.619C674.05 405.28 674.003 413.248 674.003 413.248C674.022 414.354 676.557 422.323 669.685 439.623C669.685 439.623 650.388 434.044 650.713 432.567Z" fill="#AAC85A"/>
<path fill-rule="evenodd" clip-rule="evenodd" d="M564.636 459.257C562.7 456.997 562.188 449.066 561.098 449.066C560.316 449.066 560.176 451.805 560.159 453.342C560.157 453.523 560.05 453.684 559.887 453.757C559.723 453.831 559.532 453.801 559.398 453.682C557.199 451.745 550.996 446.375 550.356 446.887C549.708 447.406 553.004 451.412 554.126 452.74C554.16 452.781 554.162 452.838 554.128 452.881C554.096 452.921 554.039 452.934 553.992 452.91C552.258 452.032 546.599 449.258 546.467 450.444C546.342 451.573 551.261 454.713 553.182 455.893C553.231 455.923 553.248 455.983 553.227 456.034C553.204 456.085 553.146 456.11 553.093 456.093C550.938 455.455 545.394 453.916 545.269 454.92C545.139 455.942 550.501 458.239 552.428 459.03C552.479 459.051 552.507 459.104 552.494 459.157C552.481 459.21 552.432 459.246 552.379 459.242C550.477 459.093 545.573 458.777 546.329 459.533C547.262 460.469 559.075 464.332 561.721 464.332C564.368 464.332 564.636 459.257 564.636 459.257Z" fill="#FAB9AF"/>
<path fill-rule="evenodd" clip-rule="evenodd" d="M341.781 485.887H354.758V472.903H341.781V485.887Z" fill="#41A0D7"/>
<path fill-rule="evenodd" clip-rule="evenodd" d="M364.746 515.225C364.746 543.369 341.943 566.183 313.817 566.183C285.688 566.183 262.885 543.369 262.885 515.225C262.885 487.081 285.688 464.268 313.817 464.268C341.943 464.268 364.746 487.081 364.746 515.225Z" fill="#05CDFF"/>
<path fill-rule="evenodd" clip-rule="evenodd" d="M298.468 515.378C298.468 517.666 296.613 519.522 294.326 519.522C292.04 519.522 290.187 517.666 290.187 515.378C290.187 513.091 292.04 511.235 294.326 511.235C296.613 511.235 298.468 513.091 298.468 515.378Z" fill="white"/>
<path fill-rule="evenodd" clip-rule="evenodd" d="M316.624 515.378C316.624 517.666 314.771 519.522 312.482 519.522C310.196 519.522 308.343 517.666 308.343 515.378C308.343 513.091 310.196 511.235 312.482 511.235C314.771 511.235 316.624 513.091 316.624 515.378Z" fill="white"/>
<path fill-rule="evenodd" clip-rule="evenodd" d="M334.78 515.378C334.78 517.666 332.927 519.522 330.639 519.522C328.352 519.522 326.499 517.666 326.499 515.378C326.499 513.091 328.352 511.235 330.639 511.235C332.927 511.235 334.78 513.091 334.78 515.378Z" fill="white"/>
</g>
</svg>
