<svg width="39" height="39" fill="none" xmlns="http://www.w3.org/2000/svg"><path d="M24 5l10 10M20 8.06C15.351 6.014 9.752 6.93 5.956 10.816A12.977 12.977 0 0 0 4 13.419L9.455 19M30.904 19C33 23.936 32.09 29.889 28.19 33.931A13.039 13.039 0 0 1 25.591 36L20 30.205" stroke="#2F5BEA" stroke-width="2"/><path clip-rule="evenodd" d="M16.23 32L7 22.77S14.885 3.153 37 2c-1.25 22.019-20.77 30-20.77 30zM1 34a4 4 0 1 1 4 4H1v-4z" stroke="#2F5BEA" stroke-width="2" stroke-linecap="square"/><path clip-rule="evenodd" d="M21.5 21a3.5 3.5 0 1 0 0-7 3.5 3.5 0 0 0 0 7z" stroke="#2F5BEA" stroke-width="2" stroke-linecap="square"/></svg>