<svg width="37" height="37" fill="none" xmlns="http://www.w3.org/2000/svg"><path clip-rule="evenodd" d="M10 18h16v6.222a7.67 7.67 0 0 1-2.343 5.5A8.117 8.117 0 0 1 18 32c-4.418 0-8-3.482-8-7.778V18z" stroke="#2F5BEA" stroke-width="2" stroke-linecap="square"/><path d="M13.5 18v-5M23.5 18v-5M3.83 28C-.928 20.695.432 11.007 7.017 5.289 13.6-.43 23.399-.43 29.983 5.289 36.568 11.007 37.928 20.695 33.17 28M18.5 32v4" stroke="#2F5BEA" stroke-width="2" stroke-linecap="square"/><path d="M8 11c2.431-3.16 6.11-5 10-5 3.89 0 7.569 1.84 10 5" stroke="#2F5BEA" stroke-width="2" stroke-linecap="square"/></svg>