<svg width="780" height="690" viewBox="0 0 780 690" fill="none" xmlns="http://www.w3.org/2000/svg">
<path opacity="0.939848" fill-rule="evenodd" clip-rule="evenodd" d="M686.33 362.4C686.33 530.369 550.168 666.538 382.203 666.538C214.237 666.538 78.0747 530.369 78.0747 362.4C78.0747 194.431 214.237 58.2622 382.203 58.2622C550.168 58.2622 686.33 194.431 686.33 362.4Z" fill="#6EE1FF"/>
<mask id="mask0" mask-type="alpha" maskUnits="userSpaceOnUse" x="0" y="24" width="763" height="622">
<path fill-rule="evenodd" clip-rule="evenodd" d="M0 24.0007H762.495V645.452H0V24.0007Z" fill="white"/>
</mask>
<g mask="url(#mask0)">
<path opacity="0.676107" fill-rule="evenodd" clip-rule="evenodd" d="M751.268 390.607C729.096 348.919 725.243 299.758 740.707 254.459C750.726 225.109 752.292 179.772 744.025 149.687C717.456 53.0317 594.581 -4.55633 476.104 38.4705C367.475 77.9203 340.878 240.682 257.469 222.988C61.2908 181.373 -9.36853 321.21 0.979786 435.045C7.66401 508.576 69.331 599.522 201.058 589.973C239.841 587.161 277.93 596.695 310.751 615.677C366.803 648.094 455.894 655.695 548.446 630.253C687.659 591.985 781.958 493.466 759.072 410.205C757.189 403.349 754.569 396.811 751.268 390.607Z" fill="#7191F8"/>
</g>
<path fill-rule="evenodd" clip-rule="evenodd" d="M581.976 45.1256C582.152 42.1532 587.293 36.0958 586.511 35.3389C585.946 34.7946 583.946 36.6656 582.864 37.7606C582.739 37.8882 582.55 37.9307 582.38 37.869C582.212 37.8074 582.095 37.6543 582.08 37.4736C581.846 34.5522 581.115 26.3793 580.299 26.3028C579.475 26.2241 579.061 31.3949 578.946 33.132C578.942 33.1851 578.901 33.2276 578.85 33.234C578.797 33.2404 578.748 33.2106 578.731 33.1596C578.094 31.3226 575.952 25.3928 575.032 26.1561C574.158 26.879 575.514 32.5579 576.077 34.7436C576.09 34.7967 576.062 34.8542 576.011 34.8733C575.96 34.8946 575.901 34.8733 575.873 34.8265C574.766 32.8683 571.848 27.9059 571.062 28.5395C570.259 29.1858 572.52 34.565 573.357 36.4743C573.378 36.5232 573.361 36.5827 573.315 36.6125C573.268 36.6401 573.208 36.6316 573.172 36.5912C571.908 35.1646 568.601 31.5267 568.62 32.5941C568.642 33.9165 574.451 44.9087 576.355 46.7479C578.257 48.5891 581.976 45.1256 581.976 45.1256Z" fill="#FA968C"/>
<path fill-rule="evenodd" clip-rule="evenodd" d="M634.136 81.9168C630.199 90.6467 624.531 100.563 617.678 107.369C604.346 120.572 587.235 117.122 581.264 86.2456C580.225 81.5936 579.498 76.9607 578.888 72.3363C577.647 63.1003 577.167 53.8919 576.742 44.7112C576.678 43.3207 577.752 42.1428 579.141 42.0769C580.399 42.0195 581.483 42.8955 581.725 44.0925L581.736 44.1435C583.542 53.0563 585.359 61.9522 587.688 70.6056C588.887 74.9153 590.128 79.191 591.575 83.3136C592.828 87.2151 597.869 99.3427 601.787 100.529C601.917 100.508 602.045 100.678 602.119 100.604C602.191 100.538 602.227 100.531 602.272 100.572C602.346 100.474 602.395 100.431 602.459 100.444C602.674 100.27 602.926 100.24 603.392 99.8636C604.246 99.3023 605.415 98.1967 606.524 96.819C608.798 94.1209 610.916 90.5574 612.78 86.8579C616.012 80.5837 617.884 76.0698 617.884 76.0698C621.864 65.1542 638.367 70.3824 634.383 81.3129C634.311 81.5107 634.221 81.7254 634.136 81.9168Z" fill="#FA968C"/>
<path fill-rule="evenodd" clip-rule="evenodd" d="M607.687 93.6654C607.702 93.6441 607.717 93.6229 607.732 93.6016C609.744 90.6548 611.612 87.574 613.333 84.4166C615.039 81.3337 616.778 77.9085 617.995 74.9956L618.055 74.8489C618.153 74.6172 618.261 74.3876 618.382 74.1601C620.645 69.8589 625.962 68.2068 630.261 70.4712C634.56 72.7355 636.211 78.0573 633.948 82.3564C631.825 86.3918 629.77 89.6895 627.424 93.1615C625.834 95.4535 624.145 97.6774 622.405 99.8653C621.108 98.4811 610.783 94.7752 607.687 93.6654Z" fill="#A5A0AA"/>
<path fill-rule="evenodd" clip-rule="evenodd" d="M616.301 154.785C623.953 163.57 668.123 167.238 668.123 167.238C671.383 163.451 666.619 146.246 665.469 128.78C664.226 109.895 663.51 89.0526 663.183 77.7903C663.047 73.1426 659.245 69.4558 654.598 69.4558H626.569C622.247 69.4558 618.651 72.7556 618.294 77.0632C617.559 85.9803 616.28 101.478 615.017 116.671C613.736 132.088 609.686 147.19 616.301 154.785Z" fill="#FAB9AF"/>
<path fill-rule="evenodd" clip-rule="evenodd" d="M641.782 301.601L641.718 318.982L643.227 327.448C643.488 328.913 642.405 330.27 640.917 330.316C633.805 330.533 615.593 331.014 615.107 330.225C612.816 326.519 623.167 325.092 630.738 322.16C638.312 319.226 633.086 290.462 633.086 290.462L641.782 301.601Z" fill="#FA968C"/>
<path fill-rule="evenodd" clip-rule="evenodd" d="M630.738 322.159C630.779 322.145 630.815 322.117 630.853 322.1C632.657 322.774 634.689 323.169 636.977 323.169C638.941 323.169 640.72 322.887 642.324 322.383L643.227 327.447C643.488 328.914 642.405 330.269 640.917 330.315C633.805 330.534 615.594 331.015 615.107 330.224C612.816 326.518 623.167 325.091 630.738 322.159Z" fill="#F57A2F"/>
<path fill-rule="evenodd" clip-rule="evenodd" d="M616.312 161.12C616.038 173.201 620.787 249.851 630.169 250.063C639.549 250.276 650.01 173.972 650.284 161.892C650.559 149.809 643.174 139.843 633.794 139.631C624.413 139.416 616.586 149.039 616.312 161.12Z" fill="#0091C8"/>
<path fill-rule="evenodd" clip-rule="evenodd" d="M643.126 234.141C644.056 240.792 644.207 283.402 642.711 305.046H634.171C629.585 284.05 624.685 243.356 623.773 236.854C623.763 236.769 623.756 236.688 623.746 236.605C618.643 214.017 616.11 170.029 616.312 161.12C616.586 149.037 624.413 139.417 633.795 139.629C643.174 139.844 650.557 149.809 650.283 161.89C650.113 169.476 642.686 230.992 643.126 234.141Z" fill="#FF965A"/>
<path fill-rule="evenodd" clip-rule="evenodd" d="M641.726 267.939C641.932 263.319 641.414 258.816 640.283 254.506C636.934 241.72 636.838 228.391 638.188 215.243C638.3 214.139 638.381 213.029 638.432 211.911C639.204 194.698 629.96 179.055 616.475 169.19C616.33 165.561 616.275 162.75 616.311 161.119C616.585 149.038 624.414 139.418 633.793 139.63C643.175 139.843 650.557 149.81 650.283 161.891C650.111 169.475 642.684 230.991 643.126 234.142C644.057 240.79 644.206 283.401 642.712 305.047H634.172C633.634 302.583 633.092 299.827 632.552 296.908C637.965 288.495 641.252 278.525 641.726 267.939Z" fill="#F07D4B"/>
<path fill-rule="evenodd" clip-rule="evenodd" d="M662.278 301.601L662.214 318.982L663.723 327.448C663.984 328.913 662.901 330.27 661.413 330.316C654.301 330.533 636.089 331.014 635.603 330.225C633.312 326.519 643.663 325.092 651.234 322.16C658.808 319.226 653.582 290.462 653.582 290.462L662.278 301.601Z" fill="#FA968C"/>
<path fill-rule="evenodd" clip-rule="evenodd" d="M651.235 322.159C651.275 322.145 651.311 322.117 651.349 322.1C653.153 322.774 655.185 323.169 657.474 323.169C659.435 323.169 661.216 322.887 662.82 322.383L663.723 327.447C663.985 328.914 662.901 330.269 661.413 330.315C654.301 330.534 636.09 331.015 635.603 330.224C633.312 326.518 643.663 325.091 651.235 322.159Z" fill="#FF8C46"/>
<path fill-rule="evenodd" clip-rule="evenodd" d="M636.808 161.12C636.534 173.201 641.283 249.851 650.665 250.063C660.045 250.276 668.477 173.692 668.751 161.609C669.025 149.528 663.67 139.843 654.29 139.631C644.909 139.416 637.082 149.039 636.808 161.12Z" fill="#0091C8"/>
<path fill-rule="evenodd" clip-rule="evenodd" d="M663.622 234.141C664.552 240.792 664.703 283.402 663.207 305.046H654.667C650.081 284.05 645.179 243.356 644.269 236.854C644.259 236.769 644.252 236.688 644.242 236.605C639.139 214.017 634.577 169.746 634.779 160.838C635.053 148.757 644.909 139.417 654.291 139.629C663.67 139.844 669.023 149.529 668.751 161.609C668.579 169.193 663.18 230.992 663.622 234.141Z" fill="#FFBE82"/>
<path fill-rule="evenodd" clip-rule="evenodd" d="M626.302 69.4565H630.856C632.443 73.1305 635.796 75.969 641.003 75.969C646.217 75.969 649.573 73.1305 651.156 69.4565H655.312C659.562 69.4565 663.041 72.818 663.162 77.0682C663.479 88.1433 664.199 109.484 665.47 128.78C666.617 146.245 671.384 162.476 668.124 167.236C668.124 167.236 623.954 163.569 616.302 154.785C609.687 147.191 613.737 132.089 615.018 116.672C616.293 101.33 617.585 85.677 618.316 76.8045C618.658 72.6458 622.133 69.4565 626.302 69.4565Z" fill="#828291"/>
<path fill-rule="evenodd" clip-rule="evenodd" d="M658.196 94.6066C658.6 85.6002 656.268 77.0126 652.025 69.4563H655.312C659.562 69.4563 663.041 72.8199 663.162 77.0679C663.481 88.1431 664.199 109.483 665.47 128.78C666.617 146.244 671.384 162.476 668.124 167.236C668.124 167.236 623.954 163.571 616.301 154.785C614.559 152.787 613.571 150.257 613.063 147.348C638.722 143.3 657.023 120.816 658.196 94.6066Z" fill="#757582"/>
<path fill-rule="evenodd" clip-rule="evenodd" d="M642.211 59.2498L642.736 59.3668C646.737 60.2576 650.702 57.7339 651.593 53.7303L653.973 43.0166L646.204 41.2881L642.211 59.2498Z" fill="#41378C"/>
<path fill-rule="evenodd" clip-rule="evenodd" d="M635.269 69.4563H649.926L645.699 54.8369L635.709 56.0722L635.269 69.4563Z" fill="#FAB9AF"/>
<path fill-rule="evenodd" clip-rule="evenodd" d="M635.709 56.0734L645.699 54.8359L647.669 61.6503C645.433 64.1719 642.114 68.0883 638.48 68.0883C637.326 68.0883 636.274 67.763 635.331 67.1634L635.709 56.0734Z" fill="#FA968C"/>
<path fill-rule="evenodd" clip-rule="evenodd" d="M634.197 63.8439C640.778 65.3088 647.298 61.1586 648.762 54.5739L651.713 41.2939L631.277 36.7461C631.277 36.7461 628.974 47.1132 628.906 54.4421C628.857 59.9403 630.844 63.0976 634.197 63.8439Z" fill="#FAB9AF"/>
<path fill-rule="evenodd" clip-rule="evenodd" d="M647.83 45.7756L651.67 46.6303L651.283 48.3717L647.443 47.5191L647.83 45.7756Z" fill="#41378C"/>
<path fill-rule="evenodd" clip-rule="evenodd" d="M645.854 51.2914C645.278 53.8832 646.052 56.2581 647.58 56.5983C649.11 56.9385 651.551 53.9194 652.127 51.3276C652.703 48.7358 651.194 47.5558 649.667 47.2156C648.137 46.8754 646.43 48.6997 645.854 51.2914Z" fill="#FAB9AF"/>
<path fill-rule="evenodd" clip-rule="evenodd" d="M628.646 41.893C628.535 40.1325 628.822 38.37 629.485 36.7371C631.128 32.6804 635.667 30.9348 639.798 32.3742C640.219 32.5209 640.667 32.6485 641.139 32.7548L648.037 34.2856C652.182 35.2062 654.796 39.3161 653.874 43.4621L653.517 45.0716L649.428 47.4444L647.76 50.3487L647.49 50.2871C646.175 49.9958 645.327 48.7307 645.531 47.4167C645.871 45.2481 644.794 43.1304 642.652 42.6542L636.532 41.2913C632.805 40.4621 630.422 42.0333 629.804 44.8228L629.47 47.2233L628.646 41.893Z" fill="#41378C"/>
<path d="M648.193 120.696L749.039 682.134" stroke="#5046AF" stroke-width="2.067" stroke-linecap="round"/>
<path d="M665.188 682.134L564.342 120.696" stroke="#5046AF" stroke-width="2.067" stroke-linecap="round"/>
<path d="M571.023 145.705H652.982" stroke="#5046AF" stroke-width="2.067" stroke-linecap="round"/>
<path d="M576.471 183.271H659.573" stroke="#5046AF" stroke-width="2.067" stroke-linecap="round"/>
<path d="M584.046 220.838H666.407" stroke="#5046AF" stroke-width="2.067" stroke-linecap="round"/>
<path d="M591.371 258.404H673.241" stroke="#5046AF" stroke-width="2.067" stroke-linecap="round"/>
<path d="M595.809 295.97H678.627" stroke="#5046AF" stroke-width="2.067" stroke-linecap="round"/>
<path d="M601.551 332.867H685.52" stroke="#5046AF" stroke-width="2.067" stroke-linecap="round"/>
<path d="M609.973 371.103H692.654" stroke="#5046AF" stroke-width="2.067" stroke-linecap="round"/>
<path d="M616.721 408.669H699.628" stroke="#5046AF" stroke-width="2.067" stroke-linecap="round"/>
<path d="M623.392 444.17H706.301" stroke="#5046AF" stroke-width="2.067" stroke-linecap="round"/>
<path d="M629.062 479.671H711.971" stroke="#5046AF" stroke-width="2.067" stroke-linecap="round"/>
<path d="M635.576 515.172H718.485" stroke="#5046AF" stroke-width="2.067" stroke-linecap="round"/>
<path d="M641.903 550.673H724.812" stroke="#5046AF" stroke-width="2.067" stroke-linecap="round"/>
<path d="M648.073 586.174H730.98" stroke="#5046AF" stroke-width="2.067" stroke-linecap="round"/>
<path d="M655.244 621.674H738.153" stroke="#5046AF" stroke-width="2.067" stroke-linecap="round"/>
<path d="M564.342 120.696L462.642 683.412" stroke="#9F9FFF" stroke-width="2.067" stroke-linecap="round"/>
<path d="M546.492 683.411L648.192 120.695" stroke="#9F9FFF" stroke-width="2.067" stroke-linecap="round"/>
<path d="M641.512 145.705H559.793" stroke="#9F9FFF" stroke-width="2.067" stroke-linecap="round"/>
<path d="M636.063 183.271H552.961" stroke="#9F9FFF" stroke-width="2.067" stroke-linecap="round"/>
<path d="M628.489 220.838H546.128" stroke="#9F9FFF" stroke-width="2.067" stroke-linecap="round"/>
<path d="M621.164 258.404H539.294" stroke="#9F9FFF" stroke-width="2.067" stroke-linecap="round"/>
<path d="M615.28 295.97H532.462" stroke="#9F9FFF" stroke-width="2.067" stroke-linecap="round"/>
<path d="M609.719 332.867H525.75" stroke="#9F9FFF" stroke-width="2.067" stroke-linecap="round"/>
<path d="M601.478 371.103H518.796" stroke="#9F9FFF" stroke-width="2.067" stroke-linecap="round"/>
<path d="M595.813 408.669H512.904" stroke="#9F9FFF" stroke-width="2.067" stroke-linecap="round"/>
<path d="M589.432 450.81H506.523" stroke="#9F9FFF" stroke-width="2.067" stroke-linecap="round"/>
<path d="M579.786 492.951H496.877" stroke="#9F9FFF" stroke-width="2.067" stroke-linecap="round"/>
<path d="M572.589 535.091H489.682" stroke="#9F9FFF" stroke-width="2.067" stroke-linecap="round"/>
<path d="M565.799 577.232H482.89" stroke="#9F9FFF" stroke-width="2.067" stroke-linecap="round"/>
<path d="M556.97 619.781H474.061" stroke="#9F9FFF" stroke-width="2.067" stroke-linecap="round"/>
<path fill-rule="evenodd" clip-rule="evenodd" d="M649.284 37.0519C649.751 40.8407 636.143 45.6394 632.556 46.0838C628.966 46.5261 625.677 43.8152 625.209 40.0264C624.742 36.2397 627.273 32.8081 630.862 32.3659C634.451 31.9215 648.816 33.2631 649.284 37.0519Z" fill="#41378C"/>
<path fill-rule="evenodd" clip-rule="evenodd" d="M461.241 42.8025C456.887 43.5722 453.98 47.7309 454.749 52.0874L462.151 93.9705L464.928 93.4794C467.493 87.9854 473.06 84.0201 479.928 84.0818C486.429 84.1413 492.417 88.2831 494.748 94.3554C498.548 104.246 492.345 114.59 482.464 116.338C477.047 117.294 471.79 115.438 468.169 111.826L465.393 112.317L473.579 158.65C474.35 163.007 478.505 165.915 482.859 165.144L524.719 157.74L524.211 154.864C518.72 152.297 514.757 146.727 514.821 139.853C514.878 133.349 519.018 127.36 525.087 125.027C534.972 121.226 545.31 127.432 547.057 137.316C548.013 142.738 546.158 147.996 542.548 151.619L543.058 154.496L589.364 146.304C593.718 145.534 596.625 141.377 595.856 137.019L577.026 30.4581C576.255 26.0994 572.1 23.193 567.744 23.9627L461.241 42.8025Z" fill="#5046AF"/>
<path fill-rule="evenodd" clip-rule="evenodd" d="M664.832 83.7529C660.319 89.9081 652.582 98.0045 643.317 104.995C614.982 125.67 584.658 127.76 559.927 104.357C558.916 103.401 558.871 101.804 559.83 100.792C560.648 99.9266 561.931 99.7671 562.919 100.339L563.034 100.405C579.161 109.718 593.602 113.542 611.782 105.899C635.613 95.6232 652.524 70.9003 650.743 73.2603C653.667 69.3865 659.173 68.619 663.045 71.5445C666.881 74.4425 667.665 79.8854 664.832 83.7529Z" fill="#FAB9AF"/>
<path fill-rule="evenodd" clip-rule="evenodd" d="M637.741 87.455C643.642 82.1566 651.145 71.715 651.145 71.715C651.145 71.715 654.703 67.5095 662.023 70.5754C667.869 73.0269 666.686 79.9369 666.686 79.9369C666.543 80.8979 664.59 92.2983 651.148 102.381C651.148 102.381 636.751 88.3437 637.741 87.455Z" fill="#A5A0AA"/>
<path fill-rule="evenodd" clip-rule="evenodd" d="M564.714 101.468C562.778 99.2076 562.266 91.2771 561.176 91.2771C560.394 91.2771 560.253 94.0156 560.236 95.5528C560.234 95.7335 560.128 95.8951 559.964 95.9674C559.801 96.0418 559.61 96.012 559.476 95.8929C557.276 93.956 551.073 88.5854 550.434 89.0978C549.786 89.6165 553.082 93.6222 554.204 94.9511C554.238 94.9915 554.24 95.0489 554.206 95.0914C554.174 95.1318 554.116 95.1445 554.07 95.1212C552.336 94.2431 546.677 91.4684 546.545 92.6548C546.42 93.7838 551.339 96.9241 553.26 98.1041C553.309 98.1339 553.326 98.1934 553.305 98.2445C553.281 98.2955 553.224 98.321 553.171 98.3061C551.016 97.6683 545.472 96.1268 545.347 97.1304C545.219 98.1531 550.578 100.449 552.506 101.24C552.557 101.261 552.584 101.315 552.572 101.368C552.559 101.421 552.51 101.457 552.457 101.453C550.555 101.304 545.65 100.987 546.407 101.744C547.34 102.68 559.153 106.543 561.798 106.543C564.446 106.543 564.714 101.468 564.714 101.468Z" fill="#FAB9AF"/>
<mask id="mask1" mask-type="alpha" maskUnits="userSpaceOnUse" x="0" y="0" width="780" height="690">
<path fill-rule="evenodd" clip-rule="evenodd" d="M0 689.971H779.977V0H0V689.971Z" fill="white"/>
</mask>
<g mask="url(#mask1)">
<path fill-rule="evenodd" clip-rule="evenodd" d="M103.8 576.728H664.203V235.563H103.8V576.728Z" fill="#5046AF"/>
<path fill-rule="evenodd" clip-rule="evenodd" d="M132.226 551.176H635.779V261.111H132.226V551.176Z" fill="white"/>
<path fill-rule="evenodd" clip-rule="evenodd" d="M165.015 519.071H294.047V334.089H165.015V519.071Z" stroke="#827DDC" stroke-width="0.988"/>
<path fill-rule="evenodd" clip-rule="evenodd" d="M323.145 519.071H452.177V334.089H323.145V519.071Z" stroke="#827DDC" stroke-width="0.988"/>
<path fill-rule="evenodd" clip-rule="evenodd" d="M481.274 519.071H610.306V334.089H481.274V519.071Z" stroke="#827DDC" stroke-width="0.988"/>
<path fill-rule="evenodd" clip-rule="evenodd" d="M132.226 265.835H635.779V261.111H132.226V265.835Z" fill="#A5C8CD"/>
<path fill-rule="evenodd" clip-rule="evenodd" d="M336.203 373.782H437.761V349.967H336.203V373.782Z" fill="#C8E6EB"/>
<path fill-rule="evenodd" clip-rule="evenodd" d="M336.203 409.506H437.761V385.691H336.203V409.506Z" fill="#C8E6EB"/>
<path fill-rule="evenodd" clip-rule="evenodd" d="M336.203 445.229H437.761V421.414H336.203V445.229Z" fill="#C8E6EB"/>
<path fill-rule="evenodd" clip-rule="evenodd" d="M336.203 480.953H437.761V457.138H336.203V480.953Z" fill="#C8E6EB"/>
<path fill-rule="evenodd" clip-rule="evenodd" d="M164.821 314.243H610.727V288.047H164.821V314.243Z" fill="#C8E6EB"/>
<path fill-rule="evenodd" clip-rule="evenodd" d="M28.4306 687.615H216.393C217.921 687.615 219.16 686.375 219.16 684.847C219.16 683.318 217.921 682.078 216.393 682.078H28.4306C26.9027 682.078 25.6638 683.318 25.6638 684.847C25.6638 686.375 26.9027 687.615 28.4306 687.615Z" fill="#B4D7DC"/>
<path fill-rule="evenodd" clip-rule="evenodd" d="M54.2969 626.865C54.2969 626.865 42.7943 640.11 40.6821 642.22C38.9374 643.961 36.4639 644.594 34.0924 645.262C33.3338 645.475 32.3457 646.255 31.5106 646.912C30.8391 647.437 30.5331 648.26 30.5479 649.113C30.8199 664.023 43.7909 674.475 44.4837 673.604C45.7289 672.028 44.7791 667.661 42.2992 664.78C39.8023 661.882 39.1967 657.796 40.3102 654.135C41.1963 651.222 42.8177 648.587 45.0171 646.485L55.0194 637.117L54.2969 626.865Z" fill="#FA968C"/>
<path fill-rule="evenodd" clip-rule="evenodd" d="M171.876 645.703L181.026 661.001C183.822 665.676 184.851 671.213 183.927 676.583C183.927 676.585 183.927 676.588 183.927 676.588C183.404 679.592 185.658 682.358 188.706 682.435C198.555 682.679 217.618 683.034 218.169 682.137C220.97 677.561 208.912 675.514 199.443 672.306C193.058 670.141 185.199 652.845 180.218 639.235L172.753 643.966C172.177 644.353 171.846 645.01 171.876 645.703Z" fill="#FA968C"/>
<path fill-rule="evenodd" clip-rule="evenodd" d="M199.258 677.573C203.304 677.573 207.433 676.644 211.247 675.889C211.685 675.802 212.142 675.834 212.562 675.982C216.976 677.552 219.654 679.71 218.168 682.136C217.571 683.111 195.148 682.608 186.389 682.374C184.559 682.325 183.216 680.662 183.531 678.855L184.104 675.568C189.056 676.829 194.132 677.573 199.258 677.573Z" fill="#823264"/>
<path fill-rule="evenodd" clip-rule="evenodd" d="M139.137 472.944C129.022 470.918 116.939 479.208 114.332 492.234C112.833 499.721 110.626 527.609 110.94 550.368C111.059 559.104 106.869 567.507 99.4098 572.048C98.1943 572.788 97.0808 573.602 96.1118 574.487C91.1202 579.047 67.9067 608.163 53.3568 627.915C52.9021 631.004 53.359 635.276 55.0845 637.306C73.708 622.704 105.29 595.21 110.598 590.361C113.547 587.667 116.843 584.512 119.525 581.405C130.966 573.734 149.536 515.161 151.955 503.074C154.562 490.047 149.252 474.97 139.137 472.944Z" fill="#FFAA50"/>
<path fill-rule="evenodd" clip-rule="evenodd" d="M148.561 388.479C148.561 399.697 141.516 408.791 132.825 408.791C124.134 408.791 117.09 399.697 117.09 388.479C117.09 377.262 124.134 368.168 132.825 368.168C141.516 368.168 148.561 377.262 148.561 388.479Z" fill="#9B14AA"/>
<path fill-rule="evenodd" clip-rule="evenodd" d="M129.051 390.575C128.8 379.332 119.703 369.883 108.483 369.241C98.5294 368.674 89.9359 374.776 86.7187 383.489C85.5903 386.542 82.6004 388.53 79.3471 388.481C77.9956 388.462 76.6058 388.585 75.1906 388.876C66.9668 390.562 60.5833 397.511 59.7163 405.864C58.9364 413.402 62.4597 420.161 68.1249 424.017C70.5389 425.663 71.9138 428.389 72.3133 431.285C74.1684 444.684 86.3957 454.526 100.344 452.999C112.276 451.692 121.824 441.869 122.839 429.905C123.462 422.565 120.944 415.834 116.515 410.835C124.061 407.266 129.251 399.526 129.051 390.575Z" fill="#9B14AA"/>
<path fill-rule="evenodd" clip-rule="evenodd" d="M267.737 393.414C263.763 392.564 260.106 394.258 258.066 397.167H255.707V375.414C255.707 371.425 252.475 368.194 248.489 368.194H224.16V365.776C227.069 363.735 228.762 360.076 227.912 356.1C227.179 352.675 224.43 349.87 221.017 349.09C214.922 347.7 209.516 352.294 209.516 358.154C209.516 361.309 211.087 364.092 213.486 365.776V368.194H191.745C187.758 368.194 184.528 371.425 184.528 375.414V397.167H186.146C188.186 394.258 191.841 392.564 195.814 393.414C199.238 394.145 202.041 396.897 202.82 400.311C204.212 406.409 199.62 411.82 193.764 411.82C190.61 411.82 187.829 410.247 186.146 407.846H184.528V432.189C184.528 436.177 187.758 439.411 191.745 439.411H213.486V437.736C210.579 435.695 208.885 432.036 209.735 428.06C210.468 424.634 213.218 421.83 216.631 421.05C222.725 419.659 228.131 424.254 228.131 430.114C228.131 433.269 226.559 436.052 224.16 437.736V439.411H248.489C252.475 439.411 255.707 436.177 255.707 432.189V407.846H258.066C259.749 410.247 262.531 411.82 265.684 411.82C271.541 411.82 276.133 406.411 274.743 400.313C273.963 396.899 271.16 394.148 267.737 393.414Z" fill="#05CDFF"/>
<path fill-rule="evenodd" clip-rule="evenodd" d="M132.825 361.506C132.825 361.506 141.68 367.08 140.603 374.592C140.603 374.592 145.331 371.241 146.402 359.701C147.141 351.702 132.825 361.506 132.825 361.506Z" fill="#9B14AA"/>
<path fill-rule="evenodd" clip-rule="evenodd" d="M154.012 407.272C153.836 410.804 154.027 414.416 154.533 417.924C155.013 421.415 155.836 424.883 157.04 427.758C157.631 429.195 158.305 430.428 158.932 431.366C159.571 432.301 160.056 432.599 159.967 432.703C159.841 432.792 159.76 433.079 160.579 432.799C160.929 432.748 161.437 432.335 161.953 432.054C162.478 431.625 163.044 431.181 163.602 430.632C165.855 428.353 168.046 425.2 169.914 421.794C171.818 418.402 173.55 414.773 175.173 411.052C178.371 403.585 181.17 395.778 183.762 387.873L183.771 387.852C184.247 386.395 185.815 385.604 187.269 386.081C188.558 386.504 189.328 387.786 189.153 389.085C188.034 397.466 186.642 405.854 184.508 414.222C184.024 416.323 183.356 418.407 182.778 420.509C182.075 422.595 181.433 424.692 180.592 426.782C179.002 430.968 177.069 435.165 174.045 439.368C173.267 440.417 172.355 441.461 171.395 442.49C170.279 443.51 169.249 444.531 167.716 445.42L166.635 446.083C166.248 446.293 165.787 446.47 165.358 446.653C164.463 446.999 163.643 447.386 162.585 447.548C160.604 448.005 158.362 448.005 156.331 447.567C152.176 446.655 149.152 444.35 147.019 442.192C144.9 439.983 143.285 437.691 141.991 435.401C137.036 426.225 135.147 416.923 134.698 407.272L134.696 407.24C134.45 401.904 138.572 397.375 143.908 397.128C149.242 396.882 153.766 401.006 154.014 406.343C154.027 406.651 154.027 406.97 154.012 407.272Z" fill="#FAB9AF"/>
<path fill-rule="evenodd" clip-rule="evenodd" d="M142.735 446.19C146.278 435.508 153.405 412.89 152.795 405.497C152.404 400.762 148.45 397.135 143.7 397.135H112.883C107.775 397.135 103.595 401.187 103.446 406.299C103.185 415.229 107.297 435.552 109.611 446.19H142.735Z" fill="#FAB9AF"/>
<path fill-rule="evenodd" clip-rule="evenodd" d="M136.66 494.414C140.205 507.218 169.018 598.234 159.075 600.99C149.134 603.743 95.0232 514.88 94.3326 501.613C93.6781 489.028 100.967 475.395 110.91 472.64C120.85 469.884 133.116 481.61 136.66 494.414Z" fill="#FAB9AF"/>
<path fill-rule="evenodd" clip-rule="evenodd" d="M181.214 642.858C181.582 642.427 181.667 641.819 181.473 641.285C173.77 619.949 163.43 592.921 161.224 587.816C160.973 587.232 160.706 586.662 160.425 586.107C156.664 559.124 139.356 504.152 136.661 494.414C133.117 481.611 120.851 469.885 110.908 472.64C100.968 475.394 93.6768 489.029 94.3334 501.614C94.7648 509.918 116.123 547.836 134.481 574.368C138.346 579.954 140.773 586.366 141.955 593.057C142.771 597.684 144.075 602.298 145.533 605.672C147.705 610.698 160.438 629.876 171.813 646.141C172.14 646.611 172.695 646.887 173.267 646.83C176.284 646.522 179.136 645.299 181.214 642.858Z" fill="#FAC855"/>
<path fill-rule="evenodd" clip-rule="evenodd" d="M106.086 459.731C107.679 455.253 108.16 450.461 107.49 445.753C105.935 434.827 103.217 414.242 103.468 405.503C103.602 400.832 107.427 397.135 112.097 397.135H116.668C118.409 401.174 122.095 404.293 127.829 404.293C133.553 404.293 137.242 401.174 138.985 397.135H143.275C138.613 407.123 140.29 420.301 148.312 427.989C146.82 433.262 145.566 438.567 144.629 442.868C143.358 448.692 143.919 454.762 146.212 460.264C150.15 469.721 153.271 484.887 152.343 490.898C119.926 500.091 97.5092 483.822 97.5092 483.822L106.086 459.731Z" fill="#39AE96"/>
<path fill-rule="evenodd" clip-rule="evenodd" d="M144.629 442.867C144.945 441.417 145.311 439.825 145.695 438.184C141.031 437.018 136.443 435.488 131.968 433.525C122.541 429.392 110.503 422.678 103.737 413.416C103.924 416.076 104.188 419.001 104.504 422.04C107.832 429.804 111.4 437.301 117.947 443.138C125.784 450.126 135.33 454.748 145.319 457.778C143.806 452.962 143.547 447.828 144.629 442.867Z" fill="#1C9585"/>
<path fill-rule="evenodd" clip-rule="evenodd" d="M132.825 399.258L118.845 397.788L123.269 382.482L132.311 383.603L132.825 399.258Z" fill="#FAB9AF"/>
<path fill-rule="evenodd" clip-rule="evenodd" d="M132.311 383.602L123.269 382.482L121.888 387.261C123.913 389.545 126.514 394.477 129.804 394.477C130.847 394.477 131.799 394.182 132.653 393.64L132.311 383.602Z" fill="#FA968C"/>
<path fill-rule="evenodd" clip-rule="evenodd" d="M132.623 391.001C129.552 391.001 126.231 389.464 121.658 385.465C119.031 383.17 117.087 379.167 117.087 376.462V361.505H140.101C140.101 361.505 141.828 369.448 140.152 377.328C138.894 383.241 135.037 391.001 132.623 391.001Z" fill="#FAB9AF"/>
<path fill-rule="evenodd" clip-rule="evenodd" d="M120.989 373.634C120.989 376.553 119.593 378.917 117.871 378.917C116.148 378.917 114.248 375.092 114.248 372.175C114.248 369.256 116.148 368.35 117.871 368.35C119.593 368.35 120.989 370.715 120.989 373.634Z" fill="#FAB9AF"/>
<path fill-rule="evenodd" clip-rule="evenodd" d="M114.249 363.317C114.249 358.646 118.034 354.862 122.702 354.864L130.469 354.866C132.692 354.866 134.847 354.286 136.736 353.212C139.477 351.656 142.941 352.174 144.811 354.713C146.832 357.456 147.707 361.13 142.582 364.532C140.034 366.222 136.309 364.349 133.827 365.161C133.674 365.154 133.538 365.129 133.378 365.129H126.531C124.151 365.129 122.332 367.074 122.262 369.456C122.22 370.959 120.987 372.167 119.472 372.167H119.168L118.072 368.652L114.249 373.808V363.317Z" fill="#9B14AA"/>
<path fill-rule="evenodd" clip-rule="evenodd" d="M189.871 379.835C189.871 379.835 191.48 387.784 189.216 389.079C186.953 390.376 185.198 390.831 183.19 387.606C181.182 384.382 179.964 379.001 179.877 375.629C179.792 372.257 182.034 366.544 182.678 366.091C185.022 364.441 184.535 370.567 184.444 373.543C184.352 376.522 184.546 379.894 185.991 379.533C187.436 379.171 187.181 373.454 188.698 372.493C190.217 371.532 189.871 379.835 189.871 379.835Z" fill="#FAB9AF"/>
<path fill-rule="evenodd" clip-rule="evenodd" d="M224.208 433.904C224.208 433.904 216.207 432.597 214.998 434.908C213.791 437.219 213.402 438.992 216.698 440.878C219.994 442.764 225.415 443.778 228.787 443.735C232.158 443.695 237.778 441.237 238.208 440.576C239.765 438.171 233.666 438.888 230.696 439.092C227.725 439.296 224.35 439.23 224.656 437.772C224.962 436.315 230.681 436.353 231.584 434.799C232.487 433.243 224.208 433.904 224.208 433.904Z" fill="#FAB9AF"/>
<path fill-rule="evenodd" clip-rule="evenodd" d="M138.386 361.244C137.614 364.66 138.753 366.529 127.559 371.862C116.364 377.196 112.822 374.917 109.326 380.66C109.326 380.66 110.854 371.147 117.036 367.884C123.22 364.618 133.942 362.485 137.381 354.927C137.381 354.927 138.913 358.909 138.386 361.244Z" fill="#9B14AA"/>
<path fill-rule="evenodd" clip-rule="evenodd" d="M119.024 405.805C119.019 405.724 119.009 405.645 118.987 405.569L119.043 405.733L119.143 406.109C119.281 406.447 119.421 406.794 119.54 407.142C119.859 407.861 120.201 408.641 120.622 409.394C121.132 410.136 121.508 410.931 122.081 411.665C122.672 412.394 123.274 413.115 123.824 413.886C125.25 415.239 126.44 416.793 128.174 417.986L130.603 419.916L133.355 421.585C140.743 426.105 149.719 429.04 158.999 431.31C161.349 431.795 163.746 432.171 166.128 432.614C168.519 433.022 170.897 433.551 173.358 433.706L180.704 434.431L184.393 434.848L188.116 435.012L195.592 435.344C198.091 435.473 200.592 435.575 203.106 435.52C208.131 435.522 213.17 435.452 218.25 435.531L218.406 435.533C219.936 435.556 221.157 436.815 221.132 438.346C221.113 439.666 220.171 440.755 218.933 441.016C213.903 442.073 208.832 442.983 203.749 443.965C201.214 444.522 198.639 444.754 196.061 445.052L188.309 445.932L184.42 446.37L180.493 446.538L172.614 446.77C169.985 446.931 167.329 446.708 164.669 446.595C162.01 446.451 159.341 446.368 156.666 446.161C145.973 444.956 135.04 442.658 124.578 437.378L120.696 435.299C119.442 434.487 118.21 433.602 116.971 432.741C114.436 431.138 112.204 428.876 109.901 426.794C108.834 425.606 107.816 424.368 106.79 423.139C105.785 421.887 104.931 420.439 104.021 419.079C103.165 417.643 102.404 416.117 101.686 414.526L100.74 411.994L100.332 410.534L100.137 409.779L99.9135 408.609C99.14 403.328 102.791 398.421 108.067 397.647C113.343 396.873 118.25 400.526 119.024 405.805Z" fill="#FAB9AF"/>
<path fill-rule="evenodd" clip-rule="evenodd" d="M136.233 361.88C136.233 361.88 136.658 373.389 146.709 378.917C146.709 378.917 142.281 370.219 142.583 364.531C142.884 358.842 135.57 357.949 136.233 361.88Z" fill="#9B14AA"/>
<path fill-rule="evenodd" clip-rule="evenodd" d="M25.7433 651.674C25.3651 650.732 25.7221 649.66 26.5933 649.141C27.3052 648.718 29.2134 647.54 30.6499 646.656C31.2726 646.273 32.0546 646.681 32.1374 647.409C33.0682 655.645 36.7997 663.11 43.8016 666.669C45.6291 669.108 45.8883 673.278 44.9023 674.523C44.6707 674.817 41.3918 673.733 38.6421 670.579C26.4276 656.581 25.7433 651.674 25.7433 651.674Z" fill="#823264"/>
<path fill-rule="evenodd" clip-rule="evenodd" d="M457.947 689.971H575.245C576.773 689.971 578.011 688.731 578.011 687.203C578.011 685.674 576.773 684.434 575.245 684.434H457.947C456.419 684.434 455.18 685.674 455.18 687.203C455.18 688.731 456.419 689.971 457.947 689.971Z" fill="#B4D7DC"/>
<path fill-rule="evenodd" clip-rule="evenodd" d="M649.42 689.971H776.928C778.611 689.971 779.978 688.604 779.978 686.918C779.978 685.234 778.611 683.867 776.928 683.867H649.42C647.735 683.867 646.37 685.234 646.37 686.918C646.37 688.604 647.735 689.971 649.42 689.971Z" fill="#B4D7DC"/>
<path fill-rule="evenodd" clip-rule="evenodd" d="M768.05 608.685C767.566 608.587 767.096 608.49 766.669 608.398C765.522 608.156 764.051 608.181 762.757 608.29C760.583 608.472 758.407 608.077 756.452 607.112L748.35 603.117C744.926 601.431 741.261 604.926 742.78 608.428C742.91 608.728 743.15 608.968 743.447 609.1L753.033 613.35C755.813 614.583 758.258 616.458 760.171 618.82L762.889 622.178C768.667 618.565 767.863 612.034 768.05 608.685Z" fill="#FAB9AF"/>
<path fill-rule="evenodd" clip-rule="evenodd" d="M764.537 636.605C764.928 631.999 762.844 624.373 761.858 621.821C764.329 617.276 764.414 612.394 762.912 608.001C764.18 607.899 765.594 607.876 766.711 608.114C768.246 608.439 771.796 608.988 773.254 609.271C774.283 609.471 775.005 610.389 774.965 611.437C774.965 611.437 770.379 644.654 769.361 644.023C767.597 642.928 764.204 640.532 764.537 636.605Z" fill="#46738C"/>
<path fill-rule="evenodd" clip-rule="evenodd" d="M591.313 575.82C588.739 586.008 570.63 666.162 574.209 666.236C577.311 666.3 610.272 591.451 612.845 581.263C615.419 571.076 612.684 561.598 606.738 560.095C600.792 558.591 593.886 565.631 591.313 575.82Z" fill="#41B5E6"/>
<path fill-rule="evenodd" clip-rule="evenodd" d="M630.974 494.428C622.268 505.046 583.364 574.661 591.609 581.429C599.854 588.198 653.786 530.56 662.492 519.942C671.2 509.324 669.913 494.224 661.668 487.457C653.423 480.689 639.68 483.81 630.974 494.428Z" fill="#41B5E6"/>
<path fill-rule="evenodd" clip-rule="evenodd" d="M578.754 677.372C578.781 676.879 578.807 676.398 578.834 675.962C578.907 674.791 578.664 673.341 578.367 672.076C577.87 669.952 577.942 667.738 578.609 665.661L581.369 657.057C582.536 653.423 578.541 650.306 575.303 652.324C575.026 652.496 574.822 652.768 574.735 653.083L571.939 663.193C571.129 666.125 569.633 668.821 567.578 671.06L564.658 674.242C569.076 679.43 575.415 677.678 578.754 677.372Z" fill="#FAB9AF"/>
<path fill-rule="evenodd" clip-rule="evenodd" d="M550.636 677.989C555.245 677.7 562.48 674.519 564.858 673.169C569.716 674.949 574.553 674.315 578.675 672.187C578.962 673.428 579.194 674.821 579.123 675.963C579.026 677.53 579.004 681.123 578.939 682.607C578.892 683.655 578.089 684.504 577.047 684.621C577.047 684.621 543.534 684.95 544.008 683.851C544.834 681.944 546.704 678.236 550.636 677.989Z" fill="#46738C"/>
<path fill-rule="evenodd" clip-rule="evenodd" d="M612.845 581.263C611.256 587.561 591.576 636.382 580.993 659.127C577.806 657.911 576.025 658.011 572.774 656.989C576.918 635.627 584.334 587.933 586.776 577.643C587.84 563.304 622.903 504.271 630.973 494.429C639.68 483.811 653.422 480.688 661.667 487.458C669.912 494.225 671.2 509.325 662.491 519.943C656.86 526.813 613.92 577.007 612.845 581.263Z" fill="#695A6E"/>
<path fill-rule="evenodd" clip-rule="evenodd" d="M661.668 487.457C653.423 480.689 639.68 483.81 630.974 494.428C630.271 495.285 629.344 496.554 628.269 498.1C636.134 513.757 638.796 531.079 638.382 548.671C649.179 535.71 659.872 523.138 662.492 519.942C671.198 509.324 669.913 494.224 661.668 487.457Z" fill="#614C69"/>
<path fill-rule="evenodd" clip-rule="evenodd" d="M655.056 581.677L655.046 581.669C655.037 581.654 655.031 581.635 655.024 581.622C654.672 580.948 654.41 580.272 654.219 579.594C648.411 562.376 650.073 499.854 651.956 487.168C652.457 483.796 653.46 480.674 654.812 477.859L673.327 487.942C677.976 493.208 683.47 497.866 689.726 501.645C690.667 502.212 689.407 499.75 690.369 500.254C687.7 516.704 684.222 549.332 682.913 565.65C682.615 569.358 684.717 572.83 688.145 574.27C705.4 581.524 736.176 595.619 753.327 604.878L752.742 614.594C727.708 609.345 677.696 594.468 670.103 592.251C662.936 590.159 657.368 586.04 655.056 581.677Z" fill="#828291"/>
<path fill-rule="evenodd" clip-rule="evenodd" d="M639.781 423.8C639.733 424.857 639.665 425.355 639.588 426.065C639.509 426.711 639.422 427.353 639.32 427.97C639.123 429.22 638.887 430.432 638.615 431.633C638.056 434.029 637.421 436.389 636.568 438.686C634.909 443.282 632.648 447.692 629.853 451.77C624.237 459.922 616.056 466.345 607.184 469.798C602.768 471.605 598.206 472.691 593.701 473.338C589.189 474.08 584.708 474.107 580.305 474.01C571.497 473.68 563.035 471.977 554.877 469.702C553.351 469.277 552.461 467.695 552.884 466.168C553.26 464.822 554.533 463.97 555.874 464.078L555.912 464.082C564.04 464.733 572.147 464.797 579.899 463.821C587.602 462.713 595.05 460.789 601.123 457.092C607.231 453.501 611.999 448.547 615.04 442.549C616.596 439.581 617.805 436.396 618.576 433.075C618.993 431.427 619.301 429.743 619.526 428.076C619.639 427.243 619.721 426.407 619.772 425.601C619.802 425.191 619.817 424.802 619.828 424.417C619.834 424.094 619.838 423.558 619.817 423.579C619.877 418.064 624.394 413.642 629.909 413.703C635.421 413.763 639.843 418.283 639.781 423.8Z" fill="#FA968C"/>
<path fill-rule="evenodd" clip-rule="evenodd" d="M609.32 438.231C611.031 434.553 617.665 420.208 618.489 416.715L618.53 416.54C618.596 416.262 618.676 415.981 618.768 415.705C620.508 410.462 626.165 407.623 631.405 409.364C636.645 411.106 639.482 416.768 637.742 422.009C636.11 426.926 634.418 431.007 632.429 435.335C631.074 438.199 629.59 441.006 628.043 443.783C626.335 442.471 609.307 438.259 609.32 438.231Z" fill="#AAC85A"/>
<path fill-rule="evenodd" clip-rule="evenodd" d="M631.379 506.497C639.65 513.326 674.175 511.942 686.986 511.172C690.208 510.977 692.637 508.057 692.103 504.872C690.739 496.742 685.089 482.748 681.691 468.213C676.799 447.271 672.132 424.032 669.678 411.464C668.664 406.281 663.713 402.849 658.507 403.712L627.076 408.913C622.231 409.714 618.81 414.086 619.209 418.982C620.038 429.118 621.477 446.731 622.877 463.999C624.297 481.523 622.554 499.208 631.379 506.497Z" fill="#FAB9AF"/>
<path fill-rule="evenodd" clip-rule="evenodd" d="M626.777 408.962L631.884 408.118C634.342 411.943 638.63 414.501 644.47 413.535C650.316 412.568 653.552 408.762 654.647 404.35L659.307 403.579C664.073 402.79 668.597 405.922 669.522 410.665C671.929 423.026 676.691 446.818 681.691 468.214C685.142 482.982 690.816 496.553 692.089 504.805C692.588 508.039 690.164 510.981 686.9 511.177C674.022 511.949 639.631 513.311 631.38 506.497C622.555 499.209 624.297 481.523 622.876 464C621.46 446.557 620.009 428.763 619.185 418.678C618.798 413.952 622.1 409.736 626.777 408.962Z" fill="#82BE50"/>
<path fill-rule="evenodd" clip-rule="evenodd" d="M643.47 391.8L644.058 391.632C648.536 390.346 651.124 385.671 649.841 381.191L646.402 369.201L637.705 371.698L643.47 391.8Z" fill="#CD5014"/>
<path fill-rule="evenodd" clip-rule="evenodd" d="M636.422 408.978L651.58 407.866L652.113 405.685L643.237 389.734L632.71 394.22L636.422 408.978Z" fill="#FAB9AF"/>
<path fill-rule="evenodd" clip-rule="evenodd" d="M632.71 394.219L643.238 389.735L646.803 396.141C645.15 399.599 643.14 403.432 639.168 404.572C637.91 404.933 636.495 404.829 635.275 404.47L632.71 394.219Z" fill="#FA968C"/>
<path fill-rule="evenodd" clip-rule="evenodd" d="M637.963 400.742C645.328 398.628 649.584 390.94 647.472 383.573L643.209 368.709L620.34 375.275C620.34 375.275 623.666 386.877 627.578 394.229C630.512 399.745 634.208 401.82 637.963 400.742Z" fill="#FAB9AF"/>
<path fill-rule="evenodd" clip-rule="evenodd" d="M641.766 375.295L646.065 374.062L646.624 376.011L642.325 377.244L641.766 375.295Z" fill="#CD5014"/>
<path fill-rule="evenodd" clip-rule="evenodd" d="M642.787 381.875C643.618 384.775 645.68 386.727 647.392 386.236C649.103 385.745 649.9 381.403 649.069 378.503C648.238 375.603 646.092 375.244 644.381 375.735C642.668 376.226 641.957 378.975 642.787 381.875Z" fill="#FAB9AF"/>
<path fill-rule="evenodd" clip-rule="evenodd" d="M620.506 381.843C619.441 380.146 618.769 378.23 618.544 376.238C618.544 376.238 616.549 369.628 618.789 367.621C620.826 365.79 625.285 366.107 628.017 365.931C630.021 365.801 635.735 363.711 635.735 363.711C640.374 362.378 645.215 365.061 646.545 369.7L647.062 371.501L644.267 376.091L644.18 379.897L643.876 379.984C642.404 380.408 640.869 379.606 640.364 378.181C639.524 375.832 637.299 374.303 634.902 374.992L628.051 376.959C623.882 378.156 622.356 381.018 623.251 384.139L624.222 386.718L620.506 381.843Z" fill="#CD5014"/>
<path fill-rule="evenodd" clip-rule="evenodd" d="M563.474 416.877L562.084 413.316C564.492 409.686 565.271 405.049 563.854 400.648C561.372 392.935 552.252 388.508 544.667 391.351C536.956 394.24 533.122 402.87 536.108 410.518C537.925 415.168 541.843 418.365 546.348 419.465L547.74 423.028L508.921 438.2C505.538 439.523 503.867 443.337 505.189 446.722L520.217 485.212L518.152 486.018C514.524 483.606 509.89 482.828 505.491 484.246C497.781 486.73 493.357 495.855 496.198 503.444C499.086 511.157 507.712 514.995 515.355 512.008C520.003 510.19 523.199 506.269 524.297 501.76L526.363 500.954L541.391 539.441C542.712 542.826 546.525 544.497 549.908 543.175L642.577 506.954C645.96 505.631 647.63 501.817 646.31 498.432L610.107 405.713C608.785 402.328 604.973 400.657 601.59 401.979L563.474 416.877Z" fill="#FA735F"/>
<path fill-rule="evenodd" clip-rule="evenodd" d="M673.649 412.763C674.969 437.65 661.039 467.171 631.725 474.362C608.424 480.128 583.354 473.684 561.239 464.244C559.783 463.623 559.105 461.937 559.728 460.48C560.274 459.196 561.645 458.518 562.958 458.799L562.996 458.807C593.766 465.337 633.081 469.619 647.639 441.558C655.017 427.761 653.685 411.06 653.717 413.42C653.549 400.489 672.946 399.857 673.649 412.763Z" fill="#FAB9AF"/>
<path fill-rule="evenodd" clip-rule="evenodd" d="M650.713 432.538C653.04 421.992 653.367 413.453 653.373 413.296L653.371 413.596L655.054 406.886C655.054 406.886 658.263 401.509 667.039 403.59C674.05 405.251 674.003 413.219 674.003 413.219C674.022 414.325 676.557 422.294 669.685 439.594C669.685 439.594 650.388 434.015 650.713 432.538Z" fill="#AAC85A"/>
<path fill-rule="evenodd" clip-rule="evenodd" d="M564.636 459.228C562.7 456.968 562.188 449.037 561.098 449.037C560.316 449.037 560.176 451.776 560.159 453.313C560.157 453.494 560.05 453.655 559.887 453.728C559.723 453.802 559.532 453.772 559.398 453.653C557.199 451.716 550.996 446.346 550.356 446.858C549.708 447.377 553.004 451.382 554.126 452.711C554.16 452.752 554.162 452.809 554.128 452.852C554.096 452.892 554.039 452.905 553.992 452.881C552.258 452.003 546.599 449.229 546.467 450.415C546.342 451.544 551.261 454.684 553.182 455.864C553.231 455.894 553.248 455.954 553.227 456.005C553.204 456.056 553.146 456.081 553.093 456.064C550.938 455.426 545.394 453.887 545.269 454.891C545.139 455.913 550.501 458.21 552.428 459C552.479 459.022 552.507 459.075 552.494 459.128C552.481 459.181 552.432 459.217 552.379 459.213C550.477 459.064 545.573 458.747 546.329 459.504C547.262 460.44 559.075 464.303 561.721 464.303C564.368 464.303 564.636 459.228 564.636 459.228Z" fill="#FAB9AF"/>
<path fill-rule="evenodd" clip-rule="evenodd" d="M341.781 485.858H354.758V472.874H341.781V485.858Z" fill="#41A0D7"/>
<path fill-rule="evenodd" clip-rule="evenodd" d="M364.746 515.196C364.746 543.34 341.943 566.154 313.817 566.154C285.688 566.154 262.885 543.34 262.885 515.196C262.885 487.052 285.688 464.239 313.817 464.239C341.943 464.239 364.746 487.052 364.746 515.196Z" fill="#05CDFF"/>
<path fill-rule="evenodd" clip-rule="evenodd" d="M298.468 515.349C298.468 517.637 296.613 519.493 294.326 519.493C292.04 519.493 290.187 517.637 290.187 515.349C290.187 513.062 292.04 511.206 294.326 511.206C296.613 511.206 298.468 513.062 298.468 515.349Z" fill="white"/>
<path fill-rule="evenodd" clip-rule="evenodd" d="M316.624 515.349C316.624 517.637 314.771 519.493 312.482 519.493C310.196 519.493 308.343 517.637 308.343 515.349C308.343 513.062 310.196 511.206 312.482 511.206C314.771 511.206 316.624 513.062 316.624 515.349Z" fill="white"/>
<path fill-rule="evenodd" clip-rule="evenodd" d="M334.78 515.349C334.78 517.637 332.927 519.493 330.639 519.493C328.352 519.493 326.499 517.637 326.499 515.349C326.499 513.062 328.352 511.206 330.639 511.206C332.927 511.206 334.78 513.062 334.78 515.349Z" fill="white"/>
</g>
</svg>
