<svg width="780" height="690" viewBox="0 0 780 690" fill="none" xmlns="http://www.w3.org/2000/svg"><path fill-rule="evenodd" clip-rule="evenodd" d="M581.976 45.155c.176-2.973 5.317-9.03 4.535-9.787-.565-.544-2.565 1.327-3.647 2.422a.458.458 0 0 1-.784-.287c-.234-2.922-.965-11.095-1.781-11.171-.824-.079-1.238 5.092-1.353 6.829a.111.111 0 0 1-.096.102.11.11 0 0 1-.119-.074c-.637-1.837-2.779-7.767-3.699-7.004-.874.723.482 6.402 1.045 8.588a.111.111 0 0 1-.204.083c-1.107-1.959-4.025-6.921-4.811-6.288-.803.647 1.458 6.026 2.295 7.935a.113.113 0 0 1-.042.139.114.114 0 0 1-.143-.022c-1.264-1.426-4.571-5.064-4.552-3.997.022 1.323 5.831 12.315 7.735 14.154 1.902 1.841 5.621-1.622 5.621-1.622z" fill="#FA968C"/><path fill-rule="evenodd" clip-rule="evenodd" d="M634.136 81.946c-3.937 8.73-9.605 18.646-16.458 25.452-13.332 13.203-30.443 9.753-36.414-21.123-1.039-4.652-1.766-9.285-2.376-13.91-1.241-9.236-1.721-18.444-2.146-27.625a2.52 2.52 0 0 1 2.399-2.634 2.52 2.52 0 0 1 2.584 2.015l.011.052c1.806 8.912 3.623 17.808 5.952 26.462 1.199 4.31 2.44 8.585 3.887 12.708 1.253 3.901 6.294 16.029 10.212 17.215.13-.021.258.149.332.075.072-.066.108-.073.153-.032.074-.098.123-.141.187-.128.215-.174.467-.204.933-.58.854-.562 2.023-1.667 3.132-3.045 2.274-2.698 4.392-6.261 6.256-9.961 3.232-6.274 5.104-10.788 5.104-10.788 3.98-10.916 20.483-5.688 16.499 5.243a9.816 9.816 0 0 1-.247.604z" fill="#FA968C"/><path fill-rule="evenodd" clip-rule="evenodd" d="M607.687 93.694l.045-.063a107.83 107.83 0 0 0 5.601-9.185c1.706-3.083 3.445-6.508 4.662-9.421l.06-.147c.098-.232.206-.461.327-.689 2.263-4.301 7.58-5.953 11.879-3.689a8.801 8.801 0 0 1 3.687 11.885c-2.123 4.036-4.178 7.334-6.524 10.805-1.59 2.293-3.279 4.517-5.019 6.704-1.297-1.384-11.622-5.09-14.718-6.2z" fill="#A5A0AA"/><path fill-rule="evenodd" clip-rule="evenodd" d="M616.301 154.814c7.652 8.785 51.822 12.453 51.822 12.453 3.26-3.787-1.504-20.992-2.654-38.458-1.243-18.885-1.959-39.727-2.286-50.99a8.582 8.582 0 0 0-8.585-8.334h-28.029a8.291 8.291 0 0 0-8.275 7.607 59486.01 59486.01 0 0 1-3.277 39.608c-1.281 15.417-5.331 30.519 1.284 38.114z" fill="#FAB9AF"/><path fill-rule="evenodd" clip-rule="evenodd" d="M641.782 301.63l-.064 17.381 1.509 8.466c.261 1.465-.822 2.822-2.31 2.868-7.112.217-25.324.698-25.81-.091-2.291-3.706 8.06-5.132 15.631-8.064 7.574-2.935 2.348-31.699 2.348-31.699l8.696 11.139z" fill="#FA968C"/><path fill-rule="evenodd" clip-rule="evenodd" d="M630.738 322.188c.041-.014.077-.042.115-.059 1.804.674 3.836 1.069 6.124 1.069 1.964 0 3.743-.282 5.347-.786l.903 5.064a2.429 2.429 0 0 1-2.31 2.868c-7.112.219-25.323.7-25.81-.091-2.291-3.706 8.06-5.133 15.631-8.065z" fill="#F57A2F"/><path fill-rule="evenodd" clip-rule="evenodd" d="M616.312 161.149c-.274 12.081 4.475 88.731 13.857 88.943 9.38.213 19.841-76.091 20.115-88.171.275-12.083-7.11-22.049-16.49-22.261-9.381-.215-17.208 9.408-17.482 21.489z" fill="#0091C8"/><path fill-rule="evenodd" clip-rule="evenodd" d="M643.126 234.17c.93 6.651 1.081 49.261-.415 70.905h-8.54c-4.586-20.996-9.486-61.69-10.398-68.192l-.027-.249c-5.103-22.588-7.636-66.576-7.434-75.485.274-12.083 8.101-21.703 17.483-21.491 9.379.215 16.762 10.18 16.488 22.261-.17 7.586-7.597 69.102-7.157 72.251z" fill="#FF965A"/><path fill-rule="evenodd" clip-rule="evenodd" d="M641.726 267.968a44.908 44.908 0 0 0-1.443-13.433c-3.349-12.786-3.445-26.115-2.095-39.263.112-1.104.193-2.214.244-3.332.772-17.213-8.472-32.856-21.957-42.721-.145-3.629-.2-6.44-.164-8.071.274-12.081 8.103-21.701 17.482-21.489 9.382.213 16.764 10.18 16.49 22.261-.172 7.584-7.599 69.1-7.157 72.251.931 6.648 1.08 49.259-.414 70.905h-8.54c-.538-2.464-1.08-5.22-1.62-8.139 5.413-8.413 8.7-18.383 9.174-28.969z" fill="#F07D4B"/><path fill-rule="evenodd" clip-rule="evenodd" d="M662.278 301.63l-.064 17.381 1.509 8.466c.261 1.465-.822 2.822-2.31 2.868-7.112.217-25.324.698-25.81-.091-2.291-3.706 8.06-5.132 15.631-8.064 7.574-2.935 2.348-31.699 2.348-31.699l8.696 11.139z" fill="#FA968C"/><path fill-rule="evenodd" clip-rule="evenodd" d="M651.235 322.188c.04-.014.076-.042.114-.059 1.804.674 3.836 1.069 6.125 1.069 1.961 0 3.742-.282 5.346-.786l.903 5.064a2.428 2.428 0 0 1-2.31 2.868c-7.112.219-25.323.7-25.81-.091-2.291-3.706 8.06-5.133 15.632-8.065z" fill="#FF8C46"/><path fill-rule="evenodd" clip-rule="evenodd" d="M636.808 161.149c-.274 12.081 4.475 88.731 13.857 88.943 9.38.213 17.812-76.371 18.086-88.454.274-12.081-5.081-21.766-14.461-21.978-9.381-.215-17.208 9.408-17.482 21.489z" fill="#0091C8"/><path fill-rule="evenodd" clip-rule="evenodd" d="M663.622 234.17c.93 6.651 1.081 49.261-.415 70.905h-8.54c-4.586-20.996-9.488-61.69-10.398-68.192l-.027-.249c-5.103-22.588-9.665-66.859-9.463-75.767.274-12.081 10.13-21.421 19.512-21.209 9.379.215 14.732 9.9 14.46 21.981-.172 7.584-5.571 69.382-5.129 72.531z" fill="#FFBE82"/><path fill-rule="evenodd" clip-rule="evenodd" d="M626.302 69.486h4.554c1.587 3.674 4.94 6.512 10.147 6.512 5.214 0 8.57-2.838 10.153-6.512h4.156c4.25 0 7.729 3.361 7.85 7.611.317 11.075 1.037 32.416 2.308 51.713 1.147 17.464 5.914 33.695 2.654 38.455 0 0-44.17-3.667-51.822-12.45-6.615-7.595-2.565-22.697-1.284-38.114 1.275-15.342 2.567-30.995 3.298-39.867a8.006 8.006 0 0 1 7.986-7.348z" fill="#828291"/><path fill-rule="evenodd" clip-rule="evenodd" d="M658.196 94.636c.404-9.007-1.928-17.594-6.171-25.15h3.287c4.25 0 7.729 3.363 7.85 7.611.319 11.075 1.037 32.415 2.308 51.712 1.147 17.465 5.914 33.696 2.654 38.456 0 0-44.17-3.665-51.823-12.451-1.742-1.998-2.73-4.528-3.238-7.437 25.659-4.048 43.96-26.532 45.133-52.741z" fill="#757582"/><path fill-rule="evenodd" clip-rule="evenodd" d="M642.211 59.279l.525.117a7.423 7.423 0 0 0 8.857-5.637l2.38-10.713-7.769-1.729-3.993 17.962z" fill="#41378C"/><path fill-rule="evenodd" clip-rule="evenodd" d="M635.269 69.485h14.657l-4.227-14.619-9.99 1.235-.44 13.384z" fill="#FAB9AF"/><path fill-rule="evenodd" clip-rule="evenodd" d="M635.709 56.102l9.99-1.237 1.97 6.814c-2.236 2.522-5.555 6.438-9.189 6.438a5.775 5.775 0 0 1-3.149-.925l.378-11.09z" fill="#FA968C"/><path fill-rule="evenodd" clip-rule="evenodd" d="M634.197 63.873c6.581 1.465 13.101-2.685 14.565-9.27l2.951-13.28-20.436-4.548s-2.303 10.367-2.371 17.696c-.049 5.498 1.938 8.656 5.291 9.402z" fill="#FAB9AF"/><path fill-rule="evenodd" clip-rule="evenodd" d="M647.83 45.805l3.84.854-.387 1.742-3.84-.853.387-1.743z" fill="#41378C"/><path fill-rule="evenodd" clip-rule="evenodd" d="M645.854 51.32c-.576 2.592.198 4.967 1.726 5.307 1.53.34 3.971-2.679 4.547-5.27.576-2.592-.933-3.772-2.46-4.112-1.53-.34-3.237 1.484-3.813 4.076z" fill="#FAB9AF"/><path fill-rule="evenodd" clip-rule="evenodd" d="M628.646 41.922c-.111-1.76.176-3.523.839-5.156 1.643-4.057 6.182-5.802 10.313-4.363.421.147.869.275 1.341.38l6.898 1.532a7.69 7.69 0 0 1 5.837 9.176l-.357 1.61-4.089 2.372-1.668 2.905-.27-.062a2.542 2.542 0 0 1-1.959-2.87c.34-2.169-.737-4.286-2.879-4.763l-6.12-1.363c-3.727-.829-6.11.742-6.728 3.532l-.334 2.4-.824-5.33z" fill="#41378C"/><path d="M648.193 120.725l100.846 561.438m-83.851 0L564.342 120.725m6.681 25.009h81.959M576.471 183.3h83.102m-75.527 37.567h82.361m-75.036 37.566h81.87m-77.432 37.566h82.818m-77.076 36.897h83.969m-75.547 38.236h82.681m-75.933 37.566h82.907m-76.236 35.501h82.909M629.062 479.7h82.909m-76.395 35.501h82.909m-76.582 35.501h82.909m-76.739 35.501h82.907m-75.736 35.5h82.909" stroke="#5046AF" stroke-width="2.067" stroke-linecap="round"/><path d="M564.342 120.725l-101.7 562.716m83.85-.001l101.7-562.716m-6.68 25.01h-81.719m76.27 37.566h-83.102m75.528 37.567h-82.361m75.036 37.566h-81.87m75.986 37.566h-82.818m77.257 36.897H525.75m75.728 38.236h-82.682m77.017 37.566h-82.909m76.528 42.141h-82.909m73.263 42.141h-82.909m75.712 42.14h-82.907m76.117 42.141H482.89m74.08 42.549h-82.909" stroke="#9F9FFF" stroke-width="2.067" stroke-linecap="round"/><path fill-rule="evenodd" clip-rule="evenodd" d="M649.284 37.081c.467 3.789-13.141 8.587-16.728 9.032-3.59.442-6.879-2.269-7.347-6.057-.467-3.787 2.064-7.219 5.653-7.661 3.589-.444 17.954.897 18.422 4.686z" fill="#41378C"/><path fill-rule="evenodd" clip-rule="evenodd" d="M461.241 42.832c-4.354.77-7.261 4.928-6.492 9.285L462.151 94l2.777-.492c2.565-5.493 8.132-9.459 15-9.397 6.501.06 12.489 4.201 14.82 10.273 3.8 9.891-2.403 20.235-12.284 21.983-5.417.956-10.674-.9-14.295-4.512l-2.776.491 8.186 46.333c.771 4.357 4.926 7.265 9.28 6.494l41.86-7.404-.508-2.876c-5.491-2.567-9.454-8.137-9.39-15.011.057-6.504 4.197-12.493 10.266-14.826 9.885-3.801 20.223 2.405 21.97 12.289.956 5.422-.899 10.68-4.509 14.303l.51 2.877 46.306-8.192c4.354-.77 7.261-4.927 6.492-9.285l-18.83-106.56a8.01 8.01 0 0 0-9.282-6.496l-106.503 18.84z" fill="#5046AF"/><path fill-rule="evenodd" clip-rule="evenodd" d="M664.832 83.782c-4.513 6.155-12.25 14.252-21.515 21.242-28.335 20.675-58.659 22.765-83.39-.637a2.522 2.522 0 0 1-.097-3.566 2.517 2.517 0 0 1 3.089-.453l.115.066c16.127 9.313 30.568 13.138 48.748 5.494 23.831-10.276 40.742-34.999 38.961-32.639a8.778 8.778 0 0 1 12.302-1.715c3.836 2.898 4.62 8.34 1.787 12.208z" fill="#FAB9AF"/><path fill-rule="evenodd" clip-rule="evenodd" d="M637.741 87.484c5.901-5.298 13.404-15.74 13.404-15.74s3.558-4.205 10.878-1.14c5.846 2.452 4.663 9.362 4.663 9.362-.143.961-2.096 12.361-15.538 22.444 0 0-14.397-14.037-13.407-14.926z" fill="#A5A0AA"/><path fill-rule="evenodd" clip-rule="evenodd" d="M564.714 101.497c-1.936-2.26-2.448-10.19-3.538-10.19-.782 0-.923 2.738-.94 4.275a.457.457 0 0 1-.76.34c-2.2-1.937-8.403-7.308-9.042-6.795-.648.519 2.648 4.524 3.77 5.853a.11.11 0 0 1 .002.14.111.111 0 0 1-.136.03c-1.734-.878-7.393-3.653-7.525-2.466-.125 1.129 4.794 4.27 6.715 5.45a.112.112 0 0 1 .045.14.114.114 0 0 1-.134.061c-2.155-.638-7.699-2.18-7.824-1.176-.128 1.023 5.231 3.319 7.159 4.11a.112.112 0 0 1 .066.128.111.111 0 0 1-.115.085c-1.902-.149-6.807-.466-6.05.291.933.936 12.746 4.799 15.391 4.799 2.648 0 2.916-5.075 2.916-5.075z" fill="#FAB9AF"/><mask id="a" maskUnits="userSpaceOnUse" x="0" y="0" width="780" height="690"><path fill-rule="evenodd" clip-rule="evenodd" d="M0 690h779.977V.03H0V690z" fill="#fff"/></mask><g mask="url(#a)" clip-rule="evenodd"><path fill-rule="evenodd" d="M103.8 576.757h560.403V235.592H103.8v341.165z" fill="#5046AF"/><path fill-rule="evenodd" d="M132.226 551.205h503.553V261.14H132.226v290.065z" fill="#fff"/><path d="M165.015 519.1h129.032V334.118H165.015V519.1zm158.13 0h129.032V334.118H323.145V519.1zm158.129 0h129.032V334.118H481.274V519.1z" stroke="#827DDC" stroke-width=".988"/><path fill-rule="evenodd" d="M132.226 265.864h503.553v-4.724H132.226v4.724z" fill="#A5C8CD"/><path fill-rule="evenodd" d="M336.203 373.811h101.558v-23.815H336.203v23.815zm0 35.724h101.558V385.72H336.203v23.815zm0 35.723h101.558v-23.815H336.203v23.815zm0 35.724h101.558v-23.815H336.203v23.815zM164.821 314.273h445.906v-26.197H164.821v26.197z" fill="#C8E6EB"/><path fill-rule="evenodd" d="M28.43 687.644h187.963a2.768 2.768 0 0 0 0-5.537H28.431a2.768 2.768 0 0 0 0 5.537z" fill="#B4D7DC"/><path fill-rule="evenodd" d="M54.297 626.894s-11.503 13.245-13.615 15.355c-1.745 1.741-4.218 2.375-6.59 3.042-.758.213-1.746.993-2.581 1.65-.672.525-.978 1.348-.963 2.201.272 14.91 13.243 25.363 13.936 24.491 1.245-1.576.295-5.943-2.185-8.824-2.497-2.898-3.102-6.984-1.989-10.645a17.712 17.712 0 0 1 4.707-7.65l10.002-9.368-.722-10.252zm117.579 18.838l9.15 15.298a22.837 22.837 0 0 1 2.901 15.582v.005c-.523 3.004 1.731 5.77 4.779 5.847 9.849.244 28.912.599 29.463-.298 2.801-4.576-9.257-6.623-18.726-9.831-6.385-2.165-14.244-19.461-19.225-33.071l-7.465 4.731a1.986 1.986 0 0 0-.877 1.737z" fill="#FA968C"/><path fill-rule="evenodd" d="M199.258 677.602c4.046 0 8.175-.929 11.989-1.684a2.492 2.492 0 0 1 1.315.094c4.414 1.569 7.092 3.727 5.606 6.153-.597.976-23.02.472-31.779.238-1.83-.049-3.173-1.712-2.858-3.519l.573-3.287c4.952 1.261 10.028 2.005 15.154 2.005z" fill="#823264"/><path fill-rule="evenodd" d="M139.137 472.973c-10.115-2.026-22.198 6.264-24.805 19.291-1.499 7.486-3.706 35.374-3.392 58.133.119 8.736-4.071 17.139-11.53 21.68-1.216.74-2.33 1.554-3.298 2.439-4.992 4.561-28.205 33.676-42.755 53.428-.455 3.089.002 7.361 1.727 9.391 18.624-14.602 50.206-42.095 55.514-46.945 2.949-2.694 6.245-5.849 8.927-8.956 11.441-7.671 30.011-66.244 32.43-78.331 2.607-13.027-2.703-28.104-12.818-30.13z" fill="#FFAA50"/><path fill-rule="evenodd" d="M148.561 388.508c0 11.218-7.045 20.312-15.736 20.312s-15.735-9.094-15.735-20.312c0-11.217 7.044-20.311 15.735-20.311 8.691 0 15.736 9.094 15.736 20.311z" fill="#9B14AA"/><path fill-rule="evenodd" d="M129.051 390.604c-.251-11.243-9.348-20.691-20.568-21.334-9.954-.567-18.547 5.535-21.764 14.248-1.129 3.053-4.119 5.041-7.372 4.992a19.256 19.256 0 0 0-4.156.395c-8.224 1.687-14.608 8.635-15.475 16.988-.78 7.538 2.744 14.297 8.409 18.154 2.414 1.645 3.789 4.371 4.188 7.267 1.855 13.399 14.083 23.241 28.031 21.714 11.932-1.307 21.48-11.13 22.495-23.094.623-7.34-1.895-14.071-6.324-19.07 7.546-3.569 12.736-11.309 12.536-20.26z" fill="#9B14AA"/><path fill-rule="evenodd" d="M267.737 393.443c-3.974-.85-7.631.844-9.671 3.753h-2.359v-21.753a7.218 7.218 0 0 0-7.218-7.22H224.16v-2.418c2.909-2.041 4.602-5.7 3.752-9.676-.733-3.425-3.482-6.23-6.895-7.01-6.095-1.39-11.501 3.204-11.501 9.064a9.294 9.294 0 0 0 3.97 7.622v2.418h-21.741a7.217 7.217 0 0 0-7.217 7.22v21.753h1.618c2.04-2.909 5.695-4.603 9.668-3.753 3.424.731 6.227 3.483 7.006 6.897 1.392 6.098-3.2 11.509-9.056 11.509a9.285 9.285 0 0 1-7.618-3.974h-1.618v24.343a7.22 7.22 0 0 0 7.217 7.222h21.741v-1.675c-2.907-2.041-4.601-5.7-3.751-9.676.733-3.425 3.483-6.23 6.896-7.01 6.094-1.391 11.5 3.204 11.5 9.064a9.295 9.295 0 0 1-3.971 7.622v1.675h24.329a7.22 7.22 0 0 0 7.218-7.222v-24.343h2.359a9.286 9.286 0 0 0 7.618 3.974c5.857 0 10.449-5.409 9.059-11.507-.78-3.414-3.583-6.165-7.006-6.899z" fill="#05CDFF"/><path fill-rule="evenodd" d="M132.825 361.535s8.855 5.575 7.778 13.086c0 0 4.728-3.351 5.799-14.891.739-7.999-13.577 1.805-13.577 1.805z" fill="#9B14AA"/><path fill-rule="evenodd" d="M154.012 407.301a55.688 55.688 0 0 0 .521 10.652c.48 3.491 1.303 6.959 2.507 9.834.591 1.437 1.265 2.67 1.892 3.608.639.935 1.124 1.233 1.035 1.337-.126.089-.207.376.612.096.35-.051.858-.464 1.374-.744.525-.43 1.091-.874 1.649-1.423 2.253-2.279 4.444-5.432 6.312-8.838 1.904-3.391 3.636-7.021 5.259-10.742 3.198-7.467 5.997-15.274 8.589-23.179l.009-.021a2.77 2.77 0 0 1 3.498-1.771 2.777 2.777 0 0 1 1.884 3.004c-1.119 8.381-2.511 16.769-4.645 25.137-.484 2.101-1.152 4.185-1.73 6.288-.703 2.085-1.345 4.182-2.186 6.272-1.59 4.186-3.523 8.383-6.547 12.587-.778 1.048-1.69 2.092-2.65 3.121-1.116 1.02-2.146 2.041-3.679 2.93l-1.081.663c-.387.21-.848.387-1.277.57-.895.346-1.715.733-2.773.895-1.981.457-4.223.457-6.254.019-4.155-.912-7.179-3.217-9.312-5.375a33.548 33.548 0 0 1-5.028-6.791c-4.955-9.176-6.844-18.478-7.293-28.129l-.002-.032c-.246-5.336 3.876-9.865 9.212-10.112 5.334-.246 9.858 3.878 10.106 9.215.013.308.013.627-.002.929z" fill="#FAB9AF"/><path fill-rule="evenodd" d="M142.735 446.219c3.543-10.682 10.67-33.3 10.06-40.693a9.112 9.112 0 0 0-9.095-8.362h-30.817a9.435 9.435 0 0 0-9.437 9.164c-.261 8.93 3.851 29.254 6.165 39.891h33.124zm-6.075 48.224c3.545 12.804 32.358 103.82 22.415 106.576-9.941 2.753-64.052-86.11-64.742-99.377-.655-12.585 6.634-26.217 16.577-28.973 9.94-2.755 22.206 8.97 25.75 21.774z" fill="#FAB9AF"/><path fill-rule="evenodd" d="M181.214 642.887c.368-.431.453-1.039.259-1.573-7.703-21.336-18.043-48.364-20.249-53.469a30.072 30.072 0 0 0-.799-1.709c-3.761-26.983-21.069-81.955-23.764-91.693-3.544-12.803-15.81-24.529-25.753-21.773-9.94 2.753-17.231 16.388-16.575 28.973.432 8.304 21.79 46.222 40.148 72.754 3.865 5.586 6.292 11.998 7.474 18.689.816 4.627 2.12 9.241 3.578 12.615 2.172 5.026 14.905 24.204 26.28 40.469.327.47.882.746 1.454.689 3.017-.308 5.869-1.531 7.947-3.972z" fill="#FAC855"/><path fill-rule="evenodd" d="M106.086 459.76a29.347 29.347 0 0 0 1.404-13.978c-1.555-10.926-4.273-31.511-4.022-40.25.134-4.671 3.959-8.368 8.629-8.368h4.571c1.741 4.039 5.427 7.158 11.161 7.158 5.724 0 9.413-3.119 11.156-7.158h4.29c-4.662 9.988-2.985 23.166 5.037 30.854-1.492 5.273-2.746 10.578-3.683 14.879a29.093 29.093 0 0 0 1.583 17.396c3.938 9.457 7.059 24.623 6.131 30.634-32.417 9.193-54.834-7.076-54.834-7.076l8.577-24.091z" fill="#39AE96"/><path fill-rule="evenodd" d="M144.629 442.897c.316-1.45.682-3.043 1.066-4.684-4.664-1.165-9.252-2.696-13.727-4.659-9.427-4.133-21.465-10.847-28.231-20.109.187 2.66.451 5.585.767 8.624 3.328 7.764 6.896 15.261 13.443 21.098 7.837 6.988 17.383 11.611 27.372 14.64a29.061 29.061 0 0 1-.69-14.91z" fill="#1C9585"/><path fill-rule="evenodd" d="M132.825 399.287l-13.98-1.47 4.424-15.306 9.042 1.121.514 15.655z" fill="#FAB9AF"/><path fill-rule="evenodd" d="M132.311 383.631l-9.042-1.12-1.381 4.779c2.025 2.284 4.626 7.217 7.916 7.217a5.235 5.235 0 0 0 2.849-.838l-.342-10.038z" fill="#FA968C"/><path fill-rule="evenodd" d="M132.623 391.03c-3.071 0-6.392-1.537-10.965-5.536-2.627-2.295-4.571-6.298-4.571-9.003v-14.957h23.014s1.727 7.943.051 15.823c-1.258 5.913-5.115 13.673-7.529 13.673z" fill="#FAB9AF"/><path fill-rule="evenodd" d="M120.989 373.663c0 2.919-1.396 5.283-3.118 5.283-1.723 0-3.623-3.825-3.623-6.742 0-2.919 1.9-3.825 3.623-3.825 1.722 0 3.118 2.365 3.118 5.284z" fill="#FAB9AF"/><path fill-rule="evenodd" d="M114.249 363.347a8.45 8.45 0 0 1 8.453-8.454l7.767.002c2.223 0 4.378-.58 6.267-1.654 2.741-1.556 6.205-1.038 8.075 1.501 2.021 2.743 2.896 6.417-2.229 9.819-2.548 1.69-6.273-.183-8.755.629-.153-.006-.289-.032-.449-.032h-6.847c-2.38 0-4.199 1.945-4.269 4.327a2.792 2.792 0 0 1-2.79 2.711h-.304l-1.096-3.515-3.823 5.156v-10.49z" fill="#9B14AA"/><path fill-rule="evenodd" d="M189.871 379.864s1.609 7.949-.655 9.244c-2.263 1.297-4.018 1.752-6.026-1.473-2.008-3.224-3.226-8.605-3.313-11.977-.085-3.372 2.157-9.085 2.801-9.538 2.344-1.65 1.857 4.476 1.766 7.452-.092 2.979.102 6.351 1.547 5.99 1.445-.362 1.19-6.079 2.707-7.04 1.519-.961 1.173 7.342 1.173 7.342zm34.337 54.069s-8.001-1.307-9.21 1.004c-1.207 2.311-1.596 4.084 1.7 5.97 3.296 1.886 8.717 2.9 12.089 2.858 3.371-.041 8.991-2.499 9.421-3.16 1.557-2.405-4.542-1.688-7.512-1.484-2.971.204-6.346.138-6.04-1.32.306-1.457 6.025-1.418 6.928-2.973.903-1.556-7.376-.895-7.376-.895z" fill="#FAB9AF"/><path fill-rule="evenodd" d="M138.386 361.273c-.772 3.416.367 5.285-10.827 10.618-11.195 5.334-14.737 3.055-18.233 8.798 0 0 1.528-9.513 7.71-12.776 6.184-3.266 16.906-5.399 20.345-12.957 0 0 1.532 3.982 1.005 6.317z" fill="#9B14AA"/><path fill-rule="evenodd" d="M119.024 405.834a1.096 1.096 0 0 0-.037-.236l.056.164.1.376c.138.338.278.685.397 1.033.319.719.661 1.499 1.082 2.252.51.742.886 1.537 1.459 2.271.591.729 1.193 1.45 1.743 2.222 1.426 1.352 2.616 2.906 4.35 4.099l2.429 1.93 2.752 1.669c7.388 4.521 16.364 7.455 25.644 9.725 2.35.485 4.747.861 7.129 1.304 2.391.408 4.769.937 7.23 1.093l7.346.725 3.689.416 3.723.164 7.476.332c2.499.129 5 .231 7.514.176 5.025.002 10.064-.068 15.144.011l.156.002a2.767 2.767 0 0 1 2.726 2.813 2.773 2.773 0 0 1-2.199 2.67c-5.03 1.057-10.101 1.967-15.184 2.949-2.535.557-5.11.789-7.688 1.087l-7.752.88-3.889.438-3.927.168-7.879.232c-2.629.161-5.285-.062-7.945-.175-2.659-.144-5.328-.227-8.003-.433-10.693-1.206-21.626-3.504-32.088-8.784l-3.882-2.079c-1.254-.812-2.486-1.697-3.725-2.558-2.535-1.603-4.767-3.865-7.07-5.947-1.067-1.188-2.085-2.426-3.111-3.654-1.005-1.253-1.859-2.701-2.769-4.061-.856-1.436-1.617-2.962-2.335-4.553l-.946-2.532-.408-1.46-.195-.755-.224-1.17c-.773-5.281 2.878-10.188 8.154-10.962 5.276-.774 10.183 2.879 10.957 8.158z" fill="#FAB9AF"/><path fill-rule="evenodd" d="M136.233 361.909s.425 11.509 10.476 17.037c0 0-4.428-8.698-4.126-14.385.301-5.69-7.013-6.583-6.35-2.652z" fill="#9B14AA"/><path fill-rule="evenodd" d="M25.743 651.703a2.051 2.051 0 0 1 .85-2.533c.712-.423 2.62-1.601 4.057-2.485.623-.383 1.405.026 1.487.753.931 8.236 4.663 15.701 11.665 19.26 1.827 2.439 2.086 6.609 1.1 7.854-.231.294-3.51-.79-6.26-3.944-12.214-13.998-12.899-18.905-12.899-18.905z" fill="#823264"/><path fill-rule="evenodd" d="M457.947 690h117.298a2.767 2.767 0 0 0 2.766-2.768 2.767 2.767 0 0 0-2.766-2.769H457.947a2.768 2.768 0 0 0 0 5.537zm191.473 0h127.508a3.053 3.053 0 0 0 0-6.104H649.42a3.051 3.051 0 1 0 0 6.104z" fill="#B4D7DC"/><path fill-rule="evenodd" d="M768.05 608.714c-.484-.098-.954-.195-1.381-.287-1.147-.242-2.618-.217-3.912-.108a11.953 11.953 0 0 1-6.305-1.178l-8.102-3.995c-3.424-1.686-7.089 1.809-5.57 5.311.13.3.37.54.667.672l9.586 4.25a19.197 19.197 0 0 1 7.138 5.471l2.718 3.357c5.778-3.613 4.974-10.144 5.161-13.493z" fill="#FAB9AF"/><path fill-rule="evenodd" d="M764.537 636.634c.391-4.606-1.693-12.232-2.679-14.783 2.471-4.546 2.556-9.428 1.054-13.82 1.268-.103 2.682-.126 3.799.112 1.535.325 5.085.874 6.543 1.157a2.117 2.117 0 0 1 1.711 2.166s-4.586 33.217-5.604 32.586c-1.764-1.095-5.157-3.491-4.824-7.418z" fill="#46738C"/><path fill-rule="evenodd" d="M591.313 575.849c-2.574 10.188-20.683 90.342-17.104 90.416 3.102.064 36.063-74.785 38.636-84.973 2.574-10.187-.161-19.665-6.107-21.168-5.946-1.504-12.852 5.536-15.425 15.725z" fill="#41B5E6"/><path fill-rule="evenodd" d="M630.974 494.458c-8.706 10.618-47.61 80.232-39.365 87 8.245 6.769 62.177-50.869 70.883-61.487 8.708-10.618 7.421-25.718-.824-32.485-8.245-6.768-21.988-3.646-30.694 6.972z" fill="#41B5E6"/><path fill-rule="evenodd" d="M578.754 677.401c.027-.493.053-.974.08-1.41.073-1.171-.17-2.621-.467-3.886a12.01 12.01 0 0 1 .242-6.415l2.76-8.604c1.167-3.634-2.828-6.751-6.066-4.733a1.304 1.304 0 0 0-.568.759l-2.796 10.11a19.195 19.195 0 0 1-4.361 7.867l-2.92 3.182c4.418 5.188 10.757 3.436 14.096 3.13z" fill="#FAB9AF"/><path fill-rule="evenodd" d="M550.636 678.018c4.609-.289 11.844-3.47 14.222-4.82 4.858 1.78 9.695 1.146 13.817-.982.287 1.241.519 2.634.448 3.776-.097 1.567-.119 5.16-.184 6.644a2.123 2.123 0 0 1-1.892 2.014s-33.513.329-33.039-.77c.826-1.907 2.696-5.615 6.628-5.862z" fill="#46738C"/><path fill-rule="evenodd" d="M612.845 581.292c-1.589 6.298-21.269 55.119-31.852 77.864-3.187-1.216-4.968-1.116-8.219-2.138 4.144-21.362 11.56-69.056 14.002-79.346 1.064-14.339 36.127-73.372 44.197-83.214 8.707-10.618 22.449-13.741 30.694-6.971 8.245 6.767 9.533 21.867.824 32.485-5.631 6.87-48.571 57.064-49.646 61.32z" fill="#695A6E"/><path fill-rule="evenodd" d="M661.668 487.486c-8.245-6.768-21.988-3.647-30.694 6.971-.703.857-1.63 2.126-2.705 3.672 7.865 15.657 10.527 32.979 10.113 50.571 10.797-12.961 21.49-25.533 24.11-28.729 8.706-10.618 7.421-25.718-.824-32.485z" fill="#614C69"/><path fill-rule="evenodd" d="M655.056 581.706l-.01-.008c-.009-.015-.015-.034-.022-.047a10.526 10.526 0 0 1-.805-2.028c-5.808-17.218-4.146-79.74-2.263-92.426a32.519 32.519 0 0 1 2.856-9.309l18.515 10.083a70.481 70.481 0 0 0 16.399 13.703c.941.567-.319-1.895.643-1.391-2.669 16.45-6.147 49.078-7.456 65.396a8.588 8.588 0 0 0 5.232 8.62c17.255 7.254 48.031 21.349 65.182 30.608l-.585 9.717c-25.034-5.25-75.046-20.127-82.639-22.344-7.167-2.092-12.735-6.211-15.047-10.574z" fill="#828291"/><path fill-rule="evenodd" d="M639.781 423.829c-.048 1.057-.116 1.555-.193 2.265a55.956 55.956 0 0 1-.973 5.568c-.559 2.396-1.194 4.756-2.047 7.053a58.039 58.039 0 0 1-6.715 13.084c-5.616 8.152-13.797 14.575-22.669 18.028-4.416 1.807-8.978 2.893-13.483 3.54-4.512.742-8.993.769-13.396.672-8.808-.33-17.27-2.033-25.428-4.308a2.87 2.87 0 0 1 .997-5.624l.038.005c8.128.65 16.235.714 23.987-.262 7.703-1.108 15.151-3.032 21.224-6.729 6.108-3.591 10.876-8.545 13.917-14.543a39.848 39.848 0 0 0 3.536-9.474c.417-1.648.725-3.332.95-4.999a34.942 34.942 0 0 0 .302-3.659c.006-.323.01-.859-.011-.838.06-5.515 4.577-9.937 10.092-9.876 5.512.06 9.934 4.58 9.872 10.097z" fill="#FA968C"/><path fill-rule="evenodd" d="M609.32 438.26c1.711-3.678 8.345-18.023 9.169-21.516l.041-.175c.066-.278.146-.559.238-.835 1.74-5.243 7.397-8.082 12.637-6.341 5.24 1.742 8.077 7.404 6.337 12.645-1.632 4.918-3.324 8.998-5.313 13.326-1.355 2.864-2.839 5.671-4.386 8.448-1.708-1.312-18.736-5.524-18.723-5.552z" fill="#AAC85A"/><path fill-rule="evenodd" d="M631.379 506.526c8.271 6.829 42.796 5.445 55.607 4.675 3.222-.195 5.651-3.115 5.117-6.3-1.364-8.13-7.014-22.124-10.412-36.659-4.892-20.942-9.559-44.181-12.013-56.749a9.756 9.756 0 0 0-11.171-7.752l-31.431 5.201a9.427 9.427 0 0 0-7.867 10.069c.829 10.136 2.268 27.749 3.668 45.017 1.42 17.524-.323 35.209 8.502 42.498z" fill="#FAB9AF"/><path fill-rule="evenodd" d="M626.777 408.991l5.107-.844c2.458 3.825 6.746 6.383 12.586 5.417 5.846-.967 9.082-4.773 10.177-9.185l4.66-.771c4.766-.789 9.29 2.343 10.215 7.086 2.407 12.362 7.169 36.153 12.169 57.549 3.451 14.768 9.125 28.339 10.398 36.591.499 3.234-1.925 6.176-5.189 6.372-12.878.772-47.269 2.134-55.52-4.68-8.825-7.288-7.083-24.974-8.504-42.497a92984.207 92984.207 0 0 0-3.691-45.321 9.094 9.094 0 0 1 7.592-9.717z" fill="#82BE50"/><path fill-rule="evenodd" d="M643.47 391.829l.588-.168c4.478-1.286 7.066-5.961 5.783-10.441l-3.439-11.99-8.697 2.497 5.765 20.102z" fill="#CD5014"/><path fill-rule="evenodd" d="M636.422 409.007l15.158-1.112.533-2.181-8.876-15.951-10.527 4.486 3.712 14.758z" fill="#FAB9AF"/><path fill-rule="evenodd" d="M632.71 394.248l10.528-4.484 3.565 6.407c-1.653 3.457-3.663 7.29-7.635 8.43-1.258.361-2.673.257-3.893-.102l-2.565-10.251z" fill="#FA968C"/><path fill-rule="evenodd" d="M637.963 400.771c7.365-2.113 11.621-9.802 9.509-17.169l-4.263-14.864-22.869 6.566s3.326 11.602 7.238 18.955c2.934 5.515 6.63 7.59 10.385 6.512z" fill="#FAB9AF"/><path fill-rule="evenodd" d="M641.766 375.324l4.299-1.233.559 1.949-4.299 1.233-.559-1.949z" fill="#CD5014"/><path fill-rule="evenodd" d="M642.787 381.904c.831 2.9 2.893 4.852 4.605 4.361 1.711-.491 2.508-4.833 1.677-7.733-.831-2.9-2.977-3.259-4.688-2.768-1.713.491-2.424 3.24-1.594 6.14z" fill="#FAB9AF"/><path fill-rule="evenodd" d="M620.506 381.872a13.37 13.37 0 0 1-1.962-5.605s-1.995-6.61.245-8.617c2.037-1.831 6.496-1.514 9.228-1.69 2.004-.13 7.718-2.22 7.718-2.22a8.737 8.737 0 0 1 10.81 5.989l.517 1.801-2.795 4.59-.087 3.806-.304.087a2.881 2.881 0 0 1-3.512-1.803c-.84-2.349-3.065-3.878-5.462-3.189l-6.851 1.967c-4.169 1.197-5.695 4.059-4.8 7.18l.971 2.579-3.716-4.875z" fill="#CD5014"/><path fill-rule="evenodd" d="M563.474 416.906l-1.39-3.561c2.408-3.629 3.187-8.267 1.77-12.668-2.482-7.713-11.602-12.14-19.187-9.297-7.711 2.889-11.545 11.519-8.559 19.167 1.817 4.65 5.735 7.848 10.24 8.947l1.392 3.563-38.819 15.172a6.58 6.58 0 0 0-3.732 8.522l15.028 38.49-2.065.806c-3.628-2.411-8.262-3.19-12.661-1.771-7.71 2.483-12.134 11.608-9.293 19.197 2.888 7.713 11.514 11.551 19.157 8.564 4.648-1.818 7.844-5.739 8.942-10.248l2.066-.806 15.028 38.487a6.573 6.573 0 0 0 8.517 3.734l92.669-36.221a6.582 6.582 0 0 0 3.733-8.522l-36.203-92.719a6.574 6.574 0 0 0-8.517-3.734l-38.116 14.898z" fill="#FA735F"/><path fill-rule="evenodd" d="M673.649 412.792c1.32 24.887-12.61 54.408-41.924 61.599-23.301 5.766-48.371-.678-70.486-10.118a2.867 2.867 0 0 1-1.511-3.764 2.863 2.863 0 0 1 3.23-1.681l.038.008c30.77 6.53 70.085 10.812 84.643-17.249 7.378-13.797 6.046-30.498 6.078-28.138-.168-12.931 19.229-13.563 19.932-.657z" fill="#FAB9AF"/><path fill-rule="evenodd" d="M650.713 432.567c2.327-10.546 2.654-19.085 2.66-19.242l-.002.3 1.683-6.71s3.209-5.377 11.985-3.296c7.011 1.661 6.964 9.629 6.964 9.629.019 1.106 2.554 9.075-4.318 26.375 0 0-19.297-5.579-18.972-7.056z" fill="#AAC85A"/><path fill-rule="evenodd" d="M564.636 459.257c-1.936-2.26-2.448-10.191-3.538-10.191-.782 0-.922 2.739-.939 4.276a.46.46 0 0 1-.761.34c-2.199-1.937-8.402-7.307-9.042-6.795-.648.519 2.648 4.525 3.77 5.853a.11.11 0 0 1-.134.17c-1.734-.878-7.393-3.652-7.525-2.466-.125 1.129 4.794 4.269 6.715 5.449.049.03.066.09.045.141a.11.11 0 0 1-.134.059c-2.155-.638-7.699-2.177-7.824-1.173-.13 1.022 5.232 3.319 7.159 4.11a.109.109 0 0 1 .066.127.111.111 0 0 1-.115.085c-1.902-.149-6.806-.465-6.05.291.933.936 12.746 4.799 15.392 4.799 2.647 0 2.915-5.075 2.915-5.075z" fill="#FAB9AF"/><path fill-rule="evenodd" d="M341.781 485.887h12.977v-12.984h-12.977v12.984z" fill="#41A0D7"/><path fill-rule="evenodd" d="M364.746 515.225c0 28.144-22.803 50.958-50.929 50.958-28.129 0-50.932-22.814-50.932-50.958s22.803-50.957 50.932-50.957c28.126 0 50.929 22.813 50.929 50.957z" fill="#05CDFF"/><path fill-rule="evenodd" d="M298.468 515.378a4.144 4.144 0 0 1-4.142 4.144 4.142 4.142 0 0 1-4.139-4.144 4.142 4.142 0 1 1 8.281 0zm18.156 0a4.143 4.143 0 0 1-4.142 4.144 4.142 4.142 0 0 1-4.139-4.144 4.142 4.142 0 1 1 8.281 0zm18.156 0a4.142 4.142 0 0 1-4.141 4.144 4.142 4.142 0 0 1-4.14-4.144 4.142 4.142 0 0 1 4.14-4.143 4.142 4.142 0 0 1 4.141 4.143z" fill="#fff"/></g></svg>