<svg width="37" height="36" fill="none" xmlns="http://www.w3.org/2000/svg"><path d="M31.333 6H36v23H15m-9.143 0H1V6h17" stroke="#2F5BEA" stroke-width="2" stroke-linecap="square"/><path clip-rule="evenodd" d="M30.177 17H17.823a.812.812 0 0 1-.823-.8V1.8c0-.442.369-.8.823-.8h12.354c.454 0 .823.358.823.8v14.4c0 .442-.369.8-.823.8zM14.182 35H6.818A.816.816 0 0 1 6 34.187V22.813c0-.449.367-.813.818-.813h7.364c.451 0 .818.364.818.813v11.375a.816.816 0 0 1-.818.812z" stroke="#2F5BEA" stroke-width="2" stroke-linecap="square"/><path d="M18 33.5h5m-13-3h1m12-17h2" stroke="#2F5BEA" stroke-width="2" stroke-linecap="square"/></svg>