<svg width="112" height="56" fill="none" xmlns="http://www.w3.org/2000/svg"><path d="M11.128 25l-3.432-5.98H5.72V25H1.56V6.8h7.28c1.733 0 3.207.607 4.42 1.82s1.82 2.687 1.82 4.42c0 1.11-.312 2.14-.936 3.094a6.253 6.253 0 0 1-2.418 2.184L15.6 25h-4.472zM5.72 10.7v4.68h3.12c.572 0 1.057-.225 1.456-.676.416-.45.624-1.005.624-1.664s-.208-1.213-.624-1.664c-.399-.45-.884-.676-1.456-.676H5.72zm16.996 10.296h7.28V25h-11.44V6.8h11.31v4.004h-7.15v3.016h6.5v3.952h-6.5v3.224zm16.997 4.368c-1.855 0-3.406-.399-4.654-1.196a6.675 6.675 0 0 1-2.626-3.302l3.588-2.08c.728 1.681 2.002 2.522 3.822 2.522 1.647 0 2.47-.494 2.47-1.482 0-.537-.269-.953-.806-1.248-.52-.312-1.508-.667-2.964-1.066a13.352 13.352 0 0 1-2.002-.702 9.096 9.096 0 0 1-1.69-1.014 4.4 4.4 0 0 1-1.248-1.612c-.277-.641-.416-1.378-.416-2.21 0-1.681.598-3.025 1.794-4.03 1.213-1.005 2.652-1.508 4.316-1.508 1.49 0 2.808.355 3.952 1.066 1.144.693 2.045 1.707 2.704 3.042l-3.51 2.054c-.33-.693-.736-1.213-1.222-1.56-.485-.364-1.127-.546-1.924-.546-.624 0-1.11.139-1.456.416-.33.26-.494.58-.494.962 0 .45.208.84.624 1.17.434.33 1.318.693 2.652 1.092.728.225 1.291.407 1.69.546.399.139.901.373 1.508.702.624.312 1.092.65 1.404 1.014.33.347.615.815.858 1.404.26.572.39 1.23.39 1.976 0 1.733-.624 3.103-1.872 4.108-1.248.988-2.877 1.482-4.888 1.482zm21.773-1.69c-1.317 1.127-2.998 1.69-5.044 1.69-2.045 0-3.727-.563-5.044-1.69-1.317-1.127-1.976-2.643-1.976-4.55V6.8h4.16v11.96c0 1.699.953 2.548 2.86 2.548s2.86-.85 2.86-2.548V6.8h4.16v12.324c0 1.907-.659 3.423-1.976 4.55zM85.662 6.8V25h-4.16V14.418l-4.706 7.722h-.468l-4.706-7.722V25h-4.16V6.8h4.16l4.94 8.086 4.94-8.086h4.16zm8.288 14.196h7.28V25H89.79V6.8h11.31v4.004h-7.15v3.016h6.5v3.952h-6.5v3.224zm-71.23 24H30V49H18.56V30.8h11.31v4.004h-7.15v3.016h6.5v3.952h-6.5v3.224zM47.647 49h-4.732l-3.068-5.252L36.78 49h-4.732l5.434-9.334-5.174-8.866h4.732l2.808 4.81 2.808-4.81h4.732l-5.174 8.866L47.647 49zm9.713-18.2c1.785 0 3.294.607 4.524 1.82s1.846 2.687 1.846 4.42-.615 3.207-1.846 4.42c-1.23 1.213-2.739 1.82-4.524 1.82h-2.73V49h-4.16V30.8h6.89zm0 8.58c.642 0 1.17-.225 1.586-.676.416-.45.624-1.005.624-1.664s-.208-1.213-.624-1.664c-.416-.45-.944-.676-1.586-.676h-2.73v4.68h2.73zm13.606 5.616h7.28V49h-11.44V30.8h11.31v4.004h-7.15v3.016h6.5v3.952h-6.5v3.224zM91.161 49l-3.432-5.98h-1.976V49h-4.16V30.8h7.28c1.733 0 3.207.607 4.42 1.82s1.82 2.687 1.82 4.42c0 1.11-.312 2.14-.936 3.094a6.253 6.253 0 0 1-2.418 2.184L95.633 49h-4.472zm-5.408-14.3v4.68h3.12c.572 0 1.057-.225 1.456-.676.416-.45.624-1.005.624-1.664s-.208-1.213-.624-1.664c-.398-.45-.884-.676-1.456-.676h-3.12zm24.675-3.9v4.004h-4.68V49h-4.16V34.804h-4.68V30.8h13.52z" fill="#fff"/></svg>