<svg width="172" height="17" fill="none" xmlns="http://www.w3.org/2000/svg"><path d="M8.416 16l-2.904-5.06H3.84V16H.32V.6h6.16c1.467 0 2.713.513 3.74 1.54 1.027 1.027 1.54 2.273 1.54 3.74a4.69 4.69 0 0 1-.792 2.618 5.29 5.29 0 0 1-2.046 1.848L12.2 16H8.416zM3.84 3.9v3.96h2.64c.484 0 .895-.19 1.232-.572.352-.381.528-.85.528-1.408 0-.557-.176-1.027-.528-1.408-.337-.381-.748-.572-1.232-.572H3.84zm14.381 8.712h6.16V16h-9.68V.6h9.57v3.388h-6.05V6.54h5.5v3.344h-5.5v2.728zm14.382 3.696c-1.569 0-2.882-.337-3.938-1.012a5.648 5.648 0 0 1-2.221-2.794l3.036-1.76c.616 1.423 1.694 2.134 3.234 2.134 1.393 0 2.09-.418 2.09-1.254 0-.455-.228-.807-.683-1.056-.44-.264-1.276-.565-2.508-.902a11.296 11.296 0 0 1-1.694-.594 7.695 7.695 0 0 1-1.43-.858 3.722 3.722 0 0 1-1.056-1.364c-.234-.543-.352-1.166-.352-1.87 0-1.423.506-2.56 1.518-3.41C29.627.718 30.843.292 32.252.292c1.262 0 2.377.3 3.345.902.968.587 1.73 1.445 2.288 2.574l-2.97 1.738c-.28-.587-.624-1.027-1.035-1.32-.41-.308-.953-.462-1.627-.462-.529 0-.94.117-1.233.352-.278.22-.417.491-.417.814 0 .381.175.711.527.99.367.279 1.115.587 2.244.924.617.19 1.093.345 1.43.462.338.117.763.315 1.277.594.528.264.924.55 1.188.858.278.293.52.69.725 1.188.22.484.33 1.041.33 1.672 0 1.467-.528 2.625-1.584 3.476-1.055.836-2.434 1.254-4.136 1.254zm18.424-1.43c-1.115.953-2.538 1.43-4.268 1.43s-3.154-.477-4.268-1.43c-1.115-.953-1.672-2.237-1.672-3.85V.6h3.52v10.12c0 1.437.806 2.156 2.42 2.156 1.613 0 2.42-.719 2.42-2.156V.6h3.52v10.428c0 1.613-.558 2.897-1.672 3.85zM71.484.6V16h-3.52V7.046L63.98 13.58h-.395l-3.983-6.534V16h-3.52V.6h3.52l4.18 6.842L67.963.6h3.52zm7.013 12.012h6.16V16h-9.68V.6h9.57v3.388h-6.05V6.54h5.5v3.344h-5.5v2.728zm18.858 0h6.16V16h-9.68V.6h9.57v3.388h-6.05V6.54h5.5v3.344h-5.5v2.728zM118.447 16h-4.004l-2.596-4.444L109.251 16h-4.004l4.598-7.898L105.467.6h4.004l2.376 4.07L114.223.6h4.004l-4.378 7.502L118.447 16zM126.666.6c1.51 0 2.786.513 3.828 1.54 1.041 1.027 1.562 2.273 1.562 3.74s-.521 2.713-1.562 3.74c-1.042 1.027-2.318 1.54-3.828 1.54h-2.31V16h-3.52V.6h5.83zm0 7.26c.542 0 .99-.19 1.342-.572.352-.381.528-.85.528-1.408 0-.557-.176-1.027-.528-1.408-.352-.381-.8-.572-1.342-.572h-2.31v3.96h2.31zm11.513 4.752h6.16V16h-9.68V.6h9.57v3.388h-6.05V6.54h5.5v3.344h-5.5v2.728zM155.267 16l-2.904-5.06h-1.672V16h-3.52V.6h6.16c1.466 0 2.713.513 3.74 1.54 1.026 1.027 1.54 2.273 1.54 3.74a4.69 4.69 0 0 1-.792 2.618 5.3 5.3 0 0 1-2.046 1.848L159.051 16h-3.784zm-4.576-12.1v3.96h2.64c.484 0 .894-.19 1.232-.572.352-.381.528-.85.528-1.408 0-.557-.176-1.027-.528-1.408-.338-.381-.748-.572-1.232-.572h-2.64zM171.57.6v3.388h-3.96V16h-3.52V3.988h-3.96V.6h11.44z" fill="#51545E"/></svg>