<svg width="763" height="622" viewBox="0 0 763 622" fill="none" xmlns="http://www.w3.org/2000/svg">
<mask id="mask0" mask-type="alpha" maskUnits="userSpaceOnUse" x="0" y="0" width="763" height="622">
<path fill-rule="evenodd" clip-rule="evenodd" d="M0 0.0297852H762.495V621.481H0V0.0297852Z" fill="white"/>
</mask>
<g mask="url(#mask0)">
<path opacity="0.676107" fill-rule="evenodd" clip-rule="evenodd" d="M751.268 366.636C729.096 324.948 725.243 275.787 740.707 230.488C750.726 201.138 752.292 155.801 744.025 125.716C717.456 29.0608 594.581 -28.5273 476.104 14.4996C367.475 53.9494 340.878 216.711 257.469 199.017C61.2908 157.402 -9.36853 297.239 0.979786 411.074C7.66401 484.605 69.331 575.551 201.058 566.002C239.841 563.19 277.93 572.724 310.751 591.706C366.803 624.123 455.894 631.724 548.446 606.282C687.659 568.014 781.958 469.495 759.072 386.234C757.189 379.378 754.569 372.84 751.268 366.636Z" fill="#7191F8"/>
</g>
</svg>
